G04*
G04 #@! TF.GenerationSoftware,Altium Limited,Altium Designer,18.1.8 (232)*
G04*
G04 Layer_Physical_Order=1*
G04 Layer_Color=255*
%FSLAX25Y25*%
%MOIN*%
G70*
G01*
G75*
%ADD13R,0.07087X0.04449*%
G04:AMPARAMS|DCode=14|XSize=11.02mil|YSize=43.31mil|CornerRadius=2.76mil|HoleSize=0mil|Usage=FLASHONLY|Rotation=225.000|XOffset=0mil|YOffset=0mil|HoleType=Round|Shape=RoundedRectangle|*
%AMROUNDEDRECTD14*
21,1,0.01102,0.03780,0,0,225.0*
21,1,0.00551,0.04331,0,0,225.0*
1,1,0.00551,-0.01531,0.01141*
1,1,0.00551,-0.01141,0.01531*
1,1,0.00551,0.01531,-0.01141*
1,1,0.00551,0.01141,-0.01531*
%
%ADD14ROUNDEDRECTD14*%
G04:AMPARAMS|DCode=15|XSize=11.02mil|YSize=43.31mil|CornerRadius=2.76mil|HoleSize=0mil|Usage=FLASHONLY|Rotation=135.000|XOffset=0mil|YOffset=0mil|HoleType=Round|Shape=RoundedRectangle|*
%AMROUNDEDRECTD15*
21,1,0.01102,0.03780,0,0,135.0*
21,1,0.00551,0.04331,0,0,135.0*
1,1,0.00551,0.01141,0.01531*
1,1,0.00551,0.01531,0.01141*
1,1,0.00551,-0.01141,-0.01531*
1,1,0.00551,-0.01531,-0.01141*
%
%ADD15ROUNDEDRECTD15*%
%ADD16P,0.28952X4X90.0*%
%ADD17R,0.06693X0.09449*%
%ADD18R,0.01450X0.06890*%
%ADD19R,0.01475X0.06890*%
G04:AMPARAMS|DCode=20|XSize=44.49mil|YSize=70.87mil|CornerRadius=0mil|HoleSize=0mil|Usage=FLASHONLY|Rotation=315.000|XOffset=0mil|YOffset=0mil|HoleType=Round|Shape=Rectangle|*
%AMROTATEDRECTD20*
4,1,4,-0.04078,-0.00933,0.00933,0.04078,0.04078,0.00933,-0.00933,-0.04078,-0.04078,-0.00933,0.0*
%
%ADD20ROTATEDRECTD20*%

%ADD30C,0.00600*%
%ADD31C,0.00800*%
%ADD32C,0.02756*%
G36*
X431000Y365500D02*
Y194287D01*
X430500Y194135D01*
X430354Y194354D01*
X429733Y194769D01*
X429000Y194915D01*
X428267Y194769D01*
X427646Y194354D01*
X427231Y193733D01*
X427085Y193000D01*
X427231Y192267D01*
X427646Y191646D01*
X427655Y191640D01*
X427661Y191625D01*
X427779Y191507D01*
X427874Y191402D01*
X427955Y191302D01*
X428021Y191209D01*
X428074Y191124D01*
X428114Y191047D01*
X428141Y190979D01*
X428159Y190920D01*
X428168Y190869D01*
X428173Y190792D01*
X428197Y190742D01*
Y189525D01*
X427697Y189373D01*
X427613Y189500D01*
X427613Y189500D01*
X426213Y190900D01*
X426194Y190953D01*
X426143Y191010D01*
X426114Y191053D01*
X426084Y191107D01*
X426055Y191176D01*
X426028Y191259D01*
X426004Y191357D01*
X425986Y191464D01*
X425962Y191749D01*
X425960Y191910D01*
X425955Y191922D01*
X425810Y192650D01*
X425395Y193272D01*
X424774Y193687D01*
X424041Y193832D01*
X423309Y193687D01*
X422687Y193272D01*
X422272Y192650D01*
X422126Y191918D01*
X422272Y191185D01*
X422687Y190564D01*
X423309Y190149D01*
X424037Y190004D01*
X424049Y189998D01*
X424217Y189997D01*
X424360Y189988D01*
X424488Y189974D01*
X424602Y189955D01*
X424700Y189931D01*
X424783Y189904D01*
X424852Y189875D01*
X424906Y189845D01*
X424949Y189815D01*
X425006Y189764D01*
X425059Y189746D01*
X426220Y188585D01*
Y184801D01*
X425720Y184649D01*
X425636Y184775D01*
X425636Y184775D01*
X423651Y186760D01*
X423644Y186791D01*
X423616Y186809D01*
X423605Y186841D01*
X423552Y186901D01*
X423526Y186939D01*
X423503Y186985D01*
X423483Y187039D01*
X423466Y187106D01*
X423455Y187185D01*
X423450Y187279D01*
X423453Y187387D01*
X423464Y187509D01*
X423489Y187659D01*
X423466Y187754D01*
X423515Y188000D01*
X423369Y188733D01*
X422954Y189354D01*
X422333Y189769D01*
X421600Y189915D01*
X420867Y189769D01*
X420246Y189354D01*
X419831Y188733D01*
X419685Y188000D01*
X419831Y187267D01*
X420246Y186646D01*
X420867Y186231D01*
X421182Y186168D01*
X421274Y186109D01*
X421457Y186075D01*
X421612Y186042D01*
X421896Y185964D01*
X422003Y185926D01*
X422099Y185887D01*
X422178Y185848D01*
X422240Y185811D01*
X422284Y185779D01*
X422337Y185732D01*
X422391Y185713D01*
X424243Y183861D01*
Y181907D01*
X423743Y181755D01*
X423659Y181881D01*
X423659Y181881D01*
X416816Y188725D01*
Y204099D01*
X416816Y204099D01*
X416754Y204411D01*
X416577Y204676D01*
X413832Y207421D01*
X414151Y207809D01*
X414267Y207731D01*
X415000Y207585D01*
X415733Y207731D01*
X416354Y208146D01*
X416769Y208767D01*
X416915Y209500D01*
X416769Y210233D01*
X416356Y210850D01*
X416352Y210862D01*
X416234Y210983D01*
X416139Y211089D01*
X416058Y211190D01*
X415992Y211284D01*
X415939Y211371D01*
X415899Y211449D01*
X415872Y211518D01*
X415854Y211577D01*
X415845Y211628D01*
X415840Y211705D01*
X415816Y211755D01*
Y232366D01*
X417521Y234071D01*
X418173Y234109D01*
X419215Y233067D01*
X424933Y238785D01*
X421081Y242637D01*
X415363Y236919D01*
X416405Y235877D01*
X416367Y235225D01*
X414423Y233281D01*
X414246Y233016D01*
X414184Y232704D01*
X414184Y232704D01*
Y211755D01*
X414160Y211705D01*
X414155Y211628D01*
X414146Y211577D01*
X414128Y211518D01*
X414101Y211449D01*
X414061Y211371D01*
X414008Y211284D01*
X413946Y211196D01*
X413761Y210978D01*
X413649Y210862D01*
X413644Y210850D01*
X413231Y210233D01*
X413085Y209500D01*
X413231Y208767D01*
X413309Y208651D01*
X412921Y208332D01*
X403670Y217582D01*
X403647Y217642D01*
X403582Y217709D01*
X403480Y217826D01*
X403453Y217862D01*
X403433Y217892D01*
X403425Y217906D01*
X403421Y217921D01*
X403416Y217928D01*
X403412Y217936D01*
X403405Y217944D01*
X403403Y217948D01*
X403361Y218161D01*
X403189Y218418D01*
X400546Y221061D01*
X400517Y221117D01*
Y221616D01*
X400546Y221672D01*
X403189Y224315D01*
X403361Y224571D01*
X403403Y224785D01*
X403405Y224789D01*
X403412Y224796D01*
X403416Y224805D01*
X403421Y224811D01*
X403425Y224827D01*
X403433Y224841D01*
X403453Y224870D01*
X403480Y224907D01*
X403582Y225024D01*
X403647Y225091D01*
X403670Y225150D01*
X405338Y226818D01*
X406457D01*
X406508Y226794D01*
X406584Y226789D01*
X406635Y226780D01*
X406695Y226762D01*
X406764Y226734D01*
X406842Y226695D01*
X406928Y226642D01*
X407016Y226580D01*
X407235Y226395D01*
X407350Y226282D01*
X407362Y226277D01*
X407980Y225865D01*
X408712Y225719D01*
X409445Y225865D01*
X410066Y226280D01*
X410481Y226901D01*
X410627Y227634D01*
X410481Y228366D01*
X410066Y228988D01*
X409445Y229403D01*
X408712Y229549D01*
X407980Y229403D01*
X407362Y228990D01*
X407350Y228985D01*
X407230Y228868D01*
X407123Y228773D01*
X407022Y228692D01*
X406928Y228625D01*
X406842Y228573D01*
X406764Y228533D01*
X406695Y228505D01*
X406635Y228488D01*
X406584Y228479D01*
X406508Y228474D01*
X406457Y228449D01*
X405000D01*
X405000Y228449D01*
X404688Y228387D01*
X404423Y228210D01*
X402517Y226304D01*
X402507Y226300D01*
X402219Y226370D01*
X402141Y226400D01*
X401978Y226520D01*
X401969Y226569D01*
X401797Y226825D01*
X401407Y227215D01*
X401151Y227386D01*
X401102Y227396D01*
X400982Y227558D01*
X400953Y227637D01*
X400882Y227924D01*
X400886Y227934D01*
X407053Y234101D01*
X407054Y234101D01*
X407131Y234062D01*
X407217Y234010D01*
X407304Y233948D01*
X407519Y233765D01*
X407633Y233653D01*
X407644Y233649D01*
X407646Y233646D01*
X408267Y233231D01*
X409000Y233085D01*
X409733Y233231D01*
X410354Y233646D01*
X410769Y234267D01*
X410915Y235000D01*
X410769Y235733D01*
X410354Y236354D01*
X409733Y236769D01*
X409000Y236915D01*
X408267Y236769D01*
X407646Y236354D01*
X407644Y236351D01*
X407633Y236347D01*
X407514Y236230D01*
X407409Y236136D01*
X407310Y236056D01*
X407217Y235991D01*
X407131Y235939D01*
X407054Y235899D01*
X406985Y235872D01*
X406925Y235854D01*
X406874Y235845D01*
X406796Y235840D01*
X406708Y235798D01*
X406486Y235754D01*
X406222Y235577D01*
X406222Y235577D01*
X405750Y235105D01*
X405289Y235351D01*
X405316Y235485D01*
X405316Y235486D01*
Y237514D01*
X405576Y237775D01*
X405629Y237793D01*
X405685Y237842D01*
X405729Y237873D01*
X405787Y237906D01*
X405860Y237939D01*
X405949Y237971D01*
X406055Y238002D01*
X406169Y238028D01*
X406468Y238071D01*
X406636Y238086D01*
X406720Y238129D01*
X407233Y238231D01*
X407854Y238646D01*
X408269Y239267D01*
X408371Y239780D01*
X408414Y239864D01*
X408428Y240032D01*
X408472Y240331D01*
X408498Y240445D01*
X408529Y240551D01*
X408561Y240640D01*
X408594Y240713D01*
X408627Y240771D01*
X408658Y240815D01*
X408707Y240871D01*
X408726Y240924D01*
X409696Y241895D01*
X410349Y241933D01*
X410919Y241363D01*
X416638Y247081D01*
X412785Y250934D01*
X407066Y245215D01*
X408581Y243701D01*
X408543Y243049D01*
X407609Y242115D01*
X407559Y242099D01*
X407557Y242094D01*
X407553Y242093D01*
X407494Y242041D01*
X407453Y242013D01*
X407403Y241986D01*
X407340Y241961D01*
X407263Y241939D01*
X407172Y241921D01*
X407067Y241908D01*
X406947Y241902D01*
X406812Y241903D01*
X406652Y241913D01*
X406638Y241908D01*
X406624Y241914D01*
X406584Y241898D01*
X406500Y241915D01*
X405767Y241769D01*
X405146Y241354D01*
X404731Y240733D01*
X404585Y240000D01*
X404602Y239916D01*
X404586Y239876D01*
X404592Y239862D01*
X404587Y239848D01*
X404597Y239687D01*
X404598Y239553D01*
X404592Y239433D01*
X404579Y239328D01*
X404561Y239237D01*
X404539Y239160D01*
X404514Y239098D01*
X404487Y239047D01*
X404459Y239006D01*
X404407Y238947D01*
X404405Y238943D01*
X404401Y238941D01*
X404385Y238891D01*
X404015Y238520D01*
X403658Y238612D01*
X403515Y238711D01*
Y259464D01*
X403515Y259464D01*
X403452Y259776D01*
X403276Y260041D01*
X400240Y263077D01*
X399975Y263254D01*
X399663Y263316D01*
X399663Y263316D01*
X385015D01*
X382993Y265338D01*
Y268246D01*
X384824Y270076D01*
X385247Y270276D01*
Y270276D01*
X385247Y270276D01*
X392940D01*
Y280724D01*
X389872D01*
X389871Y280730D01*
X389868Y280827D01*
X389843Y280884D01*
Y295251D01*
X389868Y295307D01*
X389871Y295407D01*
X389871Y295409D01*
X393071D01*
Y300858D01*
X384984D01*
Y295409D01*
X388184D01*
X388184Y295407D01*
X388187Y295307D01*
X388212Y295251D01*
Y280884D01*
X388187Y280827D01*
X388184Y280730D01*
X388183Y280724D01*
X385247D01*
Y273077D01*
X385231Y273043D01*
X385228Y272988D01*
X385223Y272959D01*
X385215Y272926D01*
X385201Y272887D01*
X385180Y272843D01*
X385152Y272794D01*
X385116Y272739D01*
X385071Y272679D01*
X385016Y272616D01*
X384943Y272539D01*
X384921Y272480D01*
X381693Y269253D01*
X381377Y269199D01*
X381061Y269253D01*
X377834Y272480D01*
X377811Y272539D01*
X377738Y272616D01*
X377684Y272679D01*
X377638Y272739D01*
X377602Y272793D01*
X377574Y272843D01*
X377554Y272887D01*
X377540Y272926D01*
X377531Y272959D01*
X377526Y272988D01*
X377524Y273043D01*
X377507Y273077D01*
Y280724D01*
X374372D01*
X374371Y280730D01*
X374369Y280827D01*
X374343Y280884D01*
Y295251D01*
X374369Y295307D01*
X374371Y295407D01*
X374371Y295409D01*
X377571D01*
Y300858D01*
X369484D01*
Y295409D01*
X372684D01*
X372684Y295407D01*
X372687Y295307D01*
X372712Y295251D01*
Y280884D01*
X372687Y280827D01*
X372684Y280730D01*
X372684Y280724D01*
X369814D01*
Y270276D01*
X377507D01*
X377507Y270276D01*
Y270276D01*
X377928Y270079D01*
X379762Y268246D01*
Y264337D01*
X379762Y264337D01*
X379824Y264025D01*
X380000Y263760D01*
X383366Y260395D01*
X383346Y260350D01*
X383071Y259983D01*
X382451Y260106D01*
X382439Y260111D01*
X382271Y260113D01*
X382128Y260121D01*
X382000Y260136D01*
X381887Y260155D01*
X381788Y260179D01*
X381705Y260206D01*
X381637Y260235D01*
X381582Y260265D01*
X381540Y260295D01*
X381482Y260345D01*
X381429Y260364D01*
X373716Y268077D01*
X373451Y268254D01*
X373139Y268316D01*
X373139Y268316D01*
X370338D01*
X365316Y273338D01*
Y302390D01*
X369891Y306965D01*
X369951Y306989D01*
X370025Y307062D01*
X370091Y307122D01*
X370093Y307121D01*
X370124Y307142D01*
X377571D01*
Y309022D01*
X377573Y309022D01*
X377673Y309025D01*
X377730Y309050D01*
X384825D01*
X384882Y309025D01*
X384979Y309023D01*
X384984Y309022D01*
Y307142D01*
X393071D01*
Y312591D01*
X384984D01*
Y310710D01*
X384979Y310710D01*
X384882Y310707D01*
X384825Y310682D01*
X377730D01*
X377673Y310707D01*
X377573Y310710D01*
X377571Y310710D01*
Y312591D01*
X369484D01*
Y309159D01*
X369456Y309099D01*
X369453Y309041D01*
X369448Y309009D01*
X369439Y308973D01*
X369425Y308934D01*
X369406Y308890D01*
X369379Y308841D01*
X369344Y308788D01*
X369302Y308731D01*
X369250Y308670D01*
X369180Y308596D01*
X369157Y308538D01*
X363923Y303304D01*
X363746Y303040D01*
X363684Y302728D01*
X363684Y302728D01*
Y273000D01*
X363684Y273000D01*
X363746Y272688D01*
X363923Y272423D01*
X369423Y266923D01*
X369423Y266923D01*
X369688Y266746D01*
X370000Y266684D01*
X372801D01*
X380276Y259210D01*
X380294Y259157D01*
X380345Y259100D01*
X380374Y259057D01*
X380404Y259003D01*
X380433Y258934D01*
X380460Y258851D01*
X380484Y258753D01*
X380502Y258646D01*
X380526Y258361D01*
X380528Y258200D01*
X380533Y258188D01*
X380678Y257460D01*
X381090Y256842D01*
X381095Y256830D01*
X381213Y256710D01*
X381308Y256603D01*
X381389Y256502D01*
X381455Y256408D01*
X381508Y256322D01*
X381547Y256244D01*
X381575Y256175D01*
X381593Y256115D01*
X381602Y256064D01*
X381607Y255988D01*
X381631Y255937D01*
Y240419D01*
X381306Y239974D01*
X381003Y239914D01*
X380746Y239742D01*
X380357Y239353D01*
X380316Y239291D01*
X379816Y239443D01*
Y253023D01*
X379754Y253335D01*
X379577Y253599D01*
X379577Y253599D01*
X370099Y263077D01*
X369835Y263254D01*
X369523Y263316D01*
X369523Y263316D01*
X361000D01*
X361000Y263316D01*
X360688Y263254D01*
X360423Y263077D01*
X360423Y263077D01*
X355423Y258077D01*
X355246Y257812D01*
X355184Y257500D01*
X355184Y257500D01*
Y240500D01*
X355184Y240500D01*
X355246Y240188D01*
X355423Y239923D01*
X356789Y238558D01*
Y221612D01*
X356789Y221612D01*
X356851Y221300D01*
X357028Y221035D01*
X359329Y218734D01*
X359347Y218681D01*
X359398Y218623D01*
X359427Y218581D01*
X359457Y218527D01*
X359486Y218458D01*
X359513Y218375D01*
X359537Y218277D01*
X359555Y218170D01*
X359579Y217885D01*
X359581Y217724D01*
X359586Y217712D01*
X359731Y216983D01*
X360146Y216362D01*
X360767Y215947D01*
X361500Y215801D01*
X362233Y215947D01*
X362854Y216362D01*
X363269Y216983D01*
X363415Y217716D01*
X363269Y218449D01*
X363158Y218615D01*
X363149Y218698D01*
X363298Y219057D01*
X363340Y219108D01*
X363382Y219143D01*
X363402Y219156D01*
X363458Y219184D01*
X366497D01*
X366704Y218684D01*
X366437Y218418D01*
X366266Y218161D01*
X366206Y217859D01*
X366266Y217556D01*
X366437Y217299D01*
X366827Y216910D01*
X367083Y216738D01*
X367132Y216729D01*
X367252Y216566D01*
X367282Y216488D01*
X367352Y216200D01*
X367348Y216190D01*
X361028Y209870D01*
X360851Y209605D01*
X360789Y209293D01*
X360789Y209293D01*
Y151549D01*
X360764Y151496D01*
X360759Y151402D01*
X360750Y151333D01*
X360733Y151263D01*
X360708Y151190D01*
X360676Y151115D01*
X360633Y151036D01*
X360581Y150953D01*
X360517Y150868D01*
X360442Y150779D01*
X360346Y150677D01*
X360325Y150623D01*
X356956Y147253D01*
X355084Y145382D01*
X355000Y145256D01*
X354500Y145408D01*
Y365500D01*
X357000Y368000D01*
X380000D01*
X389000Y359000D01*
X396500D01*
X405500Y368000D01*
X428500D01*
X431000Y365500D01*
D02*
G37*
G36*
X385496Y309266D02*
X385490Y309323D01*
X385472Y309374D01*
X385442Y309419D01*
X385400Y309458D01*
X385346Y309491D01*
X385280Y309518D01*
X385202Y309539D01*
X385112Y309554D01*
X385010Y309563D01*
X384896Y309566D01*
Y310166D01*
X385010Y310169D01*
X385112Y310178D01*
X385202Y310193D01*
X385280Y310214D01*
X385346Y310241D01*
X385400Y310274D01*
X385442Y310313D01*
X385472Y310358D01*
X385490Y310409D01*
X385496Y310466D01*
Y309266D01*
D02*
G37*
G36*
X377053Y310409D02*
X377071Y310358D01*
X377102Y310313D01*
X377145Y310274D01*
X377200Y310241D01*
X377267Y310214D01*
X377347Y310193D01*
X377438Y310178D01*
X377542Y310169D01*
X377659Y310166D01*
Y309566D01*
X377542Y309563D01*
X377438Y309554D01*
X377347Y309539D01*
X377267Y309518D01*
X377200Y309491D01*
X377145Y309458D01*
X377102Y309419D01*
X377071Y309374D01*
X377053Y309323D01*
X377047Y309266D01*
Y310466D01*
X377053Y310409D01*
D02*
G37*
G36*
X369996Y307654D02*
X369992Y307677D01*
X369979Y307689D01*
X369958Y307690D01*
X369928Y307679D01*
X369890Y307657D01*
X369843Y307623D01*
X369788Y307578D01*
X369653Y307454D01*
X369572Y307375D01*
Y308224D01*
X369653Y308309D01*
X369725Y308393D01*
X369788Y308478D01*
X369843Y308563D01*
X369890Y308648D01*
X369928Y308733D01*
X369958Y308818D01*
X369979Y308903D01*
X369992Y308987D01*
X369996Y309072D01*
Y307654D01*
D02*
G37*
G36*
X389570Y295927D02*
X389520Y295909D01*
X389475Y295878D01*
X389436Y295835D01*
X389403Y295780D01*
X389375Y295713D01*
X389354Y295634D01*
X389339Y295542D01*
X389331Y295438D01*
X389328Y295321D01*
X388727D01*
X388724Y295438D01*
X388716Y295542D01*
X388701Y295634D01*
X388680Y295713D01*
X388652Y295780D01*
X388619Y295835D01*
X388580Y295878D01*
X388535Y295909D01*
X388485Y295927D01*
X388427Y295933D01*
X389628D01*
X389570Y295927D01*
D02*
G37*
G36*
X374071D02*
X374020Y295909D01*
X373974Y295878D01*
X373936Y295835D01*
X373903Y295780D01*
X373875Y295713D01*
X373854Y295634D01*
X373839Y295542D01*
X373831Y295438D01*
X373828Y295321D01*
X373228D01*
X373224Y295438D01*
X373216Y295542D01*
X373200Y295634D01*
X373180Y295713D01*
X373152Y295780D01*
X373119Y295835D01*
X373080Y295878D01*
X373036Y295909D01*
X372985Y295927D01*
X372927Y295933D01*
X374128D01*
X374071Y295927D01*
D02*
G37*
G36*
X389331Y280698D02*
X389339Y280596D01*
X389354Y280506D01*
X389375Y280428D01*
X389403Y280362D01*
X389436Y280308D01*
X389475Y280266D01*
X389520Y280236D01*
X389570Y280218D01*
X389628Y280212D01*
X388427D01*
X388485Y280218D01*
X388535Y280236D01*
X388580Y280266D01*
X388619Y280308D01*
X388652Y280362D01*
X388680Y280428D01*
X388701Y280506D01*
X388716Y280596D01*
X388724Y280698D01*
X388727Y280812D01*
X389328D01*
X389331Y280698D01*
D02*
G37*
G36*
X373831D02*
X373839Y280596D01*
X373854Y280506D01*
X373875Y280428D01*
X373903Y280362D01*
X373936Y280308D01*
X373974Y280266D01*
X374020Y280236D01*
X374071Y280218D01*
X374128Y280212D01*
X372927D01*
X372985Y280218D01*
X373036Y280236D01*
X373080Y280266D01*
X373119Y280308D01*
X373152Y280362D01*
X373180Y280428D01*
X373200Y280506D01*
X373216Y280596D01*
X373224Y280698D01*
X373228Y280812D01*
X373828D01*
X373831Y280698D01*
D02*
G37*
G36*
X385771Y271317D02*
X385767Y271396D01*
X385754Y271457D01*
X385732Y271500D01*
X385701Y271526D01*
X385662Y271535D01*
X385614Y271526D01*
X385558Y271500D01*
X385492Y271457D01*
X385418Y271396D01*
X385335Y271317D01*
Y272165D01*
X385418Y272253D01*
X385492Y272339D01*
X385558Y272425D01*
X385614Y272511D01*
X385662Y272596D01*
X385701Y272680D01*
X385732Y272765D01*
X385754Y272848D01*
X385767Y272931D01*
X385771Y273014D01*
Y271317D01*
D02*
G37*
G36*
X376988Y272931D02*
X377001Y272848D01*
X377022Y272765D01*
X377053Y272680D01*
X377092Y272596D01*
X377140Y272511D01*
X377197Y272425D01*
X377262Y272339D01*
X377337Y272253D01*
X377419Y272165D01*
Y271317D01*
X377337Y271396D01*
X377262Y271457D01*
X377197Y271500D01*
X377140Y271526D01*
X377092Y271535D01*
X377053Y271526D01*
X377022Y271500D01*
X377001Y271457D01*
X376988Y271396D01*
X376983Y271317D01*
Y273014D01*
X376988Y272931D01*
D02*
G37*
G36*
X381205Y259868D02*
X381297Y259804D01*
X381400Y259748D01*
X381515Y259699D01*
X381640Y259658D01*
X381777Y259625D01*
X381924Y259600D01*
X382083Y259582D01*
X382253Y259572D01*
X382433Y259570D01*
X381069Y258206D01*
X381067Y258387D01*
X381040Y258715D01*
X381014Y258862D01*
X380981Y258999D01*
X380940Y259124D01*
X380892Y259239D01*
X380835Y259342D01*
X380771Y259435D01*
X380699Y259516D01*
X381123Y259940D01*
X381205Y259868D01*
D02*
G37*
G36*
X363412Y258540D02*
X363663Y258327D01*
X363785Y258241D01*
X363905Y258168D01*
X364023Y258108D01*
X364138Y258061D01*
X364251Y258028D01*
X364362Y258008D01*
X364470Y258001D01*
Y257401D01*
X364362Y257395D01*
X364251Y257375D01*
X364138Y257342D01*
X364023Y257295D01*
X363905Y257235D01*
X363785Y257162D01*
X363663Y257076D01*
X363539Y256976D01*
X363412Y256863D01*
X363283Y256737D01*
Y258666D01*
X363412Y258540D01*
D02*
G37*
G36*
X383285Y257079D02*
X383072Y256828D01*
X382986Y256706D01*
X382913Y256586D01*
X382853Y256468D01*
X382807Y256353D01*
X382773Y256240D01*
X382753Y256129D01*
X382747Y256021D01*
X382147D01*
X382140Y256129D01*
X382120Y256240D01*
X382087Y256353D01*
X382041Y256468D01*
X381981Y256586D01*
X381908Y256706D01*
X381821Y256828D01*
X381721Y256952D01*
X381609Y257079D01*
X381482Y257208D01*
X383411D01*
X383285Y257079D01*
D02*
G37*
G36*
X364662Y253290D02*
X364913Y253077D01*
X365035Y252991D01*
X365155Y252918D01*
X365273Y252858D01*
X365388Y252811D01*
X365501Y252778D01*
X365612Y252758D01*
X365720Y252751D01*
Y252151D01*
X365612Y252145D01*
X365501Y252125D01*
X365388Y252092D01*
X365273Y252045D01*
X365155Y251985D01*
X365035Y251912D01*
X364913Y251826D01*
X364789Y251726D01*
X364662Y251613D01*
X364533Y251487D01*
Y253416D01*
X364662Y253290D01*
D02*
G37*
G36*
X378184Y252685D02*
Y250878D01*
X377684Y250671D01*
X370077Y258278D01*
X369812Y258455D01*
X369500Y258517D01*
X369500Y258517D01*
X364554D01*
X364503Y258542D01*
X364427Y258546D01*
X364376Y258555D01*
X364316Y258573D01*
X364247Y258601D01*
X364169Y258640D01*
X364083Y258693D01*
X363995Y258755D01*
X363776Y258940D01*
X363661Y259053D01*
X363649Y259058D01*
X363031Y259470D01*
X362299Y259616D01*
X361566Y259470D01*
X360945Y259055D01*
X360530Y258434D01*
X360384Y257701D01*
X360530Y256969D01*
X360945Y256347D01*
X361566Y255932D01*
X362299Y255787D01*
X363031Y255932D01*
X363649Y256345D01*
X363661Y256350D01*
X363781Y256467D01*
X363888Y256562D01*
X363989Y256643D01*
X364083Y256710D01*
X364169Y256762D01*
X364247Y256802D01*
X364316Y256830D01*
X364376Y256847D01*
X364427Y256856D01*
X364503Y256861D01*
X364554Y256886D01*
X369162D01*
X376684Y249363D01*
Y247128D01*
X376184Y246921D01*
X370077Y253028D01*
X369812Y253205D01*
X369500Y253267D01*
X369500Y253267D01*
X365804D01*
X365753Y253292D01*
X365677Y253296D01*
X365626Y253305D01*
X365566Y253323D01*
X365497Y253351D01*
X365419Y253390D01*
X365333Y253443D01*
X365245Y253505D01*
X365026Y253690D01*
X364911Y253803D01*
X364899Y253808D01*
X364281Y254220D01*
X363549Y254366D01*
X362816Y254220D01*
X362195Y253805D01*
X361780Y253184D01*
X361634Y252451D01*
X361780Y251719D01*
X362195Y251097D01*
X362816Y250682D01*
X363549Y250537D01*
X364281Y250682D01*
X364899Y251095D01*
X364911Y251100D01*
X365031Y251217D01*
X365138Y251312D01*
X365239Y251393D01*
X365333Y251460D01*
X365419Y251512D01*
X365497Y251552D01*
X365566Y251580D01*
X365626Y251597D01*
X365677Y251606D01*
X365753Y251611D01*
X365804Y251636D01*
X369162D01*
X375184Y245614D01*
Y244649D01*
X374684Y244442D01*
X371049Y248077D01*
X370785Y248254D01*
X370473Y248316D01*
X370473Y248316D01*
X366755D01*
X366705Y248340D01*
X366628Y248345D01*
X366577Y248354D01*
X366518Y248372D01*
X366449Y248399D01*
X366371Y248439D01*
X366284Y248492D01*
X366196Y248554D01*
X365978Y248739D01*
X365862Y248851D01*
X365850Y248856D01*
X365233Y249269D01*
X364500Y249415D01*
X363767Y249269D01*
X363146Y248854D01*
X362731Y248233D01*
X362585Y247500D01*
X362731Y246767D01*
X363146Y246146D01*
X363767Y245731D01*
X364500Y245585D01*
X364985Y245682D01*
X365180Y245211D01*
X364646Y244854D01*
X364231Y244233D01*
X364085Y243500D01*
X364231Y242767D01*
X364646Y242146D01*
X365267Y241731D01*
X365996Y241586D01*
X366008Y241581D01*
X366176Y241579D01*
X366318Y241571D01*
X366447Y241557D01*
X366560Y241537D01*
X366659Y241513D01*
X366742Y241486D01*
X366810Y241457D01*
X366865Y241427D01*
X366907Y241398D01*
X366965Y241347D01*
X367018Y241329D01*
X371184Y237162D01*
Y234180D01*
X371184Y234179D01*
X371211Y234045D01*
X370750Y233799D01*
X369816Y234734D01*
Y235500D01*
X369816Y235500D01*
X369754Y235812D01*
X369577Y236077D01*
X369577Y236077D01*
X361355Y244298D01*
X361269Y244733D01*
X360854Y245354D01*
X360233Y245769D01*
X359500Y245915D01*
X358767Y245769D01*
X358146Y245354D01*
X357731Y244733D01*
X357585Y244000D01*
X357731Y243267D01*
X358146Y242646D01*
X358767Y242231D01*
X359500Y242085D01*
X360233Y242231D01*
X360762Y242585D01*
X362466Y240880D01*
X362147Y240492D01*
X361733Y240769D01*
X361000Y240915D01*
X360267Y240769D01*
X359646Y240354D01*
X359231Y239733D01*
X359085Y239000D01*
X359231Y238267D01*
X359646Y237646D01*
X360267Y237231D01*
X361000Y237085D01*
X361512Y237187D01*
X361603Y237178D01*
X361736Y237219D01*
X361839Y237242D01*
X361928Y237254D01*
X362003Y237257D01*
X362065Y237253D01*
X362115Y237243D01*
X362157Y237229D01*
X362194Y237211D01*
X362229Y237187D01*
X362290Y237133D01*
X362343Y237115D01*
X364166Y235292D01*
X364051Y234965D01*
X363935Y234816D01*
X363255D01*
X363205Y234840D01*
X363128Y234845D01*
X363077Y234854D01*
X363018Y234872D01*
X362949Y234899D01*
X362871Y234939D01*
X362784Y234992D01*
X362696Y235054D01*
X362478Y235239D01*
X362362Y235351D01*
X362350Y235356D01*
X361733Y235769D01*
X361000Y235915D01*
X360267Y235769D01*
X359646Y235354D01*
X359231Y234733D01*
X359085Y234000D01*
X359231Y233267D01*
X359646Y232646D01*
X360267Y232231D01*
X361000Y232085D01*
X361733Y232231D01*
X362350Y232644D01*
X362362Y232648D01*
X362483Y232766D01*
X362589Y232861D01*
X362690Y232942D01*
X362784Y233008D01*
X362871Y233061D01*
X362949Y233101D01*
X363018Y233128D01*
X363077Y233146D01*
X363128Y233155D01*
X363205Y233160D01*
X363255Y233184D01*
X363657D01*
X366411Y230365D01*
X366395Y230256D01*
X366044Y229816D01*
X366044Y229816D01*
X362755D01*
X362705Y229840D01*
X362628Y229845D01*
X362577Y229854D01*
X362518Y229872D01*
X362449Y229899D01*
X362371Y229939D01*
X362284Y229992D01*
X362196Y230054D01*
X361978Y230239D01*
X361862Y230351D01*
X361850Y230356D01*
X361233Y230769D01*
X360500Y230915D01*
X359767Y230769D01*
X359146Y230354D01*
X358920Y230016D01*
X358420Y230168D01*
Y238895D01*
X358420Y238896D01*
X358358Y239208D01*
X358181Y239472D01*
X358181Y239472D01*
X356816Y240838D01*
Y257162D01*
X361338Y261684D01*
X369185D01*
X378184Y252685D01*
D02*
G37*
G36*
X384015Y260084D02*
X384015Y260084D01*
X398662D01*
X400283Y258463D01*
Y249835D01*
X399783Y249683D01*
X399669Y249854D01*
X399048Y250269D01*
X398315Y250415D01*
X397582Y250269D01*
X396961Y249854D01*
X396546Y249233D01*
X396400Y248500D01*
X396546Y247767D01*
X396961Y247146D01*
X397582Y246731D01*
X398315Y246585D01*
X398545Y246396D01*
Y245776D01*
X398045Y245509D01*
X397656Y245769D01*
X396923Y245915D01*
X396190Y245769D01*
X395569Y245354D01*
X395293Y244941D01*
X395187Y244897D01*
X394720Y244903D01*
X394716Y244905D01*
X394716Y244905D01*
X394139Y245482D01*
X394120Y245535D01*
X394069Y245593D01*
X394040Y245635D01*
X394010Y245690D01*
X393981Y245758D01*
X393954Y245841D01*
X393930Y245940D01*
X393912Y246046D01*
X393888Y246331D01*
X393886Y246492D01*
X393881Y246504D01*
X393736Y247233D01*
X393321Y247854D01*
X392700Y248269D01*
X391967Y248415D01*
X391234Y248269D01*
X390613Y247854D01*
X390588Y247816D01*
X390419Y247757D01*
X389998Y247832D01*
X389933Y248032D01*
X389939Y248075D01*
X389967Y248129D01*
X390019Y248216D01*
X390082Y248304D01*
X390266Y248522D01*
X390379Y248638D01*
X390384Y248650D01*
X390796Y249267D01*
X390942Y250000D01*
X390796Y250733D01*
X390381Y251354D01*
X389760Y251769D01*
X389028Y251915D01*
X388295Y251769D01*
X387673Y251354D01*
X387259Y250733D01*
X387113Y250000D01*
X387259Y249267D01*
X387671Y248650D01*
X387676Y248638D01*
X387793Y248517D01*
X387889Y248411D01*
X387969Y248310D01*
X388036Y248216D01*
X388088Y248129D01*
X388128Y248051D01*
X388156Y247982D01*
X388173Y247923D01*
X388183Y247872D01*
X388187Y247795D01*
X388212Y247745D01*
Y245670D01*
X388169Y245633D01*
X387712Y245449D01*
X387233Y245769D01*
X386500Y245915D01*
X385767Y245769D01*
X385146Y245354D01*
X384731Y244733D01*
X384585Y244000D01*
X384731Y243267D01*
X385144Y242650D01*
X385149Y242638D01*
X385266Y242517D01*
X385361Y242411D01*
X385442Y242310D01*
X385508Y242216D01*
X385561Y242129D01*
X385601Y242051D01*
X385628Y241982D01*
X385646Y241923D01*
X385655Y241872D01*
X385660Y241795D01*
X385684Y241745D01*
Y238113D01*
X385659Y238055D01*
X385656Y237950D01*
X385650Y237866D01*
X385640Y237792D01*
X385627Y237727D01*
X385612Y237673D01*
X385595Y237627D01*
X385578Y237590D01*
X385560Y237560D01*
X385543Y237537D01*
X385506Y237496D01*
X385501Y237482D01*
X385119Y237099D01*
X385063Y237070D01*
X384564Y237070D01*
X384508Y237099D01*
X383446Y238161D01*
X383441Y238175D01*
X383404Y238216D01*
X383387Y238240D01*
X383369Y238269D01*
X383352Y238307D01*
X383335Y238352D01*
X383320Y238407D01*
X383307Y238471D01*
X383297Y238545D01*
X383291Y238629D01*
X383288Y238735D01*
X383262Y238792D01*
Y255937D01*
X383287Y255988D01*
X383292Y256064D01*
X383301Y256115D01*
X383318Y256175D01*
X383346Y256244D01*
X383386Y256322D01*
X383439Y256408D01*
X383501Y256496D01*
X383686Y256715D01*
X383798Y256830D01*
X383803Y256842D01*
X384216Y257460D01*
X384362Y258192D01*
X384216Y258925D01*
X383801Y259546D01*
X383650Y259647D01*
X383845Y260118D01*
X384015Y260084D01*
D02*
G37*
G36*
X389866Y248887D02*
X389653Y248636D01*
X389567Y248513D01*
X389494Y248393D01*
X389434Y248276D01*
X389387Y248160D01*
X389354Y248047D01*
X389334Y247937D01*
X389328Y247828D01*
X388727D01*
X388721Y247937D01*
X388701Y248047D01*
X388668Y248160D01*
X388621Y248276D01*
X388561Y248393D01*
X388488Y248513D01*
X388402Y248636D01*
X388302Y248760D01*
X388189Y248887D01*
X388063Y249016D01*
X389992D01*
X389866Y248887D01*
D02*
G37*
G36*
X365613Y248338D02*
X365864Y248126D01*
X365987Y248039D01*
X366107Y247966D01*
X366224Y247906D01*
X366340Y247860D01*
X366453Y247827D01*
X366563Y247807D01*
X366672Y247800D01*
Y247200D01*
X366563Y247193D01*
X366453Y247173D01*
X366340Y247140D01*
X366224Y247094D01*
X366107Y247034D01*
X365987Y246961D01*
X365864Y246874D01*
X365740Y246775D01*
X365613Y246662D01*
X365484Y246535D01*
Y248465D01*
X365613Y248338D01*
D02*
G37*
G36*
X393347Y246306D02*
X393374Y245977D01*
X393400Y245830D01*
X393433Y245693D01*
X393474Y245568D01*
X393522Y245454D01*
X393579Y245350D01*
X393643Y245258D01*
X393715Y245177D01*
X393291Y244752D01*
X393209Y244824D01*
X393117Y244888D01*
X393014Y244945D01*
X392899Y244993D01*
X392774Y245034D01*
X392637Y245067D01*
X392490Y245093D01*
X392331Y245110D01*
X392161Y245120D01*
X391981Y245122D01*
X393345Y246486D01*
X393347Y246306D01*
D02*
G37*
G36*
X410251Y242755D02*
X410207Y242791D01*
X410158Y242814D01*
X410105Y242825D01*
X410048Y242823D01*
X409986Y242808D01*
X409920Y242780D01*
X409850Y242740D01*
X409776Y242687D01*
X409698Y242621D01*
X409615Y242543D01*
X409191Y242967D01*
X409269Y243050D01*
X409335Y243128D01*
X409388Y243202D01*
X409428Y243272D01*
X409456Y243338D01*
X409471Y243400D01*
X409473Y243457D01*
X409462Y243510D01*
X409439Y243559D01*
X409403Y243603D01*
X410251Y242755D01*
D02*
G37*
G36*
X387338Y242887D02*
X387126Y242635D01*
X387039Y242513D01*
X386966Y242393D01*
X386906Y242276D01*
X386860Y242160D01*
X386827Y242047D01*
X386807Y241937D01*
X386800Y241828D01*
X386200D01*
X386193Y241937D01*
X386173Y242047D01*
X386140Y242160D01*
X386094Y242276D01*
X386034Y242393D01*
X385961Y242513D01*
X385874Y242635D01*
X385775Y242760D01*
X385662Y242887D01*
X385535Y243016D01*
X387465D01*
X387338Y242887D01*
D02*
G37*
G36*
X397819Y242933D02*
X397614Y242666D01*
X397531Y242538D01*
X397460Y242414D01*
X397403Y242294D01*
X397358Y242177D01*
X397326Y242063D01*
X397306Y241954D01*
X397300Y241848D01*
X396700Y241813D01*
X396693Y241924D01*
X396673Y242035D01*
X396638Y242148D01*
X396590Y242261D01*
X396529Y242376D01*
X396453Y242492D01*
X396364Y242608D01*
X396262Y242725D01*
X396145Y242844D01*
X396015Y242964D01*
X397941Y243071D01*
X397819Y242933D01*
D02*
G37*
G36*
X367380Y243306D02*
X367407Y242977D01*
X367433Y242830D01*
X367466Y242693D01*
X367507Y242568D01*
X367555Y242454D01*
X367612Y242350D01*
X367676Y242258D01*
X367748Y242177D01*
X367323Y241752D01*
X367242Y241824D01*
X367150Y241888D01*
X367046Y241945D01*
X366932Y241993D01*
X366807Y242034D01*
X366670Y242067D01*
X366523Y242093D01*
X366364Y242110D01*
X366194Y242120D01*
X366014Y242122D01*
X367378Y243486D01*
X367380Y243306D01*
D02*
G37*
G36*
X408302Y241230D02*
X408232Y241151D01*
X408169Y241061D01*
X408111Y240958D01*
X408059Y240844D01*
X408013Y240718D01*
X407974Y240580D01*
X407940Y240430D01*
X407891Y240094D01*
X407875Y239909D01*
X406604Y239896D01*
X406618Y241373D01*
X406793Y241362D01*
X406958Y241361D01*
X407113Y241369D01*
X407258Y241386D01*
X407392Y241413D01*
X407516Y241449D01*
X407630Y241494D01*
X407734Y241549D01*
X407828Y241614D01*
X407911Y241687D01*
X408302Y241230D01*
D02*
G37*
G36*
X382747Y238722D02*
X382750Y238602D01*
X382758Y238488D01*
X382773Y238381D01*
X382793Y238280D01*
X382820Y238186D01*
X382852Y238099D01*
X382890Y238018D01*
X382933Y237943D01*
X382983Y237875D01*
X383038Y237813D01*
X381838Y239013D01*
X381897Y238961D01*
X381949Y238927D01*
X381996Y238912D01*
X382036Y238915D01*
X382070Y238936D01*
X382098Y238976D01*
X382119Y239035D01*
X382135Y239112D01*
X382144Y239208D01*
X382147Y239322D01*
X382747Y238722D01*
D02*
G37*
G36*
X406591Y238625D02*
X406405Y238609D01*
X406070Y238560D01*
X405920Y238526D01*
X405782Y238487D01*
X405656Y238441D01*
X405542Y238389D01*
X405439Y238331D01*
X405349Y238268D01*
X405270Y238198D01*
X404813Y238589D01*
X404886Y238672D01*
X404951Y238766D01*
X405006Y238870D01*
X405051Y238984D01*
X405087Y239108D01*
X405114Y239243D01*
X405131Y239387D01*
X405139Y239542D01*
X405138Y239707D01*
X405127Y239882D01*
X406604Y239896D01*
X406591Y238625D01*
D02*
G37*
G36*
X390731Y237995D02*
X390655Y237917D01*
X390531Y237774D01*
X390482Y237709D01*
X390442Y237648D01*
X390410Y237590D01*
X390387Y237537D01*
X390373Y237488D01*
X390368Y237443D01*
X390371Y237402D01*
X389713Y238060D01*
X389754Y238057D01*
X389799Y238062D01*
X389848Y238076D01*
X389902Y238099D01*
X389959Y238130D01*
X390020Y238171D01*
X390086Y238220D01*
X390229Y238344D01*
X390306Y238419D01*
X390731Y237995D01*
D02*
G37*
G36*
X362378Y239222D02*
X362630Y238580D01*
X362691Y238456D01*
X362811Y238253D01*
X362870Y238173D01*
X362928Y238108D01*
X362648Y237539D01*
X362560Y237617D01*
X362465Y237681D01*
X362362Y237731D01*
X362253Y237768D01*
X362136Y237790D01*
X362012Y237799D01*
X361881Y237794D01*
X361743Y237775D01*
X361598Y237742D01*
X361446Y237696D01*
X362313Y239420D01*
X362378Y239222D01*
D02*
G37*
G36*
X379398Y238344D02*
X379541Y238220D01*
X379606Y238171D01*
X379667Y238130D01*
X379725Y238099D01*
X379778Y238076D01*
X379827Y238062D01*
X379872Y238057D01*
X379913Y238060D01*
X379255Y237402D01*
X379258Y237443D01*
X379253Y237488D01*
X379239Y237537D01*
X379216Y237590D01*
X379185Y237648D01*
X379144Y237709D01*
X379095Y237774D01*
X378971Y237917D01*
X378896Y237995D01*
X379320Y238419D01*
X379398Y238344D01*
D02*
G37*
G36*
X386803Y238528D02*
X386812Y238433D01*
X386828Y238355D01*
X386849Y238297D01*
X386877Y238257D01*
X386911Y238235D01*
X386951Y238232D01*
X386997Y238247D01*
X387050Y238281D01*
X387108Y238334D01*
X385909Y237134D01*
X385964Y237195D01*
X386013Y237263D01*
X386057Y237338D01*
X386095Y237419D01*
X386127Y237507D01*
X386153Y237601D01*
X386174Y237702D01*
X386188Y237809D01*
X386197Y237922D01*
X386200Y238042D01*
X386800Y238642D01*
X386803Y238528D01*
D02*
G37*
G36*
X392140Y236577D02*
X392077Y236511D01*
X391966Y236378D01*
X391918Y236311D01*
X391876Y236244D01*
X391839Y236177D01*
X391807Y236110D01*
X391780Y236042D01*
X391759Y235975D01*
X391743Y235907D01*
X391105Y236668D01*
X391153Y236663D01*
X391204Y236667D01*
X391258Y236679D01*
X391315Y236700D01*
X391375Y236730D01*
X391439Y236769D01*
X391506Y236816D01*
X391575Y236871D01*
X391724Y237009D01*
X392140Y236577D01*
D02*
G37*
G36*
X378006Y236952D02*
X378149Y236828D01*
X378214Y236779D01*
X378275Y236738D01*
X378333Y236707D01*
X378386Y236684D01*
X378435Y236670D01*
X378481Y236665D01*
X378522Y236668D01*
X377863Y236010D01*
X377867Y236051D01*
X377861Y236096D01*
X377847Y236145D01*
X377824Y236198D01*
X377793Y236256D01*
X377752Y236317D01*
X377703Y236383D01*
X377579Y236526D01*
X377504Y236603D01*
X377928Y237027D01*
X378006Y236952D01*
D02*
G37*
G36*
X393514Y235211D02*
X393439Y235134D01*
X393315Y234991D01*
X393266Y234925D01*
X393226Y234864D01*
X393194Y234806D01*
X393171Y234753D01*
X393157Y234704D01*
X393152Y234659D01*
X393155Y234618D01*
X392497Y235276D01*
X392538Y235273D01*
X392583Y235278D01*
X392632Y235292D01*
X392685Y235315D01*
X392743Y235347D01*
X392804Y235387D01*
X392870Y235436D01*
X393013Y235560D01*
X393090Y235635D01*
X393514Y235211D01*
D02*
G37*
G36*
X418075Y234931D02*
X418031Y234967D01*
X417982Y234990D01*
X417929Y235001D01*
X417872Y234999D01*
X417810Y234984D01*
X417744Y234956D01*
X417674Y234916D01*
X417600Y234863D01*
X417522Y234797D01*
X417439Y234719D01*
X417015Y235143D01*
X417093Y235226D01*
X417159Y235304D01*
X417212Y235378D01*
X417252Y235448D01*
X417280Y235514D01*
X417295Y235576D01*
X417297Y235633D01*
X417286Y235686D01*
X417263Y235735D01*
X417227Y235779D01*
X418075Y234931D01*
D02*
G37*
G36*
X376614Y235560D02*
X376757Y235436D01*
X376822Y235387D01*
X376884Y235347D01*
X376941Y235315D01*
X376994Y235292D01*
X377043Y235278D01*
X377088Y235273D01*
X377130Y235276D01*
X376471Y234618D01*
X376475Y234659D01*
X376469Y234704D01*
X376455Y234753D01*
X376432Y234806D01*
X376401Y234864D01*
X376360Y234925D01*
X376311Y234991D01*
X376187Y235134D01*
X376112Y235211D01*
X376536Y235635D01*
X376614Y235560D01*
D02*
G37*
G36*
X408012Y234039D02*
X407885Y234165D01*
X407636Y234376D01*
X407514Y234462D01*
X407395Y234535D01*
X407277Y234594D01*
X407162Y234641D01*
X407049Y234674D01*
X406938Y234693D01*
X406828Y234700D01*
Y235300D01*
X406938Y235307D01*
X407049Y235326D01*
X407162Y235360D01*
X407277Y235406D01*
X407395Y235465D01*
X407514Y235538D01*
X407636Y235624D01*
X407759Y235723D01*
X407885Y235835D01*
X408012Y235961D01*
Y234039D01*
D02*
G37*
G36*
X394906Y233819D02*
X394831Y233742D01*
X394707Y233599D01*
X394658Y233533D01*
X394618Y233472D01*
X394586Y233414D01*
X394563Y233361D01*
X394549Y233312D01*
X394544Y233267D01*
X394547Y233226D01*
X393889Y233884D01*
X393930Y233881D01*
X393975Y233886D01*
X394024Y233900D01*
X394077Y233923D01*
X394135Y233955D01*
X394196Y233995D01*
X394262Y234044D01*
X394405Y234168D01*
X394482Y234243D01*
X394906Y233819D01*
D02*
G37*
G36*
X373684Y243135D02*
Y234868D01*
X373684Y234868D01*
X373746Y234556D01*
X373923Y234291D01*
X374328Y233886D01*
X374381Y233649D01*
X373901Y233516D01*
X373789Y233544D01*
X372816Y234517D01*
Y237500D01*
X372754Y237812D01*
X372577Y238077D01*
X372577Y238077D01*
X368171Y242482D01*
X368153Y242535D01*
X368102Y242593D01*
X368073Y242635D01*
X368043Y242690D01*
X368014Y242758D01*
X367987Y242841D01*
X367963Y242940D01*
X367945Y243046D01*
X367921Y243331D01*
X367919Y243492D01*
X367914Y243504D01*
X367769Y244233D01*
X367354Y244854D01*
X366733Y245269D01*
X366000Y245415D01*
X365515Y245318D01*
X365320Y245789D01*
X365850Y246144D01*
X365862Y246148D01*
X365983Y246266D01*
X366089Y246361D01*
X366190Y246442D01*
X366284Y246508D01*
X366371Y246561D01*
X366449Y246601D01*
X366518Y246628D01*
X366577Y246646D01*
X366628Y246655D01*
X366705Y246660D01*
X366755Y246684D01*
X370135D01*
X373684Y243135D01*
D02*
G37*
G36*
X375458Y234333D02*
X375856Y233880D01*
X375855Y233866D01*
X375840Y233864D01*
X375146Y233376D01*
X375188Y233414D01*
X375216Y233458D01*
X375230Y233508D01*
X375228Y233563D01*
X375213Y233625D01*
X375183Y233693D01*
X375138Y233767D01*
X375080Y233847D01*
X375006Y233933D01*
X374919Y234025D01*
X375344Y234448D01*
X375458Y234333D01*
D02*
G37*
G36*
X362113Y234838D02*
X362365Y234626D01*
X362487Y234539D01*
X362607Y234466D01*
X362724Y234406D01*
X362840Y234360D01*
X362953Y234327D01*
X363063Y234307D01*
X363172Y234300D01*
Y233700D01*
X363063Y233693D01*
X362953Y233673D01*
X362840Y233640D01*
X362724Y233594D01*
X362607Y233534D01*
X362487Y233461D01*
X362365Y233374D01*
X362240Y233275D01*
X362113Y233162D01*
X361984Y233035D01*
Y234965D01*
X362113Y234838D01*
D02*
G37*
G36*
X396298Y232427D02*
X396223Y232350D01*
X396099Y232207D01*
X396050Y232141D01*
X396009Y232080D01*
X395978Y232023D01*
X395955Y231969D01*
X395941Y231920D01*
X395936Y231875D01*
X395939Y231834D01*
X395281Y232492D01*
X395322Y232489D01*
X395367Y232494D01*
X395416Y232508D01*
X395469Y232531D01*
X395527Y232563D01*
X395588Y232603D01*
X395654Y232652D01*
X395796Y232776D01*
X395874Y232852D01*
X396298Y232427D01*
D02*
G37*
G36*
X373830Y232776D02*
X373973Y232652D01*
X374038Y232603D01*
X374100Y232563D01*
X374157Y232531D01*
X374210Y232508D01*
X374259Y232494D01*
X374305Y232489D01*
X374346Y232492D01*
X373687Y231834D01*
X373691Y231875D01*
X373685Y231920D01*
X373671Y231969D01*
X373648Y232023D01*
X373617Y232080D01*
X373577Y232141D01*
X373528Y232207D01*
X373403Y232350D01*
X373328Y232427D01*
X373752Y232852D01*
X373830Y232776D01*
D02*
G37*
G36*
X397690Y231035D02*
X397615Y230958D01*
X397491Y230815D01*
X397442Y230749D01*
X397401Y230688D01*
X397370Y230630D01*
X397347Y230577D01*
X397333Y230528D01*
X397328Y230483D01*
X397331Y230442D01*
X396673Y231100D01*
X396714Y231097D01*
X396759Y231102D01*
X396808Y231116D01*
X396861Y231139D01*
X396919Y231171D01*
X396980Y231211D01*
X397045Y231260D01*
X397188Y231384D01*
X397266Y231460D01*
X397690Y231035D01*
D02*
G37*
G36*
X372438Y231384D02*
X372581Y231260D01*
X372646Y231211D01*
X372708Y231171D01*
X372765Y231139D01*
X372818Y231116D01*
X372868Y231102D01*
X372913Y231097D01*
X372954Y231100D01*
X372295Y230442D01*
X372299Y230483D01*
X372293Y230528D01*
X372279Y230577D01*
X372256Y230631D01*
X372225Y230688D01*
X372185Y230749D01*
X372136Y230815D01*
X372011Y230958D01*
X371936Y231035D01*
X372360Y231460D01*
X372438Y231384D01*
D02*
G37*
G36*
X399082Y229644D02*
X399007Y229566D01*
X398883Y229423D01*
X398834Y229357D01*
X398793Y229296D01*
X398762Y229239D01*
X398739Y229185D01*
X398725Y229136D01*
X398720Y229091D01*
X398723Y229050D01*
X398064Y229708D01*
X398106Y229705D01*
X398151Y229710D01*
X398200Y229724D01*
X398253Y229747D01*
X398310Y229779D01*
X398372Y229819D01*
X398437Y229868D01*
X398580Y229993D01*
X398658Y230068D01*
X399082Y229644D01*
D02*
G37*
G36*
X371046Y229993D02*
X371189Y229868D01*
X371254Y229819D01*
X371316Y229779D01*
X371373Y229747D01*
X371426Y229724D01*
X371476Y229710D01*
X371521Y229705D01*
X371562Y229708D01*
X370903Y229050D01*
X370907Y229091D01*
X370901Y229136D01*
X370887Y229185D01*
X370865Y229239D01*
X370833Y229296D01*
X370793Y229357D01*
X370744Y229423D01*
X370619Y229566D01*
X370544Y229644D01*
X370968Y230068D01*
X371046Y229993D01*
D02*
G37*
G36*
X400474Y228252D02*
X400399Y228174D01*
X400275Y228031D01*
X400226Y227965D01*
X400185Y227904D01*
X400154Y227847D01*
X400131Y227793D01*
X400117Y227744D01*
X400111Y227699D01*
X400115Y227658D01*
X399456Y228316D01*
X399498Y228313D01*
X399543Y228318D01*
X399592Y228332D01*
X399645Y228355D01*
X399703Y228387D01*
X399764Y228427D01*
X399829Y228476D01*
X399972Y228601D01*
X400050Y228676D01*
X400474Y228252D01*
D02*
G37*
G36*
X361613Y229838D02*
X361864Y229626D01*
X361987Y229539D01*
X362107Y229466D01*
X362224Y229406D01*
X362340Y229360D01*
X362453Y229327D01*
X362563Y229307D01*
X362672Y229300D01*
Y228700D01*
X362563Y228693D01*
X362453Y228673D01*
X362340Y228640D01*
X362224Y228594D01*
X362107Y228534D01*
X361987Y228461D01*
X361864Y228374D01*
X361740Y228275D01*
X361613Y228162D01*
X361484Y228035D01*
Y229965D01*
X361613Y229838D01*
D02*
G37*
G36*
X369667Y228632D02*
X369798Y228520D01*
X369864Y228473D01*
X369931Y228430D01*
X369998Y228393D01*
X370066Y228361D01*
X370135Y228334D01*
X370203Y228312D01*
X370273Y228296D01*
X369512Y227658D01*
X369516Y227705D01*
X369512Y227755D01*
X369500Y227808D01*
X369478Y227865D01*
X369449Y227925D01*
X369410Y227989D01*
X369363Y228056D01*
X369308Y228126D01*
X369171Y228277D01*
X369602Y228695D01*
X369667Y228632D01*
D02*
G37*
G36*
X367348Y226542D02*
X367352Y226532D01*
X367282Y226245D01*
X367252Y226167D01*
X367132Y226004D01*
X367083Y225994D01*
X366827Y225823D01*
X366518Y225514D01*
X366500Y225510D01*
X366474Y225470D01*
X366437Y225433D01*
X366432Y225425D01*
X366376Y225393D01*
X366362Y225374D01*
X366362Y225374D01*
X366351Y225369D01*
X366331Y225362D01*
X366299Y225355D01*
X366258Y225348D01*
X366205Y225343D01*
X366127Y225341D01*
X366071Y225316D01*
X364554D01*
X364503Y225340D01*
X364427Y225345D01*
X364376Y225354D01*
X364316Y225372D01*
X364247Y225399D01*
X364169Y225439D01*
X364083Y225492D01*
X363995Y225554D01*
X363776Y225739D01*
X363661Y225851D01*
X363649Y225856D01*
X363031Y226269D01*
X362299Y226415D01*
X361566Y226269D01*
X360945Y225854D01*
X360530Y225233D01*
X360384Y224500D01*
X360530Y223767D01*
X360945Y223146D01*
X361566Y222731D01*
X362299Y222585D01*
X363031Y222731D01*
X363649Y223144D01*
X363661Y223148D01*
X363781Y223266D01*
X363888Y223361D01*
X363989Y223442D01*
X364083Y223508D01*
X364169Y223561D01*
X364247Y223601D01*
X364316Y223628D01*
X364376Y223646D01*
X364427Y223655D01*
X364503Y223660D01*
X364554Y223684D01*
X366613D01*
X366666Y223659D01*
X366672Y223662D01*
X366679Y223659D01*
X366803Y223656D01*
X366901Y223650D01*
X366985Y223639D01*
X367053Y223626D01*
X367105Y223612D01*
X367141Y223598D01*
X367160Y223588D01*
X367163Y223587D01*
X367179Y223567D01*
X367192Y223560D01*
X369080Y221672D01*
X369110Y221616D01*
Y221117D01*
X369080Y221061D01*
X368660Y220641D01*
X368104Y220577D01*
X367840Y220754D01*
X367528Y220816D01*
X367527Y220816D01*
X362784D01*
X362784Y220816D01*
X362472Y220754D01*
X362207Y220577D01*
X361770Y220140D01*
X361750Y220136D01*
X361724Y220100D01*
X361682Y220086D01*
X361563Y219983D01*
X361516Y219947D01*
X361040Y219662D01*
X360940Y219679D01*
X360841Y219703D01*
X360758Y219730D01*
X360690Y219759D01*
X360635Y219789D01*
X360593Y219818D01*
X360535Y219869D01*
X360482Y219887D01*
X358420Y221950D01*
Y227833D01*
X358920Y227984D01*
X359146Y227646D01*
X359767Y227231D01*
X360500Y227085D01*
X361233Y227231D01*
X361850Y227644D01*
X361862Y227648D01*
X361983Y227766D01*
X362089Y227861D01*
X362190Y227942D01*
X362284Y228008D01*
X362371Y228061D01*
X362449Y228101D01*
X362518Y228128D01*
X362577Y228146D01*
X362628Y228155D01*
X362705Y228160D01*
X362755Y228184D01*
X365706D01*
X367348Y226542D01*
D02*
G37*
G36*
X407728Y226669D02*
X407599Y226796D01*
X407348Y227008D01*
X407226Y227095D01*
X407106Y227168D01*
X406988Y227227D01*
X406873Y227274D01*
X406760Y227307D01*
X406649Y227327D01*
X406541Y227334D01*
Y227934D01*
X406649Y227940D01*
X406760Y227960D01*
X406873Y227994D01*
X406988Y228040D01*
X407106Y228100D01*
X407226Y228173D01*
X407348Y228259D01*
X407472Y228359D01*
X407599Y228472D01*
X407728Y228598D01*
Y226669D01*
D02*
G37*
G36*
X368262Y227209D02*
X368405Y227084D01*
X368471Y227035D01*
X368532Y226995D01*
X368589Y226963D01*
X368642Y226940D01*
X368692Y226926D01*
X368737Y226921D01*
X368778Y226924D01*
X368120Y226266D01*
X368123Y226307D01*
X368118Y226352D01*
X368104Y226401D01*
X368081Y226455D01*
X368049Y226512D01*
X368009Y226573D01*
X367960Y226639D01*
X367835Y226782D01*
X367760Y226860D01*
X368184Y227284D01*
X368262Y227209D01*
D02*
G37*
G36*
X403258Y225468D02*
X403183Y225390D01*
X403058Y225247D01*
X403010Y225182D01*
X402969Y225120D01*
X402938Y225063D01*
X402915Y225009D01*
X402901Y224960D01*
X402895Y224915D01*
X402899Y224874D01*
X402240Y225533D01*
X402281Y225529D01*
X402326Y225535D01*
X402376Y225549D01*
X402429Y225571D01*
X402486Y225603D01*
X402548Y225643D01*
X402613Y225692D01*
X402756Y225817D01*
X402834Y225892D01*
X403258Y225468D01*
D02*
G37*
G36*
X367599Y223908D02*
X367554Y223964D01*
X367498Y224013D01*
X367433Y224057D01*
X367357Y224095D01*
X367272Y224127D01*
X367176Y224153D01*
X367070Y224174D01*
X366953Y224188D01*
X366827Y224197D01*
X366690Y224200D01*
X366142Y224800D01*
X366237Y224803D01*
X366325Y224811D01*
X366407Y224824D01*
X366483Y224842D01*
X366552Y224866D01*
X366615Y224895D01*
X366672Y224929D01*
X366723Y224969D01*
X366768Y225014D01*
X366806Y225064D01*
X367599Y223908D01*
D02*
G37*
G36*
X363412Y225338D02*
X363663Y225126D01*
X363785Y225039D01*
X363905Y224966D01*
X364023Y224906D01*
X364138Y224860D01*
X364251Y224827D01*
X364362Y224807D01*
X364470Y224800D01*
Y224200D01*
X364362Y224193D01*
X364251Y224173D01*
X364138Y224140D01*
X364023Y224094D01*
X363905Y224034D01*
X363785Y223961D01*
X363663Y223874D01*
X363539Y223775D01*
X363412Y223662D01*
X363283Y223535D01*
Y225465D01*
X363412Y225338D01*
D02*
G37*
G36*
X362728Y219519D02*
X362647Y219429D01*
X362583Y219334D01*
X362537Y219235D01*
X362506Y219133D01*
X362493Y219026D01*
X362496Y218916D01*
X362516Y218802D01*
X362552Y218683D01*
X362606Y218561D01*
X362676Y218435D01*
X361230Y218838D01*
X360122Y217730D01*
X360120Y217911D01*
X360093Y218239D01*
X360067Y218386D01*
X360034Y218523D01*
X359993Y218648D01*
X359945Y218762D01*
X359888Y218866D01*
X359824Y218958D01*
X359752Y219040D01*
X360176Y219464D01*
X360258Y219392D01*
X360350Y219328D01*
X360454Y219271D01*
X360568Y219223D01*
X360694Y219182D01*
X360830Y219149D01*
X360978Y219123D01*
X361136Y219106D01*
X361162Y219104D01*
X361818Y219497D01*
X361904Y219561D01*
X362037Y219678D01*
X362728Y219519D01*
D02*
G37*
G36*
X368015Y219941D02*
X368095Y219874D01*
X368170Y219820D01*
X368241Y219778D01*
X368308Y219750D01*
X368370Y219734D01*
X368428Y219731D01*
X368482Y219742D01*
X368531Y219765D01*
X368575Y219801D01*
X367727Y218952D01*
X367763Y218997D01*
X367786Y219046D01*
X367796Y219099D01*
X367793Y219157D01*
X367778Y219219D01*
X367749Y219286D01*
X367708Y219357D01*
X367653Y219433D01*
X367586Y219513D01*
X367506Y219597D01*
X367930Y220021D01*
X368015Y219941D01*
D02*
G37*
G36*
X402895Y217817D02*
X402901Y217772D01*
X402915Y217723D01*
X402938Y217670D01*
X402969Y217613D01*
X403010Y217551D01*
X403058Y217486D01*
X403183Y217343D01*
X403258Y217265D01*
X402834Y216841D01*
X402756Y216916D01*
X402613Y217040D01*
X402548Y217089D01*
X402486Y217130D01*
X402429Y217161D01*
X402376Y217184D01*
X402326Y217198D01*
X402281Y217203D01*
X402240Y217200D01*
X402899Y217859D01*
X402895Y217817D01*
D02*
G37*
G36*
X368778Y215808D02*
X368737Y215812D01*
X368692Y215806D01*
X368642Y215792D01*
X368589Y215769D01*
X368532Y215738D01*
X368471Y215697D01*
X368405Y215648D01*
X368262Y215524D01*
X368184Y215449D01*
X367760Y215873D01*
X367835Y215951D01*
X367960Y216094D01*
X368009Y216159D01*
X368049Y216221D01*
X368081Y216278D01*
X368104Y216331D01*
X368118Y216380D01*
X368123Y216426D01*
X368120Y216467D01*
X368778Y215808D01*
D02*
G37*
G36*
X401503Y216426D02*
X401509Y216380D01*
X401523Y216331D01*
X401546Y216278D01*
X401577Y216221D01*
X401617Y216159D01*
X401667Y216094D01*
X401791Y215951D01*
X401866Y215873D01*
X401442Y215449D01*
X401364Y215524D01*
X401221Y215648D01*
X401156Y215698D01*
X401094Y215738D01*
X401037Y215769D01*
X400984Y215792D01*
X400935Y215806D01*
X400889Y215812D01*
X400848Y215808D01*
X401507Y216467D01*
X401503Y216426D01*
D02*
G37*
G36*
X370170Y214416D02*
X370129Y214420D01*
X370084Y214414D01*
X370035Y214400D01*
X369981Y214377D01*
X369924Y214346D01*
X369863Y214305D01*
X369797Y214257D01*
X369654Y214132D01*
X369576Y214057D01*
X369152Y214481D01*
X369227Y214559D01*
X369352Y214702D01*
X369401Y214767D01*
X369441Y214829D01*
X369473Y214886D01*
X369495Y214939D01*
X369510Y214988D01*
X369515Y215034D01*
X369512Y215075D01*
X370170Y214416D01*
D02*
G37*
G36*
X400111Y215034D02*
X400117Y214988D01*
X400131Y214939D01*
X400154Y214886D01*
X400185Y214829D01*
X400226Y214767D01*
X400275Y214702D01*
X400399Y214559D01*
X400474Y214481D01*
X400050Y214057D01*
X399972Y214132D01*
X399829Y214257D01*
X399764Y214305D01*
X399703Y214346D01*
X399645Y214377D01*
X399592Y214400D01*
X399543Y214414D01*
X399498Y214420D01*
X399456Y214416D01*
X400115Y215075D01*
X400111Y215034D01*
D02*
G37*
G36*
X371562Y213024D02*
X371521Y213028D01*
X371476Y213022D01*
X371426Y213008D01*
X371373Y212985D01*
X371316Y212954D01*
X371254Y212914D01*
X371189Y212864D01*
X371046Y212740D01*
X370968Y212665D01*
X370544Y213089D01*
X370619Y213167D01*
X370744Y213310D01*
X370793Y213375D01*
X370833Y213437D01*
X370865Y213494D01*
X370887Y213547D01*
X370901Y213597D01*
X370907Y213642D01*
X370903Y213683D01*
X371562Y213024D01*
D02*
G37*
G36*
X398720Y213642D02*
X398725Y213597D01*
X398739Y213547D01*
X398762Y213494D01*
X398793Y213437D01*
X398834Y213375D01*
X398883Y213310D01*
X399007Y213167D01*
X399082Y213089D01*
X398658Y212665D01*
X398580Y212740D01*
X398437Y212865D01*
X398372Y212914D01*
X398310Y212954D01*
X398253Y212985D01*
X398200Y213008D01*
X398151Y213022D01*
X398106Y213028D01*
X398064Y213024D01*
X398723Y213683D01*
X398720Y213642D01*
D02*
G37*
G36*
X372954Y211632D02*
X372913Y211636D01*
X372868Y211630D01*
X372818Y211616D01*
X372765Y211594D01*
X372708Y211562D01*
X372646Y211522D01*
X372581Y211473D01*
X372438Y211348D01*
X372360Y211273D01*
X371936Y211697D01*
X372011Y211775D01*
X372136Y211918D01*
X372185Y211983D01*
X372225Y212045D01*
X372256Y212102D01*
X372279Y212155D01*
X372293Y212205D01*
X372299Y212250D01*
X372295Y212291D01*
X372954Y211632D01*
D02*
G37*
G36*
X397328Y212250D02*
X397333Y212205D01*
X397347Y212155D01*
X397370Y212102D01*
X397401Y212045D01*
X397442Y211983D01*
X397491Y211918D01*
X397615Y211775D01*
X397690Y211697D01*
X397266Y211273D01*
X397188Y211348D01*
X397045Y211473D01*
X396980Y211522D01*
X396919Y211562D01*
X396861Y211594D01*
X396808Y211616D01*
X396759Y211631D01*
X396714Y211636D01*
X396673Y211632D01*
X397331Y212291D01*
X397328Y212250D01*
D02*
G37*
G36*
X415307Y211563D02*
X415327Y211453D01*
X415360Y211340D01*
X415406Y211224D01*
X415466Y211107D01*
X415539Y210987D01*
X415626Y210864D01*
X415725Y210740D01*
X415838Y210613D01*
X415965Y210484D01*
X414035D01*
X414162Y210613D01*
X414374Y210864D01*
X414461Y210987D01*
X414534Y211107D01*
X414594Y211224D01*
X414640Y211340D01*
X414673Y211453D01*
X414693Y211563D01*
X414700Y211672D01*
X415300D01*
X415307Y211563D01*
D02*
G37*
G36*
X374346Y210240D02*
X374305Y210244D01*
X374259Y210239D01*
X374210Y210224D01*
X374157Y210202D01*
X374100Y210170D01*
X374038Y210130D01*
X373973Y210081D01*
X373830Y209956D01*
X373752Y209881D01*
X373328Y210305D01*
X373403Y210383D01*
X373528Y210526D01*
X373577Y210591D01*
X373617Y210653D01*
X373648Y210710D01*
X373671Y210763D01*
X373685Y210813D01*
X373691Y210858D01*
X373687Y210899D01*
X374346Y210240D01*
D02*
G37*
G36*
X395935Y210934D02*
X395956Y210867D01*
X395983Y210800D01*
X396015Y210733D01*
X396053Y210667D01*
X396096Y210600D01*
X396144Y210534D01*
X396198Y210468D01*
X396322Y210337D01*
X395905Y209905D01*
X395828Y209977D01*
X395684Y210096D01*
X395617Y210142D01*
X395553Y210180D01*
X395492Y210209D01*
X395434Y210230D01*
X395380Y210242D01*
X395329Y210245D01*
X395281Y210241D01*
X395919Y211002D01*
X395935Y210934D01*
D02*
G37*
G36*
X375738Y208849D02*
X375697Y208852D01*
X375652Y208846D01*
X375602Y208833D01*
X375549Y208810D01*
X375492Y208778D01*
X375430Y208738D01*
X375365Y208689D01*
X375222Y208564D01*
X375144Y208489D01*
X374720Y208913D01*
X374795Y208991D01*
X374919Y209134D01*
X374969Y209200D01*
X375009Y209261D01*
X375040Y209318D01*
X375063Y209371D01*
X375077Y209421D01*
X375083Y209466D01*
X375079Y209507D01*
X375738Y208849D01*
D02*
G37*
G36*
X394540Y209556D02*
X394560Y209500D01*
X394587Y209441D01*
X394619Y209381D01*
X394658Y209319D01*
X394704Y209255D01*
X394813Y209119D01*
X394878Y209049D01*
X394948Y208976D01*
X394538Y208538D01*
X394465Y208607D01*
X394394Y208668D01*
X394325Y208720D01*
X394258Y208764D01*
X394192Y208799D01*
X394128Y208826D01*
X394066Y208844D01*
X394005Y208854D01*
X393946Y208856D01*
X393889Y208849D01*
X394527Y209610D01*
X394540Y209556D01*
D02*
G37*
G36*
X377130Y207456D02*
X377088Y207460D01*
X377043Y207455D01*
X376994Y207440D01*
X376941Y207418D01*
X376884Y207386D01*
X376822Y207346D01*
X376757Y207297D01*
X376614Y207172D01*
X376536Y207097D01*
X376112Y207521D01*
X376187Y207599D01*
X376311Y207742D01*
X376360Y207807D01*
X376401Y207869D01*
X376432Y207926D01*
X376455Y207980D01*
X376469Y208029D01*
X376475Y208074D01*
X376471Y208115D01*
X377130Y207456D01*
D02*
G37*
G36*
X393152Y208074D02*
X393157Y208029D01*
X393171Y207980D01*
X393194Y207926D01*
X393226Y207869D01*
X393266Y207808D01*
X393315Y207742D01*
X393439Y207599D01*
X393515Y207522D01*
X393090Y207097D01*
X393013Y207172D01*
X392870Y207297D01*
X392804Y207346D01*
X392743Y207386D01*
X392685Y207418D01*
X392632Y207440D01*
X392583Y207455D01*
X392538Y207460D01*
X392497Y207457D01*
X393155Y208115D01*
X393152Y208074D01*
D02*
G37*
G36*
X378522Y206065D02*
X378481Y206068D01*
X378435Y206063D01*
X378386Y206049D01*
X378333Y206026D01*
X378275Y205994D01*
X378214Y205954D01*
X378149Y205905D01*
X378006Y205781D01*
X377928Y205705D01*
X377504Y206130D01*
X377579Y206207D01*
X377703Y206350D01*
X377752Y206416D01*
X377793Y206477D01*
X377824Y206534D01*
X377847Y206588D01*
X377861Y206637D01*
X377867Y206682D01*
X377863Y206723D01*
X378522Y206065D01*
D02*
G37*
G36*
X391760Y206682D02*
X391765Y206637D01*
X391779Y206588D01*
X391802Y206534D01*
X391834Y206477D01*
X391874Y206416D01*
X391923Y206350D01*
X392047Y206207D01*
X392123Y206130D01*
X391698Y205705D01*
X391621Y205781D01*
X391478Y205905D01*
X391412Y205954D01*
X391351Y205994D01*
X391294Y206026D01*
X391240Y206049D01*
X391191Y206063D01*
X391146Y206068D01*
X391105Y206065D01*
X391763Y206723D01*
X391760Y206682D01*
D02*
G37*
G36*
X379913Y204673D02*
X379872Y204676D01*
X379827Y204671D01*
X379778Y204657D01*
X379725Y204634D01*
X379667Y204602D01*
X379606Y204562D01*
X379541Y204513D01*
X379398Y204389D01*
X379320Y204313D01*
X378896Y204737D01*
X378971Y204815D01*
X379095Y204958D01*
X379144Y205024D01*
X379185Y205085D01*
X379216Y205142D01*
X379239Y205196D01*
X379253Y205245D01*
X379258Y205290D01*
X379255Y205331D01*
X379913Y204673D01*
D02*
G37*
G36*
X390368Y205290D02*
X390373Y205245D01*
X390387Y205196D01*
X390410Y205142D01*
X390442Y205085D01*
X390482Y205024D01*
X390531Y204958D01*
X390655Y204815D01*
X390731Y204738D01*
X390306Y204313D01*
X390229Y204389D01*
X390086Y204513D01*
X390020Y204562D01*
X389959Y204602D01*
X389902Y204634D01*
X389848Y204657D01*
X389799Y204671D01*
X389754Y204676D01*
X389713Y204673D01*
X390371Y205331D01*
X390368Y205290D01*
D02*
G37*
G36*
X382983Y204858D02*
X382933Y204790D01*
X382890Y204715D01*
X382852Y204634D01*
X382820Y204546D01*
X382793Y204452D01*
X382773Y204352D01*
X382758Y204245D01*
X382750Y204131D01*
X382747Y204011D01*
X382147Y203411D01*
X382144Y203525D01*
X382135Y203621D01*
X382119Y203698D01*
X382098Y203756D01*
X382070Y203796D01*
X382036Y203818D01*
X381996Y203821D01*
X381949Y203806D01*
X381897Y203772D01*
X381838Y203719D01*
X383038Y204919D01*
X382983Y204858D01*
D02*
G37*
G36*
X402803Y203814D02*
X402813Y203720D01*
X402829Y203634D01*
X402852Y203554D01*
X402881Y203482D01*
X402917Y203417D01*
X402959Y203359D01*
X403008Y203308D01*
X403064Y203265D01*
X403125Y203228D01*
X401875D01*
X401936Y203265D01*
X401992Y203308D01*
X402040Y203359D01*
X402083Y203417D01*
X402119Y203482D01*
X402148Y203554D01*
X402171Y203634D01*
X402187Y203720D01*
X402197Y203814D01*
X402200Y203914D01*
X402800D01*
X402803Y203814D01*
D02*
G37*
G36*
X385119Y205633D02*
X387762Y202990D01*
X388018Y202819D01*
X388321Y202759D01*
X388623Y202819D01*
X388880Y202990D01*
X389228Y203339D01*
X389403Y203318D01*
X389728Y203166D01*
Y201810D01*
X386734Y198816D01*
X386674Y198792D01*
X386546Y198668D01*
X386533Y198673D01*
X386454Y198713D01*
X386391Y198750D01*
X386347Y198782D01*
X386294Y198829D01*
X386241Y198847D01*
X383262Y201826D01*
Y203940D01*
X383288Y203998D01*
X383291Y204103D01*
X383297Y204187D01*
X383307Y204261D01*
X383320Y204326D01*
X383335Y204380D01*
X383352Y204426D01*
X383369Y204463D01*
X383387Y204493D01*
X383404Y204517D01*
X383441Y204557D01*
X383446Y204571D01*
X384508Y205633D01*
X384564Y205663D01*
X385063Y205663D01*
X385119Y205633D01*
D02*
G37*
G36*
X387872Y198367D02*
X387807Y198275D01*
X387761Y198182D01*
X387734Y198089D01*
X387725Y197996D01*
X387736Y197904D01*
X387764Y197811D01*
X387812Y197719D01*
X387878Y197626D01*
X387963Y197534D01*
X386825Y197614D01*
X385652Y196835D01*
X385682Y197000D01*
X385700Y197155D01*
X385707Y197302D01*
X385701Y197441D01*
X385684Y197570D01*
X385655Y197691D01*
X385615Y197804D01*
X385562Y197907D01*
X385498Y198002D01*
X385422Y198088D01*
X385934Y198425D01*
X386007Y198360D01*
X386094Y198297D01*
X386193Y198238D01*
X386306Y198181D01*
X386432Y198128D01*
X386571Y198077D01*
X386663Y198050D01*
X386802Y198166D01*
X386886Y198244D01*
X387051Y198404D01*
X387956Y198460D01*
X387872Y198367D01*
D02*
G37*
G36*
X401235Y204007D02*
X401241Y203996D01*
X401171Y203371D01*
X401146Y203354D01*
X400731Y202733D01*
X400585Y202000D01*
X400731Y201267D01*
X401146Y200646D01*
X401767Y200231D01*
X402500Y200085D01*
X403233Y200231D01*
X403854Y200646D01*
X404184Y201141D01*
X404684Y200989D01*
Y198838D01*
X403662Y197816D01*
X400255D01*
X400205Y197840D01*
X400128Y197845D01*
X400077Y197854D01*
X400018Y197872D01*
X399949Y197899D01*
X399871Y197939D01*
X399784Y197992D01*
X399696Y198054D01*
X399478Y198239D01*
X399362Y198352D01*
X399350Y198356D01*
X398733Y198769D01*
X398000Y198915D01*
X397267Y198769D01*
X396646Y198354D01*
X396636Y198338D01*
X396135Y198490D01*
Y208180D01*
X396135Y208180D01*
X396114Y208286D01*
X396574Y208536D01*
X401235Y204007D01*
D02*
G37*
G36*
X377929Y199332D02*
X377941Y199184D01*
X377961Y199044D01*
X377990Y198911D01*
X378028Y198786D01*
X378075Y198667D01*
X378130Y198556D01*
X378194Y198452D01*
X378262Y198362D01*
X378338Y198301D01*
X378423Y198246D01*
X378496Y198214D01*
X378559Y198206D01*
X378609Y198221D01*
X378649Y198259D01*
X378677Y198321D01*
X378694Y198406D01*
X378700Y198514D01*
X379300Y197914D01*
X379306Y197795D01*
X379323Y197676D01*
X379351Y197557D01*
X379391Y197440D01*
X379441Y197323D01*
X379504Y197207D01*
X379577Y197091D01*
X379662Y196976D01*
X379758Y196862D01*
X379866Y196749D01*
X378717Y196766D01*
X378151Y197332D01*
X378141Y198058D01*
X377783Y197700D01*
X377693Y197782D01*
X377596Y197855D01*
X377492Y197919D01*
X377381Y197974D01*
X377263Y198021D01*
X377137Y198058D01*
X377004Y198088D01*
X376864Y198108D01*
X376717Y198119D01*
X376562Y198122D01*
X377927Y199486D01*
X377929Y199332D01*
D02*
G37*
G36*
X409254Y201340D02*
Y185930D01*
X409254Y185930D01*
X409316Y185618D01*
X409493Y185354D01*
X416336Y178510D01*
Y143610D01*
X398200D01*
Y146046D01*
X401077Y148923D01*
X401254Y149188D01*
X401316Y149500D01*
X401316Y149500D01*
Y149523D01*
X401340Y149573D01*
X401345Y149650D01*
X401354Y149701D01*
X401372Y149760D01*
X401399Y149829D01*
X401439Y149907D01*
X401492Y149994D01*
X401554Y150082D01*
X401739Y150300D01*
X401852Y150416D01*
X401856Y150428D01*
X402269Y151045D01*
X402415Y151778D01*
X402269Y152511D01*
X401854Y153132D01*
X401233Y153547D01*
X400500Y153693D01*
X399767Y153547D01*
X399146Y153132D01*
X398731Y152511D01*
X398585Y151778D01*
X398731Y151045D01*
X399144Y150428D01*
X399149Y150416D01*
X399266Y150295D01*
X399361Y150189D01*
X399442Y150088D01*
X399508Y149994D01*
X399561Y149907D01*
X399601Y149829D01*
X399622Y149776D01*
X396807Y146961D01*
X396723Y146835D01*
X396223Y146986D01*
Y150409D01*
X396248Y150460D01*
X396251Y150523D01*
X396258Y150569D01*
X396306Y150750D01*
X396336Y150838D01*
X396603Y151425D01*
X396691Y151592D01*
X396691Y151592D01*
X396691Y151592D01*
X396697Y151660D01*
X396769Y151767D01*
X396915Y152500D01*
X396769Y153233D01*
X396354Y153854D01*
X395733Y154269D01*
X395000Y154415D01*
X394267Y154269D01*
X393646Y153854D01*
X393231Y153233D01*
X393085Y152500D01*
X393231Y151767D01*
X393646Y151146D01*
X394044Y150880D01*
X394106Y150802D01*
X394229Y150734D01*
X394319Y150674D01*
X394392Y150617D01*
X394448Y150564D01*
X394490Y150515D01*
X394520Y150470D01*
X394540Y150429D01*
X394554Y150389D01*
X394562Y150347D01*
X394567Y150265D01*
X394591Y150215D01*
Y143610D01*
X392269D01*
Y166318D01*
X394984Y169033D01*
X394984Y169033D01*
X395161Y169297D01*
X395183Y169409D01*
X398450D01*
Y174858D01*
X390364D01*
Y169409D01*
X392400D01*
X392592Y168948D01*
X390877Y167233D01*
X390700Y166968D01*
X390638Y166656D01*
X390638Y166656D01*
Y165670D01*
X390138Y165518D01*
X390054Y165644D01*
X390054Y165644D01*
X386750Y168948D01*
X386942Y169409D01*
X388978D01*
Y174858D01*
X380891D01*
Y173781D01*
X380391Y173732D01*
X380292Y174233D01*
X379877Y174854D01*
X379255Y175269D01*
X378527Y175414D01*
X378515Y175419D01*
X378347Y175421D01*
X378204Y175429D01*
X378076Y175443D01*
X377962Y175463D01*
X377864Y175487D01*
X377781Y175514D01*
X377712Y175543D01*
X377658Y175573D01*
X377615Y175602D01*
X377558Y175653D01*
X377505Y175671D01*
X370480Y182696D01*
Y184713D01*
X370942Y184905D01*
X376327Y179520D01*
X376345Y179467D01*
X376396Y179410D01*
X376426Y179367D01*
X376457Y179311D01*
X376487Y179240D01*
X376517Y179154D01*
X376543Y179053D01*
X376565Y178943D01*
X376597Y178651D01*
X376604Y178487D01*
X376630Y178432D01*
X376754Y177810D01*
X377169Y177188D01*
X377790Y176773D01*
X378523Y176628D01*
X379255Y176773D01*
X379877Y177188D01*
X380292Y177810D01*
X380437Y178542D01*
X380292Y179275D01*
X379877Y179896D01*
X379255Y180311D01*
X378523Y180457D01*
X378481Y180449D01*
X378452Y180460D01*
X378287Y180457D01*
X378148Y180461D01*
X378023Y180471D01*
X377913Y180488D01*
X377818Y180509D01*
X377737Y180534D01*
X377671Y180561D01*
X377618Y180589D01*
X377577Y180618D01*
X377518Y180670D01*
X377466Y180688D01*
X371872Y186282D01*
Y188809D01*
X372334Y189000D01*
X376517Y184817D01*
X376520Y184802D01*
X376561Y184771D01*
X376578Y184722D01*
X376632Y184661D01*
X376657Y184624D01*
X376677Y184582D01*
X376695Y184533D01*
X376708Y184474D01*
X376716Y184402D01*
X376717Y184316D01*
X376709Y184217D01*
X376692Y184103D01*
X376660Y183961D01*
X376678Y183854D01*
X376608Y183500D01*
X376754Y182767D01*
X377169Y182146D01*
X377790Y181731D01*
X378523Y181585D01*
X379255Y181731D01*
X379877Y182146D01*
X380292Y182767D01*
X380391Y183268D01*
X380891Y183219D01*
Y181142D01*
X388978D01*
Y186591D01*
X386078D01*
X386078Y186593D01*
X386076Y186693D01*
X386050Y186749D01*
Y190897D01*
X389816Y194662D01*
X390316Y194455D01*
Y189666D01*
X390316Y189666D01*
X390378Y189354D01*
X390555Y189090D01*
X392592Y187053D01*
X392400Y186591D01*
X390364D01*
Y181142D01*
X398450D01*
Y186591D01*
X395183D01*
X395161Y186703D01*
X394984Y186967D01*
X394984Y186967D01*
X391947Y190004D01*
Y194531D01*
X394004Y196588D01*
X394504Y196390D01*
Y195798D01*
X394504Y195798D01*
X394566Y195486D01*
X394743Y195221D01*
X396122Y193843D01*
X396140Y193790D01*
X396191Y193732D01*
X396220Y193691D01*
X396248Y193638D01*
X396275Y193572D01*
X396300Y193492D01*
X396320Y193398D01*
X396335Y193296D01*
X396349Y193019D01*
X396345Y192862D01*
X396357Y192829D01*
X396347Y192778D01*
X396493Y192046D01*
X396908Y191425D01*
X397529Y191009D01*
X398262Y190864D01*
X398995Y191009D01*
X399616Y191425D01*
X400031Y192046D01*
X400177Y192778D01*
X400031Y193511D01*
X399616Y194132D01*
X398995Y194547D01*
X398402Y194665D01*
X398381Y194921D01*
X398425Y195170D01*
X398733Y195231D01*
X399350Y195644D01*
X399362Y195649D01*
X399483Y195766D01*
X399589Y195861D01*
X399690Y195942D01*
X399784Y196008D01*
X399871Y196061D01*
X399949Y196101D01*
X400018Y196128D01*
X400077Y196146D01*
X400128Y196155D01*
X400205Y196160D01*
X400255Y196184D01*
X404000D01*
X404000Y196184D01*
X404312Y196246D01*
X404577Y196423D01*
X406077Y197923D01*
X406254Y198188D01*
X406316Y198500D01*
X406316Y198500D01*
Y203463D01*
X406316Y203463D01*
X406289Y203598D01*
X406750Y203844D01*
X409254Y201340D01*
D02*
G37*
G36*
X399113Y197838D02*
X399364Y197626D01*
X399487Y197539D01*
X399607Y197466D01*
X399724Y197406D01*
X399840Y197360D01*
X399953Y197327D01*
X400063Y197307D01*
X400172Y197300D01*
Y196700D01*
X400063Y196693D01*
X399953Y196673D01*
X399840Y196640D01*
X399724Y196594D01*
X399607Y196534D01*
X399487Y196461D01*
X399364Y196374D01*
X399240Y196275D01*
X399113Y196162D01*
X398984Y196035D01*
Y197965D01*
X399113Y197838D01*
D02*
G37*
G36*
X397067Y194485D02*
X397158Y194421D01*
X397261Y194363D01*
X397376Y194313D01*
X397502Y194270D01*
X397639Y194233D01*
X397788Y194204D01*
X397948Y194181D01*
X398303Y194156D01*
X396886Y192847D01*
X396890Y193025D01*
X396874Y193349D01*
X396853Y193495D01*
X396823Y193630D01*
X396785Y193755D01*
X396738Y193869D01*
X396682Y193973D01*
X396618Y194066D01*
X396545Y194149D01*
X396987Y194555D01*
X397067Y194485D01*
D02*
G37*
G36*
X380568Y194506D02*
X380667Y194434D01*
X380771Y194376D01*
X380879Y194330D01*
X380993Y194297D01*
X381111Y194277D01*
X381234Y194271D01*
X381362Y194277D01*
X381495Y194296D01*
X381633Y194328D01*
X380665Y192660D01*
X380621Y192819D01*
X380523Y193112D01*
X380469Y193246D01*
X380349Y193487D01*
X380284Y193595D01*
X380215Y193695D01*
X380143Y193785D01*
X380067Y193868D01*
X380474Y194591D01*
X380568Y194506D01*
D02*
G37*
G36*
X380357Y203380D02*
X380746Y202990D01*
X381003Y202819D01*
X381306Y202759D01*
X381631Y202314D01*
Y201488D01*
X381631Y201488D01*
X381693Y201176D01*
X381870Y200911D01*
X384965Y197816D01*
X384970Y197791D01*
X385003Y197769D01*
X385016Y197731D01*
X385069Y197670D01*
X385095Y197632D01*
X385117Y197589D01*
X385136Y197536D01*
X385151Y197472D01*
X385161Y197395D01*
X385165Y197304D01*
X385162Y197245D01*
X385043Y197125D01*
X384867Y196861D01*
X384805Y196549D01*
X384867Y196237D01*
X385043Y195972D01*
X385224Y195851D01*
X385231Y195816D01*
X385646Y195195D01*
X386267Y194780D01*
X386811Y194672D01*
X387012Y194165D01*
X384658Y191811D01*
X384481Y191547D01*
X384419Y191235D01*
X384419Y191235D01*
Y186749D01*
X384394Y186693D01*
X384391Y186593D01*
X384391Y186591D01*
X380891D01*
Y183781D01*
X380391Y183731D01*
X380292Y184233D01*
X379877Y184854D01*
X379255Y185269D01*
X379047Y185310D01*
X378975Y185365D01*
X378612Y185460D01*
X378471Y185503D01*
X378211Y185599D01*
X378116Y185642D01*
X378034Y185684D01*
X377971Y185723D01*
X377926Y185755D01*
X377876Y185800D01*
X377822Y185819D01*
X373264Y190377D01*
Y192452D01*
X373726Y192643D01*
X376351Y190018D01*
X376370Y189965D01*
X376420Y189907D01*
X376450Y189865D01*
X376480Y189810D01*
X376509Y189742D01*
X376536Y189659D01*
X376560Y189560D01*
X376578Y189454D01*
X376602Y189169D01*
X376604Y189008D01*
X376609Y188996D01*
X376754Y188267D01*
X377169Y187646D01*
X377790Y187231D01*
X378523Y187085D01*
X379255Y187231D01*
X379877Y187646D01*
X380292Y188267D01*
X380437Y189000D01*
X380292Y189733D01*
X379877Y190354D01*
X379255Y190769D01*
X378527Y190914D01*
X378515Y190919D01*
X378347Y190921D01*
X378204Y190929D01*
X378076Y190943D01*
X377962Y190963D01*
X377864Y190987D01*
X377781Y191014D01*
X377712Y191043D01*
X377658Y191073D01*
X377615Y191102D01*
X377558Y191153D01*
X377505Y191171D01*
X374656Y194020D01*
Y198053D01*
X375156Y198204D01*
X375195Y198146D01*
X375816Y197731D01*
X376538Y197587D01*
X376553Y197581D01*
X376691Y197579D01*
X376804Y197570D01*
X376908Y197555D01*
X377001Y197534D01*
X377085Y197509D01*
X377161Y197479D01*
X377229Y197445D01*
X377291Y197407D01*
X377348Y197365D01*
X377418Y197300D01*
X377469Y197282D01*
X377745Y197006D01*
X377769Y196949D01*
X378334Y196383D01*
X378391Y196360D01*
X378923Y195828D01*
Y194660D01*
X378992Y194309D01*
X379191Y194011D01*
X379650Y193552D01*
X379670Y193500D01*
X379732Y193432D01*
X379781Y193371D01*
X379830Y193301D01*
X379874Y193227D01*
X379975Y193024D01*
X380015Y192924D01*
X380103Y192662D01*
X380143Y192517D01*
X380195Y192450D01*
X380231Y192267D01*
X380646Y191646D01*
X381267Y191231D01*
X382000Y191085D01*
X382733Y191231D01*
X383354Y191646D01*
X383769Y192267D01*
X383915Y193000D01*
X383769Y193733D01*
X383354Y194354D01*
X382733Y194769D01*
X382000Y194915D01*
X381614Y194838D01*
X381510Y194855D01*
X381395Y194828D01*
X381310Y194816D01*
X381236Y194812D01*
X381171Y194816D01*
X381113Y194826D01*
X381060Y194841D01*
X381010Y194862D01*
X380961Y194890D01*
X380910Y194927D01*
X380837Y194993D01*
X380787Y195011D01*
X380759Y195039D01*
X380758Y195040D01*
Y196209D01*
X380688Y196560D01*
X380489Y196858D01*
X380279Y197067D01*
X380259Y197121D01*
X380162Y197223D01*
X380087Y197312D01*
X380024Y197398D01*
X379971Y197480D01*
X379929Y197559D01*
X379896Y197635D01*
X379872Y197707D01*
X379855Y197777D01*
X379845Y197846D01*
X379841Y197940D01*
X379816Y197993D01*
Y203290D01*
X380316Y203441D01*
X380357Y203380D01*
D02*
G37*
G36*
X429848Y191894D02*
X429637Y191640D01*
X429551Y191517D01*
X429478Y191397D01*
X429419Y191278D01*
X429372Y191163D01*
X429339Y191050D01*
X429319Y190939D01*
X429313Y190831D01*
X428713Y190825D01*
X428706Y190934D01*
X428686Y191045D01*
X428653Y191158D01*
X428606Y191273D01*
X428546Y191390D01*
X428472Y191509D01*
X428385Y191631D01*
X428285Y191754D01*
X428172Y191879D01*
X428045Y192007D01*
X429974Y192025D01*
X429848Y191894D01*
D02*
G37*
G36*
X425421Y191723D02*
X425449Y191395D01*
X425474Y191248D01*
X425507Y191111D01*
X425548Y190986D01*
X425596Y190871D01*
X425653Y190768D01*
X425717Y190675D01*
X425789Y190594D01*
X425365Y190170D01*
X425283Y190242D01*
X425191Y190306D01*
X425088Y190362D01*
X424973Y190411D01*
X424848Y190452D01*
X424711Y190485D01*
X424564Y190510D01*
X424405Y190528D01*
X424236Y190538D01*
X424055Y190540D01*
X425419Y191904D01*
X425421Y191723D01*
D02*
G37*
G36*
X377280Y190676D02*
X377373Y190612D01*
X377476Y190555D01*
X377591Y190507D01*
X377716Y190466D01*
X377853Y190433D01*
X378000Y190407D01*
X378159Y190390D01*
X378328Y190380D01*
X378509Y190378D01*
X377145Y189014D01*
X377143Y189194D01*
X377115Y189523D01*
X377090Y189670D01*
X377057Y189806D01*
X377016Y189932D01*
X376968Y190046D01*
X376911Y190150D01*
X376847Y190242D01*
X376775Y190323D01*
X377199Y190748D01*
X377280Y190676D01*
D02*
G37*
G36*
X422928Y187578D02*
X422912Y187420D01*
X422908Y187272D01*
X422916Y187132D01*
X422935Y187002D01*
X422965Y186880D01*
X423006Y186767D01*
X423059Y186663D01*
X423124Y186569D01*
X423199Y186483D01*
X422697Y186136D01*
X422623Y186202D01*
X422536Y186265D01*
X422436Y186324D01*
X422323Y186380D01*
X422196Y186432D01*
X422057Y186481D01*
X421740Y186568D01*
X421562Y186606D01*
X421372Y186641D01*
X422954Y187744D01*
X422928Y187578D01*
D02*
G37*
G36*
X394719Y186067D02*
X394095D01*
X394097Y186070D01*
X394099Y186080D01*
X394101Y186096D01*
X394104Y186148D01*
X394107Y186391D01*
X394707D01*
X394719Y186067D01*
D02*
G37*
G36*
X385538Y186562D02*
X385547Y186458D01*
X385562Y186366D01*
X385583Y186287D01*
X385610Y186220D01*
X385643Y186164D01*
X385682Y186122D01*
X385727Y186091D01*
X385778Y186073D01*
X385835Y186067D01*
X384635D01*
X384692Y186073D01*
X384743Y186091D01*
X384788Y186122D01*
X384827Y186164D01*
X384860Y186220D01*
X384887Y186287D01*
X384908Y186366D01*
X384923Y186458D01*
X384932Y186562D01*
X384935Y186679D01*
X385535D01*
X385538Y186562D01*
D02*
G37*
G36*
X377587Y185333D02*
X377671Y185272D01*
X377769Y185212D01*
X377881Y185154D01*
X378006Y185098D01*
X378298Y184990D01*
X378464Y184939D01*
X378838Y184841D01*
X377188Y183842D01*
X377224Y184003D01*
X377247Y184155D01*
X377258Y184299D01*
X377257Y184435D01*
X377242Y184563D01*
X377216Y184682D01*
X377177Y184794D01*
X377125Y184897D01*
X377061Y184992D01*
X376984Y185079D01*
X377516Y185396D01*
X377587Y185333D01*
D02*
G37*
G36*
X377242Y180192D02*
X377335Y180127D01*
X377439Y180071D01*
X377553Y180024D01*
X377678Y179985D01*
X377814Y179955D01*
X377960Y179933D01*
X378117Y179920D01*
X378285Y179915D01*
X378463Y179919D01*
X377145Y178510D01*
X377137Y178693D01*
X377100Y179024D01*
X377071Y179173D01*
X377035Y179310D01*
X376992Y179436D01*
X376942Y179551D01*
X376885Y179654D01*
X376821Y179745D01*
X376750Y179825D01*
X377160Y180264D01*
X377242Y180192D01*
D02*
G37*
G36*
X377280Y175176D02*
X377373Y175112D01*
X377476Y175055D01*
X377591Y175007D01*
X377716Y174966D01*
X377853Y174933D01*
X378000Y174907D01*
X378159Y174890D01*
X378328Y174880D01*
X378509Y174878D01*
X377145Y173514D01*
X377143Y173694D01*
X377115Y174022D01*
X377090Y174170D01*
X377057Y174306D01*
X377016Y174432D01*
X376968Y174546D01*
X376911Y174650D01*
X376847Y174742D01*
X376775Y174823D01*
X377199Y175248D01*
X377280Y175176D01*
D02*
G37*
G36*
X380891Y173219D02*
Y169409D01*
X384159D01*
X384181Y169297D01*
X384358Y169033D01*
X388661Y164729D01*
Y143610D01*
X373390D01*
X370000Y147000D01*
X366500D01*
X364984Y145484D01*
X364522Y145675D01*
Y149180D01*
X365022Y149332D01*
X365146Y149146D01*
X365767Y148731D01*
X366500Y148585D01*
X367233Y148731D01*
X367845Y149140D01*
X367860Y149146D01*
X367959Y149242D01*
X368046Y149316D01*
X368129Y149378D01*
X368210Y149430D01*
X368288Y149472D01*
X368362Y149504D01*
X368434Y149528D01*
X368505Y149545D01*
X368575Y149555D01*
X368671Y149559D01*
X368720Y149582D01*
X369856D01*
X370207Y149652D01*
X370505Y149851D01*
X378149Y157495D01*
X378348Y157793D01*
X378393Y158021D01*
X378441Y158126D01*
X378447Y158302D01*
X378451Y158352D01*
X378456Y158380D01*
X378854Y158646D01*
X379269Y159267D01*
X379415Y160000D01*
X379269Y160733D01*
X378854Y161354D01*
X378233Y161769D01*
X377500Y161915D01*
X376767Y161769D01*
X376146Y161354D01*
X375731Y160733D01*
X375585Y160000D01*
X375731Y159267D01*
X376146Y158646D01*
X376153Y158641D01*
X376202Y158144D01*
X369476Y151418D01*
X368720D01*
X368671Y151441D01*
X368575Y151445D01*
X368505Y151455D01*
X368435Y151472D01*
X368362Y151496D01*
X368288Y151528D01*
X368210Y151570D01*
X368129Y151622D01*
X368046Y151684D01*
X367959Y151758D01*
X367860Y151854D01*
X367845Y151860D01*
X367233Y152269D01*
X366500Y152415D01*
X365767Y152269D01*
X365293Y151952D01*
X364975Y152011D01*
X364881Y152056D01*
X364758Y152150D01*
X364731Y152340D01*
X364742Y152358D01*
X364802Y152447D01*
X364873Y152535D01*
X364966Y152636D01*
X364986Y152688D01*
X373948Y161650D01*
X374000Y161670D01*
X374068Y161732D01*
X374129Y161781D01*
X374199Y161830D01*
X374273Y161874D01*
X374477Y161975D01*
X374576Y162015D01*
X374838Y162103D01*
X374983Y162143D01*
X375050Y162195D01*
X375233Y162231D01*
X375854Y162646D01*
X376269Y163267D01*
X376415Y164000D01*
X376269Y164733D01*
X376244Y164771D01*
X376632Y165089D01*
X381218Y160503D01*
X381155Y159860D01*
X381146Y159854D01*
X380731Y159233D01*
X380585Y158500D01*
X380731Y157767D01*
X381146Y157146D01*
X381767Y156731D01*
X382500Y156585D01*
X383233Y156731D01*
X383854Y157146D01*
X384269Y157767D01*
X384415Y158500D01*
X384269Y159233D01*
X383854Y159854D01*
X383472Y160109D01*
X383463Y160133D01*
X383395Y160161D01*
X383390Y160164D01*
X383373Y160185D01*
X383372Y160189D01*
X383365Y160197D01*
X383361Y160204D01*
X383361Y160204D01*
X383354Y160227D01*
X383348Y160264D01*
X383343Y160313D01*
X383341Y160391D01*
X383290Y160505D01*
X383254Y160687D01*
X383077Y160952D01*
X383022Y161006D01*
X383341Y161395D01*
X383563Y161246D01*
X383738Y161212D01*
X383849Y161159D01*
X383939Y161155D01*
X383999Y161146D01*
X384058Y161131D01*
X384117Y161109D01*
X384178Y161080D01*
X384240Y161043D01*
X384305Y160995D01*
X384372Y160937D01*
X384442Y160868D01*
X384525Y160773D01*
X384542Y160764D01*
X384550Y160746D01*
X384591Y160729D01*
X384646Y160646D01*
X385267Y160231D01*
X386000Y160085D01*
X386733Y160231D01*
X387354Y160646D01*
X387769Y161267D01*
X387915Y162000D01*
X387769Y162733D01*
X387354Y163354D01*
X386733Y163769D01*
X386000Y163915D01*
X385267Y163769D01*
X384646Y163354D01*
X384591Y163271D01*
X384550Y163254D01*
X384542Y163236D01*
X384525Y163227D01*
X384504Y163204D01*
X384199Y163131D01*
X383900Y163129D01*
X383430Y163599D01*
X383487Y163839D01*
X383633Y164102D01*
X384279Y164231D01*
X384900Y164646D01*
X385315Y165267D01*
X385461Y166000D01*
X385315Y166733D01*
X384900Y167354D01*
X384279Y167769D01*
X383546Y167915D01*
X382814Y167769D01*
X382311Y167433D01*
X382252Y167415D01*
X381800Y167569D01*
X378236Y171132D01*
X378483Y171593D01*
X378523Y171585D01*
X379255Y171731D01*
X379877Y172146D01*
X380292Y172767D01*
X380391Y173268D01*
X380891Y173219D01*
D02*
G37*
G36*
X394717Y169930D02*
X394715Y169921D01*
X394713Y169904D01*
X394710Y169852D01*
X394707Y169609D01*
X394107D01*
X394095Y169933D01*
X394719D01*
X394717Y169930D01*
D02*
G37*
G36*
X385244D02*
X385242Y169921D01*
X385241Y169904D01*
X385238Y169852D01*
X385235Y169609D01*
X384635D01*
X384623Y169933D01*
X385247D01*
X385244Y169930D01*
D02*
G37*
G36*
X382418Y165208D02*
X382339Y165320D01*
X381964Y165786D01*
X381744Y166032D01*
X381372Y166418D01*
X381646Y166993D01*
X381738Y166910D01*
X381832Y166846D01*
X381925Y166800D01*
X382019Y166772D01*
X382114Y166763D01*
X382209Y166773D01*
X382305Y166801D01*
X382401Y166848D01*
X382498Y166913D01*
X382595Y166997D01*
X382418Y165208D01*
D02*
G37*
G36*
X364700Y210528D02*
X364673Y210393D01*
X364673Y210393D01*
Y177386D01*
X364673Y177386D01*
X364735Y177074D01*
X364912Y176810D01*
X375589Y166132D01*
X375271Y165744D01*
X375233Y165769D01*
X374500Y165915D01*
X373767Y165769D01*
X373146Y165354D01*
X372731Y164733D01*
X372585Y164000D01*
X372662Y163614D01*
X372645Y163510D01*
X372672Y163395D01*
X372684Y163310D01*
X372688Y163236D01*
X372684Y163171D01*
X372674Y163113D01*
X372659Y163060D01*
X372638Y163010D01*
X372610Y162961D01*
X372573Y162910D01*
X372507Y162838D01*
X372489Y162787D01*
X372461Y162759D01*
X372437Y162740D01*
X372436Y162734D01*
X362882Y153180D01*
X362420Y153371D01*
Y208955D01*
X364239Y210774D01*
X364700Y210528D01*
D02*
G37*
G36*
X374812Y163750D02*
X374188D01*
X374190Y163755D01*
X374192Y163765D01*
X374194Y163779D01*
X374197Y163820D01*
X374200Y164000D01*
X374800D01*
X374812Y163750D01*
D02*
G37*
G36*
X374840Y162665D02*
X374681Y162621D01*
X374388Y162523D01*
X374254Y162469D01*
X374013Y162349D01*
X373905Y162284D01*
X373805Y162215D01*
X373715Y162143D01*
X373633Y162067D01*
X372909Y162474D01*
X372994Y162568D01*
X373065Y162667D01*
X373124Y162771D01*
X373170Y162879D01*
X373203Y162993D01*
X373223Y163111D01*
X373230Y163234D01*
X373223Y163362D01*
X373204Y163495D01*
X373172Y163633D01*
X374840Y162665D01*
D02*
G37*
G36*
X384933Y161128D02*
X384838Y161237D01*
X384741Y161334D01*
X384642Y161420D01*
X384539Y161494D01*
X384435Y161557D01*
X384328Y161609D01*
X384218Y161649D01*
X384106Y161677D01*
X383992Y161694D01*
X383875Y161700D01*
Y162300D01*
X383992Y162306D01*
X384106Y162323D01*
X384218Y162351D01*
X384328Y162391D01*
X384435Y162443D01*
X384539Y162506D01*
X384642Y162580D01*
X384741Y162666D01*
X384838Y162763D01*
X384933Y162872D01*
Y161128D01*
D02*
G37*
G36*
X382803Y160280D02*
X382811Y160192D01*
X382825Y160111D01*
X382845Y160037D01*
X382870Y159971D01*
X382901Y159912D01*
X382937Y159861D01*
X382979Y159817D01*
X383027Y159780D01*
X383080Y159750D01*
X381920D01*
X381973Y159780D01*
X382021Y159817D01*
X382063Y159861D01*
X382099Y159912D01*
X382130Y159971D01*
X382155Y160037D01*
X382175Y160111D01*
X382189Y160192D01*
X382197Y160280D01*
X382200Y160375D01*
X382800D01*
X382803Y160280D01*
D02*
G37*
G36*
X378028Y158721D02*
X378001Y158694D01*
X377977Y158657D01*
X377957Y158611D01*
X377939Y158556D01*
X377925Y158492D01*
X377914Y158419D01*
X377906Y158336D01*
X377900Y158144D01*
X377100D01*
X377098Y158245D01*
X377086Y158419D01*
X377075Y158492D01*
X377061Y158556D01*
X377043Y158611D01*
X377023Y158657D01*
X376999Y158694D01*
X376972Y158721D01*
X376942Y158740D01*
X378058D01*
X378028Y158721D01*
D02*
G37*
G36*
X364463Y152889D02*
X364367Y152769D01*
X364282Y152644D01*
X364208Y152515D01*
X364146Y152380D01*
X364095Y152241D01*
X364055Y152098D01*
X364027Y151949D01*
X364010Y151796D01*
X364004Y151639D01*
X363205Y150839D01*
X363199Y150985D01*
X363182Y151104D01*
X363154Y151196D01*
X363114Y151260D01*
X363063Y151297D01*
X363001Y151307D01*
X362927Y151290D01*
X362842Y151245D01*
X362746Y151173D01*
X362639Y151073D01*
X363604Y152604D01*
X364570Y153005D01*
X364463Y152889D01*
D02*
G37*
G36*
X396116Y151663D02*
X395833Y151039D01*
X395788Y150909D01*
X395727Y150679D01*
X395712Y150580D01*
X395707Y150491D01*
X395107Y150300D01*
X395100Y150416D01*
X395078Y150529D01*
X395041Y150637D01*
X394989Y150741D01*
X394923Y150841D01*
X394842Y150936D01*
X394746Y151028D01*
X394635Y151114D01*
X394510Y151197D01*
X394369Y151275D01*
X396212Y151845D01*
X396116Y151663D01*
D02*
G37*
G36*
X401338Y150665D02*
X401126Y150413D01*
X401039Y150291D01*
X400966Y150171D01*
X400906Y150054D01*
X400860Y149938D01*
X400827Y149825D01*
X400807Y149715D01*
X400800Y149606D01*
X400200D01*
X400193Y149715D01*
X400173Y149825D01*
X400140Y149938D01*
X400094Y150054D01*
X400034Y150171D01*
X399961Y150291D01*
X399874Y150413D01*
X399775Y150538D01*
X399662Y150665D01*
X399535Y150794D01*
X401465D01*
X401338Y150665D01*
D02*
G37*
G36*
X367595Y151357D02*
X367708Y151261D01*
X367821Y151177D01*
X367935Y151103D01*
X368051Y151041D01*
X368168Y150990D01*
X368285Y150951D01*
X368404Y150923D01*
X368524Y150906D01*
X368645Y150900D01*
Y150100D01*
X368524Y150094D01*
X368404Y150077D01*
X368285Y150049D01*
X368168Y150010D01*
X368051Y149959D01*
X367935Y149897D01*
X367821Y149823D01*
X367708Y149739D01*
X367595Y149643D01*
X367484Y149535D01*
Y151465D01*
X367595Y151357D01*
D02*
G37*
G36*
X361910Y151962D02*
X361927Y151877D01*
X361955Y151815D01*
X361995Y151777D01*
X362046Y151762D01*
X362108Y151770D01*
X362182Y151801D01*
X362266Y151856D01*
X362363Y151934D01*
X362470Y152036D01*
X362570Y151005D01*
X362463Y150889D01*
X362367Y150769D01*
X362282Y150644D01*
X362208Y150514D01*
X362146Y150380D01*
X362095Y150241D01*
X362055Y150098D01*
X362027Y149949D01*
X362010Y149796D01*
X362004Y149639D01*
X361205Y148839D01*
X361199Y148985D01*
X361182Y149104D01*
X361154Y149196D01*
X361114Y149260D01*
X361063Y149297D01*
X361001Y149307D01*
X360927Y149290D01*
X360842Y149245D01*
X360746Y149173D01*
X360639Y149073D01*
X360739Y150304D01*
X360846Y150418D01*
X360943Y150532D01*
X361027Y150647D01*
X361101Y150762D01*
X361163Y150879D01*
X361214Y150996D01*
X361254Y151113D01*
X361282Y151232D01*
X361299Y151350D01*
X361304Y151470D01*
X361905Y152070D01*
X361910Y151962D01*
D02*
G37*
G36*
X360463Y148889D02*
X360367Y148769D01*
X360282Y148644D01*
X360208Y148514D01*
X360146Y148380D01*
X360095Y148241D01*
X360055Y148098D01*
X360027Y147949D01*
X360010Y147796D01*
X360004Y147639D01*
X359205Y146839D01*
X359199Y146985D01*
X359182Y147104D01*
X359154Y147196D01*
X359114Y147260D01*
X359063Y147297D01*
X359001Y147307D01*
X358927Y147290D01*
X358842Y147245D01*
X358746Y147173D01*
X358639Y147073D01*
X359605Y148605D01*
X360570Y149004D01*
X360463Y148889D01*
D02*
G37*
G36*
X358463Y146889D02*
X358366Y146769D01*
X358282Y146644D01*
X358208Y146514D01*
X358146Y146380D01*
X358095Y146241D01*
X358055Y146098D01*
X358027Y145949D01*
X358010Y145797D01*
X358004Y145639D01*
X357205Y144839D01*
X357199Y144985D01*
X357182Y145104D01*
X357154Y145196D01*
X357114Y145260D01*
X357063Y145297D01*
X357001Y145307D01*
X356927Y145290D01*
X356842Y145245D01*
X356746Y145173D01*
X356639Y145073D01*
X357605Y146605D01*
X358570Y147004D01*
X358463Y146889D01*
D02*
G37*
G36*
X431000Y191713D02*
Y145000D01*
X430290Y144290D01*
X429829Y144482D01*
Y190748D01*
X429853Y190798D01*
X429858Y190875D01*
X429867Y190926D01*
X429884Y190986D01*
X429912Y191056D01*
X429952Y191135D01*
X430005Y191222D01*
X430067Y191312D01*
X430252Y191533D01*
X430364Y191650D01*
X430374Y191677D01*
X430500Y191865D01*
X431000Y191713D01*
D02*
G37*
G36*
X364008Y141581D02*
X364034Y141325D01*
X364057Y141221D01*
X364086Y141133D01*
X364122Y141061D01*
X364164Y141005D01*
X364213Y140965D01*
X364268Y140941D01*
X364330Y140933D01*
X362879D01*
X362941Y140941D01*
X362996Y140965D01*
X363045Y141005D01*
X363087Y141061D01*
X363123Y141133D01*
X363152Y141221D01*
X363175Y141325D01*
X363192Y141445D01*
X363201Y141581D01*
X363205Y141733D01*
X364004D01*
X364008Y141581D01*
D02*
G37*
G36*
X362008D02*
X362034Y141325D01*
X362057Y141221D01*
X362086Y141133D01*
X362122Y141061D01*
X362164Y141005D01*
X362213Y140965D01*
X362268Y140941D01*
X362330Y140933D01*
X360879D01*
X360941Y140941D01*
X360996Y140965D01*
X361045Y141005D01*
X361087Y141061D01*
X361123Y141133D01*
X361152Y141221D01*
X361175Y141325D01*
X361192Y141445D01*
X361201Y141581D01*
X361205Y141733D01*
X362004D01*
X362008Y141581D01*
D02*
G37*
G36*
X360008D02*
X360034Y141325D01*
X360057Y141221D01*
X360086Y141133D01*
X360122Y141061D01*
X360164Y141005D01*
X360213Y140965D01*
X360268Y140941D01*
X360330Y140933D01*
X358879D01*
X358941Y140941D01*
X358996Y140965D01*
X359045Y141005D01*
X359087Y141061D01*
X359123Y141133D01*
X359152Y141221D01*
X359175Y141325D01*
X359191Y141445D01*
X359201Y141581D01*
X359205Y141733D01*
X360004D01*
X360008Y141581D01*
D02*
G37*
G36*
X358008D02*
X358034Y141325D01*
X358057Y141221D01*
X358086Y141133D01*
X358122Y141061D01*
X358164Y141005D01*
X358213Y140965D01*
X358268Y140941D01*
X358330Y140933D01*
X356879D01*
X356941Y140941D01*
X356996Y140965D01*
X357045Y141005D01*
X357087Y141061D01*
X357123Y141133D01*
X357152Y141221D01*
X357175Y141325D01*
X357191Y141445D01*
X357201Y141581D01*
X357205Y141733D01*
X358004D01*
X358008Y141581D01*
D02*
G37*
G36*
X356136D02*
X356162Y141325D01*
X356185Y141221D01*
X356214Y141133D01*
X356250Y141061D01*
X356292Y141005D01*
X356341Y140965D01*
X356397Y140941D01*
X356458Y140933D01*
X355007D01*
X355069Y140941D01*
X355125Y140965D01*
X355173Y141005D01*
X355216Y141061D01*
X355252Y141133D01*
X355281Y141221D01*
X355304Y141325D01*
X355320Y141445D01*
X355330Y141581D01*
X355333Y141733D01*
X356133D01*
X356136Y141581D01*
D02*
G37*
G36*
X429316Y141417D02*
X429325Y141313D01*
X429340Y141221D01*
X429361Y141141D01*
X429388Y141074D01*
X429421Y141019D01*
X429460Y140976D01*
X429505Y140945D01*
X429556Y140927D01*
X429613Y140921D01*
X428413D01*
X428470Y140927D01*
X428521Y140945D01*
X428566Y140976D01*
X428605Y141019D01*
X428638Y141074D01*
X428665Y141141D01*
X428686Y141221D01*
X428701Y141313D01*
X428710Y141417D01*
X428713Y141533D01*
X429313D01*
X429316Y141417D01*
D02*
G37*
G36*
X427339D02*
X427348Y141313D01*
X427363Y141221D01*
X427384Y141141D01*
X427411Y141074D01*
X427444Y141019D01*
X427483Y140976D01*
X427528Y140945D01*
X427579Y140927D01*
X427636Y140921D01*
X426436D01*
X426493Y140927D01*
X426544Y140945D01*
X426589Y140976D01*
X426628Y141019D01*
X426661Y141074D01*
X426688Y141141D01*
X426709Y141221D01*
X426724Y141313D01*
X426733Y141417D01*
X426736Y141533D01*
X427336D01*
X427339Y141417D01*
D02*
G37*
G36*
X425362D02*
X425371Y141313D01*
X425386Y141221D01*
X425407Y141141D01*
X425434Y141074D01*
X425467Y141019D01*
X425506Y140976D01*
X425551Y140945D01*
X425602Y140927D01*
X425659Y140921D01*
X424459D01*
X424516Y140927D01*
X424567Y140945D01*
X424612Y140976D01*
X424651Y141019D01*
X424684Y141074D01*
X424711Y141141D01*
X424732Y141221D01*
X424747Y141313D01*
X424756Y141417D01*
X424759Y141533D01*
X425359D01*
X425362Y141417D01*
D02*
G37*
G36*
X423385D02*
X423394Y141313D01*
X423409Y141221D01*
X423430Y141141D01*
X423457Y141074D01*
X423490Y141019D01*
X423529Y140976D01*
X423574Y140945D01*
X423625Y140927D01*
X423682Y140921D01*
X422482D01*
X422539Y140927D01*
X422590Y140945D01*
X422635Y140976D01*
X422674Y141019D01*
X422707Y141074D01*
X422734Y141141D01*
X422755Y141221D01*
X422770Y141313D01*
X422779Y141417D01*
X422782Y141533D01*
X423382D01*
X423385Y141417D01*
D02*
G37*
G36*
X421409D02*
X421418Y141313D01*
X421433Y141221D01*
X421454Y141141D01*
X421481Y141074D01*
X421514Y141019D01*
X421553Y140976D01*
X421598Y140945D01*
X421649Y140927D01*
X421706Y140921D01*
X420506D01*
X420563Y140927D01*
X420614Y140945D01*
X420659Y140976D01*
X420698Y141019D01*
X420731Y141074D01*
X420758Y141141D01*
X420779Y141221D01*
X420794Y141313D01*
X420803Y141417D01*
X420806Y141533D01*
X421406D01*
X421409Y141417D01*
D02*
G37*
G36*
X419432D02*
X419441Y141313D01*
X419456Y141221D01*
X419477Y141141D01*
X419504Y141074D01*
X419537Y141019D01*
X419576Y140976D01*
X419621Y140945D01*
X419672Y140927D01*
X419729Y140921D01*
X418529D01*
X418586Y140927D01*
X418637Y140945D01*
X418682Y140976D01*
X418721Y141019D01*
X418754Y141074D01*
X418781Y141141D01*
X418802Y141221D01*
X418817Y141313D01*
X418826Y141417D01*
X418829Y141533D01*
X419429D01*
X419432Y141417D01*
D02*
G37*
G36*
X417455D02*
X417464Y141313D01*
X417479Y141221D01*
X417500Y141141D01*
X417527Y141074D01*
X417560Y141019D01*
X417599Y140976D01*
X417644Y140945D01*
X417695Y140927D01*
X417752Y140921D01*
X416552D01*
X416609Y140927D01*
X416660Y140945D01*
X416705Y140976D01*
X416744Y141019D01*
X416777Y141074D01*
X416804Y141141D01*
X416825Y141221D01*
X416840Y141313D01*
X416849Y141417D01*
X416852Y141533D01*
X417452D01*
X417455Y141417D01*
D02*
G37*
G36*
X397687D02*
X397696Y141313D01*
X397711Y141221D01*
X397732Y141141D01*
X397759Y141074D01*
X397792Y141019D01*
X397831Y140976D01*
X397876Y140945D01*
X397927Y140927D01*
X397984Y140921D01*
X396784D01*
X396841Y140927D01*
X396892Y140945D01*
X396937Y140976D01*
X396976Y141019D01*
X397009Y141074D01*
X397036Y141141D01*
X397057Y141221D01*
X397072Y141313D01*
X397081Y141417D01*
X397084Y141533D01*
X397684D01*
X397687Y141417D01*
D02*
G37*
G36*
X395710D02*
X395719Y141313D01*
X395734Y141221D01*
X395755Y141141D01*
X395782Y141074D01*
X395815Y141019D01*
X395854Y140976D01*
X395899Y140945D01*
X395950Y140927D01*
X396007Y140921D01*
X394807D01*
X394864Y140927D01*
X394915Y140945D01*
X394960Y140976D01*
X394999Y141019D01*
X395032Y141074D01*
X395059Y141141D01*
X395080Y141221D01*
X395095Y141313D01*
X395104Y141417D01*
X395107Y141533D01*
X395707D01*
X395710Y141417D01*
D02*
G37*
G36*
X391757D02*
X391766Y141313D01*
X391781Y141221D01*
X391802Y141141D01*
X391829Y141074D01*
X391862Y141019D01*
X391901Y140976D01*
X391946Y140945D01*
X391997Y140927D01*
X392054Y140921D01*
X390854D01*
X390911Y140927D01*
X390962Y140945D01*
X391007Y140976D01*
X391046Y141019D01*
X391079Y141074D01*
X391106Y141141D01*
X391127Y141221D01*
X391142Y141313D01*
X391151Y141417D01*
X391154Y141533D01*
X391754D01*
X391757Y141417D01*
D02*
G37*
G36*
X389780D02*
X389789Y141313D01*
X389804Y141221D01*
X389825Y141141D01*
X389852Y141074D01*
X389885Y141019D01*
X389924Y140976D01*
X389969Y140945D01*
X390020Y140927D01*
X390077Y140921D01*
X388877D01*
X388934Y140927D01*
X388985Y140945D01*
X389030Y140976D01*
X389069Y141019D01*
X389102Y141074D01*
X389129Y141141D01*
X389150Y141221D01*
X389165Y141313D01*
X389174Y141417D01*
X389177Y141533D01*
X389777D01*
X389780Y141417D01*
D02*
G37*
D13*
X394407Y183866D02*
D03*
Y172134D02*
D03*
X384935D02*
D03*
Y183866D02*
D03*
X373528Y309866D02*
D03*
Y298134D02*
D03*
X389028Y309866D02*
D03*
Y298134D02*
D03*
D14*
X389963Y207864D02*
D03*
X391355Y209256D02*
D03*
X368528Y223733D02*
D03*
X369919Y225125D02*
D03*
X371311Y226517D02*
D03*
X372703Y227908D02*
D03*
X374095Y229300D02*
D03*
X375487Y230692D02*
D03*
X376879Y232084D02*
D03*
X378271Y233476D02*
D03*
X379663Y234868D02*
D03*
X381055Y236260D02*
D03*
X382447Y237652D02*
D03*
X401099Y219000D02*
D03*
X399707Y217608D02*
D03*
X398315Y216216D02*
D03*
X396923Y214824D02*
D03*
X395531Y213432D02*
D03*
X394139Y212040D02*
D03*
X392747Y210648D02*
D03*
X388571Y206473D02*
D03*
X387179Y205081D02*
D03*
D15*
X382447Y205081D02*
D03*
X381055Y206472D02*
D03*
X379663Y207864D02*
D03*
X378271Y209256D02*
D03*
X376879Y210648D02*
D03*
X375487Y212040D02*
D03*
X374095Y213432D02*
D03*
X372703Y214824D02*
D03*
X371311Y216216D02*
D03*
X369919Y217608D02*
D03*
X368528Y219000D02*
D03*
X387179Y237652D02*
D03*
X388571Y236260D02*
D03*
X389963Y234868D02*
D03*
X391355Y233476D02*
D03*
X392747Y232084D02*
D03*
X394139Y230692D02*
D03*
X395531Y229300D02*
D03*
X396923Y227908D02*
D03*
X398315Y226517D02*
D03*
X399707Y225125D02*
D03*
X401099Y223733D02*
D03*
D16*
X384813Y221366D02*
D03*
D17*
X389094Y275500D02*
D03*
X373661D02*
D03*
D18*
X395407Y137500D02*
D03*
X429013D02*
D03*
X415175D02*
D03*
X427036D02*
D03*
X425059D02*
D03*
X423082D02*
D03*
X421106D02*
D03*
X419129D02*
D03*
X417152D02*
D03*
X413198D02*
D03*
X411222D02*
D03*
X409245D02*
D03*
X407268D02*
D03*
X405291D02*
D03*
X403314D02*
D03*
X401338D02*
D03*
X399361D02*
D03*
X397384D02*
D03*
X393430D02*
D03*
X391454D02*
D03*
X389477D02*
D03*
X387500D02*
D03*
X385523D02*
D03*
X383546D02*
D03*
X381570D02*
D03*
X379593D02*
D03*
X377616D02*
D03*
X375639D02*
D03*
D19*
X373675D02*
D03*
X363604D02*
D03*
X355733D02*
D03*
X361604D02*
D03*
X359605D02*
D03*
X357605D02*
D03*
D20*
X411852Y246148D02*
D03*
X420148Y237852D02*
D03*
D30*
X385620Y196549D02*
X386503Y197432D01*
X356000Y257500D02*
X361000Y262500D01*
X356000Y240500D02*
Y257500D01*
Y240500D02*
X357605Y238896D01*
X359500Y244000D02*
X360500D01*
X404500Y237852D02*
X411852Y245204D01*
X370000Y267500D02*
X373139D01*
X364500Y273000D02*
X370000Y267500D01*
X364500Y273000D02*
Y302728D01*
X357605Y221612D02*
Y238896D01*
Y221612D02*
X361500Y217716D01*
X361000Y262500D02*
X369523D01*
X379000Y238315D02*
Y253023D01*
X369523Y262500D02*
X379000Y253023D01*
Y238315D02*
X381055Y236260D01*
X360500Y244000D02*
X369000Y235500D01*
Y234396D02*
Y235500D01*
Y234396D02*
X374095Y229300D01*
X372000Y234179D02*
Y237500D01*
X389963Y207864D02*
X391967Y205861D01*
Y197967D02*
Y205861D01*
X393567Y197304D02*
Y207045D01*
X391355Y209256D02*
X393567Y207045D01*
X379000Y197049D02*
Y204418D01*
X381055Y206472D01*
X361604Y150604D02*
Y209293D01*
X398000Y197000D02*
X404000D01*
X402500Y202000D02*
Y203914D01*
X394139Y212040D02*
X402500Y203914D01*
X405500Y198500D02*
Y203463D01*
X404000Y197000D02*
X405500Y198500D01*
X395531Y213432D02*
X405500Y203463D01*
X392852Y210648D02*
X395320Y208180D01*
Y195798D02*
Y208180D01*
Y195798D02*
X398118Y193000D01*
X386503Y197432D02*
X390544Y201473D01*
X386503Y197432D02*
X387000Y196935D01*
X382447Y201488D02*
X386503Y197432D01*
X387000Y196549D02*
Y196935D01*
X385620Y196549D02*
X387000D01*
X398315Y226517D02*
X406799Y235000D01*
X409000D01*
X371639Y309866D02*
X373528D01*
X364500Y302728D02*
X371639Y309866D01*
X373139Y267500D02*
X382447Y258192D01*
Y237652D02*
Y258192D01*
X395407Y137500D02*
Y152093D01*
X395000Y152500D02*
X395407Y152093D01*
X397384Y137500D02*
Y146384D01*
X400500Y149500D01*
Y151778D01*
X371056Y185944D02*
X379000Y178000D01*
X374500Y163500D02*
Y164000D01*
X365489Y177386D02*
X382500Y160375D01*
Y158500D02*
Y160375D01*
X361000Y239000D02*
X361612D01*
X372703Y227908D01*
X374500Y234868D02*
X376879Y232489D01*
Y232084D02*
Y232489D01*
X372000Y234179D02*
X375487Y230692D01*
X374500Y234868D02*
Y243473D01*
X373528Y309866D02*
X389028D01*
X366000Y243500D02*
X372000Y237500D01*
X361500Y217716D02*
Y218716D01*
X362784Y220000D01*
X367528D02*
X368528Y219000D01*
X362784Y220000D02*
X367528D01*
X361604Y209293D02*
X369919Y217608D01*
X373840Y193683D02*
X378523Y189000D01*
X372448Y190040D02*
X378523Y183965D01*
X372448Y190040D02*
Y203434D01*
X371056Y185944D02*
Y204826D01*
X369664Y182358D02*
Y206218D01*
X428013Y193000D02*
X429013Y192000D01*
X369500Y257701D02*
X377500Y249701D01*
Y237031D02*
Y249701D01*
Y237031D02*
X379663Y234868D01*
X369500Y252451D02*
X376000Y245951D01*
Y235747D02*
Y245951D01*
Y235747D02*
X378271Y233476D01*
X370473Y247500D02*
X374500Y243473D01*
X364500Y247500D02*
X370473D01*
X361000Y234000D02*
X363999D01*
X364046Y233953D01*
X366044Y229000D02*
X369919Y225125D01*
X361200Y229000D02*
X366044D01*
X367760Y224500D02*
X368528Y223733D01*
X362299Y224500D02*
X367760D01*
X364046Y233953D02*
X371311Y226517D01*
X405000Y227634D02*
X408712D01*
X401099Y223733D02*
X405000Y227634D01*
X369664Y182358D02*
X378523Y173500D01*
X382215Y166000D02*
X383546D01*
X368272Y179943D02*
X382215Y166000D01*
X383875Y162000D02*
X386000D01*
X366880Y178995D02*
X383875Y162000D01*
X366880Y178995D02*
Y209001D01*
X365489Y177386D02*
Y210393D01*
X378523Y183500D02*
Y183965D01*
X373840Y193683D02*
Y202042D01*
X368272Y179943D02*
Y207610D01*
X365489Y210393D02*
X371311Y216216D01*
X366880Y209001D02*
X372703Y214824D01*
X368272Y207610D02*
X374095Y213432D01*
X373840Y202042D02*
X379663Y207864D01*
X372448Y203434D02*
X378271Y209256D01*
X371056Y204826D02*
X376879Y210648D01*
X369664Y206218D02*
X375487Y212040D01*
X390544Y201473D02*
Y204500D01*
X388571Y206473D02*
X390544Y204500D01*
X382447Y201488D02*
Y205081D01*
X391000Y238689D02*
Y243000D01*
X389028Y244972D02*
X391000Y243000D01*
X389028Y244972D02*
Y250000D01*
X388571Y236260D02*
X391000Y238689D01*
X415000Y209500D02*
Y232704D01*
X420148Y237852D01*
X396923Y227908D02*
X404500Y235485D01*
Y237852D01*
X411852Y245204D02*
Y246148D01*
X420148Y237148D02*
Y237852D01*
X385235Y184166D02*
Y191235D01*
X391355Y208832D02*
Y209256D01*
X384935Y183866D02*
X385235Y184166D01*
X394407Y183866D02*
Y186391D01*
X391131Y189666D02*
X394407Y186391D01*
X391131Y189666D02*
Y194869D01*
X393567Y197304D01*
X385235Y191235D02*
X391967Y197967D01*
X398118Y248500D02*
X399361Y247257D01*
X397000Y239121D02*
Y244000D01*
X386500Y236989D02*
X387179Y237668D01*
X386500Y236989D02*
Y244000D01*
X421600Y187658D02*
Y188000D01*
Y187658D02*
X425059Y184199D01*
X387179Y237652D02*
Y237668D01*
X394139Y239000D02*
Y244328D01*
X391967Y246500D02*
X394139Y244328D01*
X389963Y234868D02*
X390007D01*
X394139Y239000D01*
X391355Y233476D02*
X397000Y239121D01*
X399361Y238736D02*
Y247257D01*
X397500Y236875D02*
X399361Y238736D01*
X397500Y236837D02*
Y236875D01*
X392747Y232084D02*
X397500Y236837D01*
X424041Y191918D02*
X427036Y188923D01*
Y137500D02*
Y188923D01*
X428013Y193000D02*
X429000D01*
X392747Y210648D02*
X392852D01*
X429013Y137500D02*
Y192000D01*
X425059Y137500D02*
Y184199D01*
X362299Y257701D02*
X369500D01*
X363549Y252451D02*
X369500D01*
X416000Y188387D02*
Y204099D01*
Y188387D02*
X423082Y181305D01*
X401099Y219000D02*
X416000Y204099D01*
X399707Y217608D02*
X414023Y203292D01*
Y187568D02*
Y203292D01*
X398315Y216216D02*
X412046Y202485D01*
Y186749D02*
Y202485D01*
X396923Y214824D02*
X410070Y201678D01*
Y185930D02*
Y201678D01*
X423082Y137500D02*
Y181305D01*
X414023Y187568D02*
X421106Y180486D01*
Y137500D02*
Y180486D01*
X412046Y186749D02*
X419129Y179667D01*
Y137500D02*
Y179667D01*
X410070Y185930D02*
X417152Y178848D01*
Y137500D02*
Y178848D01*
X389028Y275566D02*
X389094Y275500D01*
X389028Y275566D02*
Y298134D01*
X382177Y268583D02*
X389094Y275500D01*
X382177Y265000D02*
Y268583D01*
X373661Y275500D02*
X380577Y268583D01*
Y264337D02*
Y268583D01*
X373528Y275633D02*
Y298134D01*
Y275633D02*
X373661Y275500D01*
X395531Y229300D02*
X402699Y236468D01*
X394139Y230692D02*
X401099Y237652D01*
Y258801D01*
X402699Y236468D02*
Y259464D01*
X399663Y262500D02*
X402699Y259464D01*
X384677Y262500D02*
X399663D01*
X399000Y260900D02*
X401099Y258801D01*
X384015Y260900D02*
X399000D01*
X380577Y264337D02*
X384015Y260900D01*
X382177Y265000D02*
X384677Y262500D01*
X391454Y137500D02*
Y166656D01*
X394407Y169609D01*
Y172134D01*
X389477Y137500D02*
Y165067D01*
X384935Y169609D02*
X389477Y165067D01*
X384935Y169609D02*
Y172134D01*
D31*
X379000Y197049D02*
X379840Y196209D01*
X376549Y199500D02*
X379000Y197049D01*
X359605Y148605D02*
X361604Y150604D01*
X357605Y146605D02*
X359605Y148605D01*
Y137500D02*
Y148605D01*
X355733Y144733D02*
X357605Y146605D01*
X355733Y137500D02*
Y144733D01*
X361604Y137500D02*
Y150604D01*
X363604Y152604D01*
X357605Y137500D02*
Y146605D01*
X369856Y150500D02*
X377500Y158144D01*
X366500Y150500D02*
X369856D01*
X377500Y158144D02*
Y160000D01*
X363604Y152604D02*
X374500Y163500D01*
X379840Y194660D02*
Y196209D01*
X363604Y137500D02*
Y152604D01*
X379840Y194660D02*
X381500Y193000D01*
D32*
X359500Y244000D02*
D03*
X398000Y197000D02*
D03*
X402500Y202000D02*
D03*
X398262Y192778D02*
D03*
X382000Y193000D02*
D03*
X387000Y196549D02*
D03*
X409000Y235000D02*
D03*
X406500Y240000D02*
D03*
X382447Y258192D02*
D03*
X395000Y152500D02*
D03*
X400500Y151778D02*
D03*
X377500Y160000D02*
D03*
X374500Y164000D02*
D03*
X361000Y239000D02*
D03*
X366000Y243500D02*
D03*
X361500Y217716D02*
D03*
X376549Y199500D02*
D03*
X366500Y150500D02*
D03*
X378523Y189000D02*
D03*
X361000Y234000D02*
D03*
X360500Y229000D02*
D03*
X362299Y224500D02*
D03*
X408712Y227634D02*
D03*
X383546Y166000D02*
D03*
X378523Y173500D02*
D03*
Y178542D02*
D03*
Y183500D02*
D03*
X382500Y158500D02*
D03*
X386000Y162000D02*
D03*
X415000Y209500D02*
D03*
X421600Y188000D02*
D03*
X386500Y244000D02*
D03*
X389028Y250000D02*
D03*
X391967Y246500D02*
D03*
X396923Y244000D02*
D03*
X398315Y248500D02*
D03*
X424041Y191918D02*
D03*
X429000Y193000D02*
D03*
X364500Y247500D02*
D03*
X363549Y252451D02*
D03*
X362299Y257701D02*
D03*
M02*
