G04*
G04 #@! TF.GenerationSoftware,Altium Limited,Altium Designer,18.1.8 (232)*
G04*
G04 Layer_Color=255*
%FSLAX25Y25*%
%MOIN*%
G70*
G01*
G75*
%ADD13R,0.07087X0.04449*%
G04:AMPARAMS|DCode=14|XSize=11.02mil|YSize=43.31mil|CornerRadius=2.76mil|HoleSize=0mil|Usage=FLASHONLY|Rotation=225.000|XOffset=0mil|YOffset=0mil|HoleType=Round|Shape=RoundedRectangle|*
%AMROUNDEDRECTD14*
21,1,0.01102,0.03780,0,0,225.0*
21,1,0.00551,0.04331,0,0,225.0*
1,1,0.00551,-0.01531,0.01141*
1,1,0.00551,-0.01141,0.01531*
1,1,0.00551,0.01531,-0.01141*
1,1,0.00551,0.01141,-0.01531*
%
%ADD14ROUNDEDRECTD14*%
G04:AMPARAMS|DCode=15|XSize=11.02mil|YSize=43.31mil|CornerRadius=2.76mil|HoleSize=0mil|Usage=FLASHONLY|Rotation=135.000|XOffset=0mil|YOffset=0mil|HoleType=Round|Shape=RoundedRectangle|*
%AMROUNDEDRECTD15*
21,1,0.01102,0.03780,0,0,135.0*
21,1,0.00551,0.04331,0,0,135.0*
1,1,0.00551,0.01141,0.01531*
1,1,0.00551,0.01531,0.01141*
1,1,0.00551,-0.01141,-0.01531*
1,1,0.00551,-0.01531,-0.01141*
%
%ADD15ROUNDEDRECTD15*%
%ADD16P,0.28952X4X90.0*%
%ADD17R,0.06693X0.09449*%
%ADD18R,0.01450X0.06890*%
%ADD19R,0.01475X0.06890*%
G04:AMPARAMS|DCode=20|XSize=44.49mil|YSize=70.87mil|CornerRadius=0mil|HoleSize=0mil|Usage=FLASHONLY|Rotation=315.000|XOffset=0mil|YOffset=0mil|HoleType=Round|Shape=Rectangle|*
%AMROTATEDRECTD20*
4,1,4,-0.04078,-0.00933,0.00933,0.04078,0.04078,0.00933,-0.00933,-0.04078,-0.04078,-0.00933,0.0*
%
%ADD20ROTATEDRECTD20*%

D13*
X394407Y183866D02*
D03*
Y172134D02*
D03*
X384935D02*
D03*
Y183866D02*
D03*
X373528Y309866D02*
D03*
Y298134D02*
D03*
X389028Y309866D02*
D03*
Y298134D02*
D03*
D14*
X389963Y207864D02*
D03*
X391355Y209256D02*
D03*
X368528Y223733D02*
D03*
X369919Y225125D02*
D03*
X371311Y226517D02*
D03*
X372703Y227908D02*
D03*
X374095Y229300D02*
D03*
X375487Y230692D02*
D03*
X376879Y232084D02*
D03*
X378271Y233476D02*
D03*
X379663Y234868D02*
D03*
X381055Y236260D02*
D03*
X382447Y237652D02*
D03*
X401099Y219000D02*
D03*
X399707Y217608D02*
D03*
X398315Y216216D02*
D03*
X396923Y214824D02*
D03*
X395531Y213432D02*
D03*
X394139Y212040D02*
D03*
X392747Y210648D02*
D03*
X388571Y206473D02*
D03*
X387179Y205081D02*
D03*
D15*
X382447Y205081D02*
D03*
X381055Y206472D02*
D03*
X379663Y207864D02*
D03*
X378271Y209256D02*
D03*
X376879Y210648D02*
D03*
X375487Y212040D02*
D03*
X374095Y213432D02*
D03*
X372703Y214824D02*
D03*
X371311Y216216D02*
D03*
X369919Y217608D02*
D03*
X368528Y219000D02*
D03*
X387179Y237652D02*
D03*
X388571Y236260D02*
D03*
X389963Y234868D02*
D03*
X391355Y233476D02*
D03*
X392747Y232084D02*
D03*
X394139Y230692D02*
D03*
X395531Y229300D02*
D03*
X396923Y227908D02*
D03*
X398315Y226517D02*
D03*
X399707Y225125D02*
D03*
X401099Y223733D02*
D03*
D16*
X384813Y221366D02*
D03*
D17*
X389094Y275500D02*
D03*
X373661D02*
D03*
D18*
X395407Y137500D02*
D03*
X429013D02*
D03*
X415175D02*
D03*
X427036D02*
D03*
X425059D02*
D03*
X423082D02*
D03*
X421106D02*
D03*
X419129D02*
D03*
X417152D02*
D03*
X413198D02*
D03*
X411222D02*
D03*
X409245D02*
D03*
X407268D02*
D03*
X405291D02*
D03*
X403314D02*
D03*
X401338D02*
D03*
X399361D02*
D03*
X397384D02*
D03*
X393430D02*
D03*
X391454D02*
D03*
X389477D02*
D03*
X387500D02*
D03*
X385523D02*
D03*
X383546D02*
D03*
X381570D02*
D03*
X379593D02*
D03*
X377616D02*
D03*
X375639D02*
D03*
D19*
X373675D02*
D03*
X363604D02*
D03*
X355733D02*
D03*
X361604D02*
D03*
X359605D02*
D03*
X357605D02*
D03*
D20*
X411852Y246148D02*
D03*
X420148Y237852D02*
D03*
M02*
