M48
;Layer_Color=9474304
;FILE_FORMAT=2:5
INCH,TZ
;TYPE=PLATED
T1F00S00C0.01575
%
T01
X366500Y150500
X395000Y152500
X400500Y151778
X382500Y158500
X377500Y160000
X374500Y164000
X383546Y166000
X386000Y162000
X378523Y173500
Y178542
Y183500
Y189000
X382000Y193000
X387000Y196549
X398000Y197000
X398262Y192778
X402500Y202000
X415000Y209500
X408712Y227634
X409000Y235000
X406500Y240000
X396923Y244000
X398315Y248500
X391967Y246500
X389028Y250000
X386500Y244000
X382447Y258192
X362299Y257701
X363549Y252451
X364500Y247500
X366000Y243500
X359500Y244000
X361000Y239000
Y234000
X360500Y229000
X362299Y224500
X361500Y217716
X376549Y199500
X424041Y191918
X429000Y193000
X421600Y188000
M30
