G04*
G04 #@! TF.GenerationSoftware,Altium Limited,Altium Designer,18.1.8 (232)*
G04*
G04 Layer_Color=2752767*
%FSLAX25Y25*%
%MOIN*%
G70*
G01*
G75*
%ADD10C,0.00500*%
%ADD11C,0.00394*%
%ADD12C,0.00200*%
D10*
X384499Y369169D02*
G03*
X401501Y369109I8501J-30D01*
G01*
X370841Y143571D02*
G03*
X365921Y143521I-2460J-28D01*
G01*
X401501Y369109D02*
X412158Y369071D01*
X373133Y369210D02*
X384499Y369169D01*
X412158Y369071D02*
X431671Y369001D01*
X412158Y369071D02*
X412158Y369071D01*
X353621Y369279D02*
X373133Y369209D01*
X373133Y369210D01*
X365921Y133071D02*
Y143521D01*
X370841Y133071D02*
X431671D01*
X370841D02*
Y143571D01*
X353621Y133071D02*
X365921D01*
X353621Y369281D02*
X353621Y133071D01*
X431671Y369000D02*
X431671Y133071D01*
D11*
X370841Y143571D02*
G03*
X365921Y143521I-2461J39D01*
G01*
X353621Y133071D02*
Y148821D01*
X365921Y133071D02*
Y143521D01*
X353621Y133071D02*
X365921D01*
X370841D02*
Y143571D01*
Y133071D02*
X431671D01*
Y148821D01*
D12*
X358700Y243200D02*
Y244800D01*
X360300D01*
Y243200D01*
X358700D01*
X397200Y196200D02*
Y197800D01*
X398800D01*
Y196200D01*
X397200D01*
X401700Y201200D02*
Y202800D01*
X403300D01*
Y201200D01*
X401700D01*
X397462Y191978D02*
Y193578D01*
X399062D01*
Y191978D01*
X397462D01*
X381200Y192200D02*
Y193800D01*
X382800D01*
Y192200D01*
X381200D01*
X386200Y195749D02*
Y197349D01*
X387800D01*
Y195749D01*
X386200D01*
X408200Y234200D02*
Y235800D01*
X409800D01*
Y234200D01*
X408200D01*
X405700Y239200D02*
Y240800D01*
X407300D01*
Y239200D01*
X405700D01*
X381647Y257392D02*
Y258992D01*
X383247D01*
Y257392D01*
X381647D01*
X394200Y151700D02*
Y153300D01*
X395800D01*
Y151700D01*
X394200D01*
X399700Y150978D02*
Y152578D01*
X401300D01*
Y150978D01*
X399700D01*
X376700Y159200D02*
Y160800D01*
X378300D01*
Y159200D01*
X376700D01*
X373700Y163200D02*
Y164800D01*
X375300D01*
Y163200D01*
X373700D01*
X360200Y238200D02*
Y239800D01*
X361800D01*
Y238200D01*
X360200D01*
X365200Y242700D02*
Y244300D01*
X366800D01*
Y242700D01*
X365200D01*
X360700Y216916D02*
Y218516D01*
X362300D01*
Y216916D01*
X360700D01*
X375749Y198700D02*
Y200300D01*
X377349D01*
Y198700D01*
X375749D01*
X365700Y149700D02*
Y151300D01*
X367300D01*
Y149700D01*
X365700D01*
X377723Y188200D02*
Y189800D01*
X379323D01*
Y188200D01*
X377723D01*
X360200Y233200D02*
Y234800D01*
X361800D01*
Y233200D01*
X360200D01*
X359700Y228200D02*
Y229800D01*
X361300D01*
Y228200D01*
X359700D01*
X361499Y223700D02*
Y225300D01*
X363099D01*
Y223700D01*
X361499D01*
X407912Y226834D02*
Y228434D01*
X409512D01*
Y226834D01*
X407912D01*
X382746Y165200D02*
Y166800D01*
X384346D01*
Y165200D01*
X382746D01*
X377723Y172700D02*
Y174300D01*
X379323D01*
Y172700D01*
X377723D01*
Y177742D02*
Y179342D01*
X379323D01*
Y177742D01*
X377723D01*
Y182700D02*
Y184300D01*
X379323D01*
Y182700D01*
X377723D01*
X381700Y157700D02*
Y159300D01*
X383300D01*
Y157700D01*
X381700D01*
X385200Y161200D02*
Y162800D01*
X386800D01*
Y161200D01*
X385200D01*
X414200Y208700D02*
Y210300D01*
X415800D01*
Y208700D01*
X414200D01*
X420800Y187200D02*
Y188800D01*
X422400D01*
Y187200D01*
X420800D01*
X385700Y243200D02*
Y244800D01*
X387300D01*
Y243200D01*
X385700D01*
X388228Y249200D02*
Y250800D01*
X389827D01*
Y249200D01*
X388228D01*
X391167Y245700D02*
Y247300D01*
X392767D01*
Y245700D01*
X391167D01*
X396123Y243200D02*
Y244800D01*
X397723D01*
Y243200D01*
X396123D01*
X397515Y247700D02*
Y249300D01*
X399115D01*
Y247700D01*
X397515D01*
X423241Y191118D02*
Y192718D01*
X424841D01*
Y191118D01*
X423241D01*
X428200Y192200D02*
Y193800D01*
X429800D01*
Y192200D01*
X428200D01*
X363700Y246700D02*
Y248300D01*
X365300D01*
Y246700D01*
X363700D01*
X362749Y251651D02*
Y253251D01*
X364349D01*
Y251651D01*
X362749D01*
X361499Y256901D02*
Y258501D01*
X363099D01*
Y256901D01*
X361499D01*
M02*
