G04*
G04 #@! TF.GenerationSoftware,Altium Limited,Altium Designer,18.1.8 (232)*
G04*
G04 Layer_Color=16711935*
%FSLAX25Y25*%
%MOIN*%
G70*
G01*
G75*
%ADD26R,0.02250X0.07690*%
%ADD29C,0.03556*%
D26*
X427871Y138414D02*
D03*
X372601D02*
D03*
X380497D02*
D03*
X378523D02*
D03*
X376549D02*
D03*
X374575D02*
D03*
X382470D02*
D03*
X384444D02*
D03*
X386418D02*
D03*
X388392D02*
D03*
X390366D02*
D03*
X392340D02*
D03*
X394314D02*
D03*
X396288D02*
D03*
X398262D02*
D03*
X400236D02*
D03*
X402210D02*
D03*
X404184D02*
D03*
X406157D02*
D03*
X408132D02*
D03*
X410105D02*
D03*
X412079D02*
D03*
X414053D02*
D03*
X416027D02*
D03*
X418001D02*
D03*
X419975D02*
D03*
X421949D02*
D03*
X423923D02*
D03*
X425897D02*
D03*
X363168D02*
D03*
X357263D02*
D03*
X361200D02*
D03*
X359231D02*
D03*
D29*
X359500Y244000D02*
D03*
X398000Y197000D02*
D03*
X402500Y202000D02*
D03*
X398262Y192778D02*
D03*
X382000Y193000D02*
D03*
X387000Y196549D02*
D03*
X409000Y235000D02*
D03*
X406500Y240000D02*
D03*
X382447Y258192D02*
D03*
X395000Y152500D02*
D03*
X400500Y151778D02*
D03*
X377500Y160000D02*
D03*
X374500Y164000D02*
D03*
X361000Y239000D02*
D03*
X366000Y243500D02*
D03*
X361500Y217716D02*
D03*
X376549Y199500D02*
D03*
X366500Y150500D02*
D03*
X378523Y189000D02*
D03*
X361000Y234000D02*
D03*
X360500Y229000D02*
D03*
X362299Y224500D02*
D03*
X408712Y227634D02*
D03*
X383546Y166000D02*
D03*
X378523Y173500D02*
D03*
Y178542D02*
D03*
Y183500D02*
D03*
X382500Y158500D02*
D03*
X386000Y162000D02*
D03*
X415000Y209500D02*
D03*
X421600Y188000D02*
D03*
X386500Y244000D02*
D03*
X389028Y250000D02*
D03*
X391967Y246500D02*
D03*
X396923Y244000D02*
D03*
X398315Y248500D02*
D03*
X424041Y191918D02*
D03*
X429000Y193000D02*
D03*
X364500Y247500D02*
D03*
X363549Y252451D02*
D03*
X362299Y257701D02*
D03*
M02*
