G04*
G04 #@! TF.GenerationSoftware,Altium Limited,Altium Designer,18.1.8 (232)*
G04*
G04 Layer_Color=65535*
%FSLAX25Y25*%
%MOIN*%
G70*
G01*
G75*
%ADD10C,0.00787*%
%ADD11C,0.01000*%
%ADD12C,0.00500*%
D10*
X424783Y237671D02*
G03*
X424783Y239898I-1114J1114D01*
G01*
X418102Y233217D02*
G03*
X420329Y233217I1114J1114D01*
G01*
X407217Y246329D02*
G03*
X407217Y244102I1114J-1114D01*
G01*
X413898Y250783D02*
G03*
X411671Y250783I-1114J-1114D01*
G01*
X376677Y294728D02*
G03*
X378252Y296303I0J1575D01*
G01*
X368803D02*
G03*
X370378Y294728I1575J0D01*
G01*
Y313272D02*
G03*
X368803Y311697I0J-1575D01*
G01*
X378252D02*
G03*
X376677Y313272I-1575J0D01*
G01*
X392177Y294728D02*
G03*
X393752Y296303I0J1575D01*
G01*
X384303D02*
G03*
X385878Y294728I1575J0D01*
G01*
Y313272D02*
G03*
X384303Y311697I0J-1575D01*
G01*
X393752D02*
G03*
X392177Y313272I-1575J0D01*
G01*
X399132Y168728D02*
Y174063D01*
X389683Y168728D02*
Y174063D01*
Y181937D02*
Y187272D01*
X399132D01*
X389683Y168728D02*
X399132D01*
Y181937D02*
Y187272D01*
X389659Y181937D02*
Y187272D01*
X380210Y168728D02*
X389659D01*
X380210Y187272D02*
X389659D01*
X380210Y181937D02*
Y187272D01*
Y168728D02*
Y174063D01*
X389659Y168728D02*
Y174063D01*
X407217Y244102D02*
X409875Y241443D01*
X415443Y235876D02*
X418102Y233217D01*
X422124Y242557D02*
X424783Y239898D01*
X413898Y250783D02*
X416557Y248125D01*
X420329Y233217D02*
X424783Y237671D01*
X407217Y246329D02*
X411671Y250783D01*
X368803Y307937D02*
Y311697D01*
Y296303D02*
Y300063D01*
X378252Y296303D02*
Y300063D01*
Y307937D02*
Y311697D01*
X370378Y294728D02*
X376677D01*
X370378Y313272D02*
X376677D01*
X384303Y307937D02*
Y311697D01*
Y296303D02*
Y300063D01*
X393752Y296303D02*
Y300063D01*
Y307937D02*
Y311697D01*
X385878Y294728D02*
X392177D01*
X385878Y313272D02*
X392177D01*
D11*
X383399Y200860D02*
X386227D01*
X362893Y221366D02*
X364307Y219952D01*
X362893Y221366D02*
X364307Y222780D01*
X383399Y241872D02*
X384813Y243287D01*
X386227Y241872D01*
X405319Y222780D02*
X406733Y221366D01*
X405319Y219952D02*
X406733Y221366D01*
X383399Y200860D02*
X384813Y199446D01*
X386227Y200860D01*
X391967Y191000D02*
Y194999D01*
X393967D01*
X394633Y194332D01*
Y192999D01*
X393967Y192333D01*
X391967D01*
X393300D02*
X394633Y191000D01*
X395966D02*
X397299D01*
X396632D01*
Y194999D01*
X395966Y194332D01*
X378000Y352999D02*
Y350000D01*
Y351500D01*
X379999D01*
Y352999D01*
Y350000D01*
X380999D02*
Y350500D01*
X381499D01*
Y350000D01*
X380999D01*
X383998Y352499D02*
Y351999D01*
X383498D01*
X384498D01*
X383998D01*
Y350500D01*
X384498Y350000D01*
X390996Y352499D02*
X390496Y352999D01*
X389496D01*
X388996Y352499D01*
Y351999D01*
X389496Y351500D01*
X390496D01*
X390996Y351000D01*
Y350500D01*
X390496Y350000D01*
X389496D01*
X388996Y350500D01*
X392495Y352499D02*
Y351999D01*
X391996D01*
X392995D01*
X392495D01*
Y350500D01*
X392995Y350000D01*
X394495Y351999D02*
Y350500D01*
X394994Y350000D01*
X396494D01*
Y351999D01*
X399493Y352999D02*
Y350000D01*
X397993D01*
X397494Y350500D01*
Y351500D01*
X397993Y351999D01*
X399493D01*
X400493Y350000D02*
X401492D01*
X400993D01*
Y351999D01*
X400493D01*
X403492Y350000D02*
X404491D01*
X404991Y350500D01*
Y351500D01*
X404491Y351999D01*
X403492D01*
X402992Y351500D01*
Y350500D01*
X403492Y350000D01*
X405991D02*
X407490D01*
X407990Y350500D01*
X407490Y351000D01*
X406491D01*
X405991Y351500D01*
X406491Y351999D01*
X407990D01*
X370500Y340999D02*
Y338000D01*
X372000D01*
X372499Y338500D01*
Y340499D01*
X372000Y340999D01*
X370500D01*
X374998Y338000D02*
X373999D01*
X373499Y338500D01*
Y339499D01*
X373999Y339999D01*
X374998D01*
X375498Y339499D01*
Y339000D01*
X373499D01*
X376498Y338000D02*
X377998D01*
X378497Y338500D01*
X377998Y339000D01*
X376998D01*
X376498Y339499D01*
X376998Y339999D01*
X378497D01*
X379497Y338000D02*
X380497D01*
X379997D01*
Y339999D01*
X379497D01*
X382996Y337000D02*
X383496D01*
X383996Y337500D01*
Y339999D01*
X382496D01*
X381996Y339499D01*
Y338500D01*
X382496Y338000D01*
X383996D01*
X384995D02*
Y339999D01*
X386495D01*
X386995Y339499D01*
Y338000D01*
X389494D02*
X388494D01*
X387994Y338500D01*
Y339499D01*
X388494Y339999D01*
X389494D01*
X389994Y339499D01*
Y339000D01*
X387994D01*
X392993Y340999D02*
Y338000D01*
X391493D01*
X390993Y338500D01*
Y339499D01*
X391493Y339999D01*
X392993D01*
X396991Y340999D02*
Y338000D01*
X398491D01*
X398991Y338500D01*
Y339000D01*
Y339499D01*
X398491Y339999D01*
X396991D01*
X399991D02*
Y338500D01*
X400490Y338000D01*
X401990D01*
Y337500D01*
X401490Y337000D01*
X400990D01*
X401990Y338000D02*
Y339999D01*
X407488Y340999D02*
X406488D01*
X405989Y340499D01*
Y338500D01*
X406488Y338000D01*
X407488D01*
X407988Y338500D01*
Y340499D01*
X407488Y340999D01*
X408988Y339999D02*
Y338000D01*
Y339000D01*
X409487Y339499D01*
X409987Y339999D01*
X410487D01*
X413486Y338000D02*
X412486D01*
X411987Y338500D01*
Y339499D01*
X412486Y339999D01*
X413486D01*
X413986Y339499D01*
Y339000D01*
X411987D01*
X415485Y338000D02*
X416485D01*
X416985Y338500D01*
Y339499D01*
X416485Y339999D01*
X415485D01*
X414986Y339499D01*
Y338500D01*
X415485Y338000D01*
X380800Y190700D02*
Y194699D01*
X382799D01*
X383466Y194032D01*
Y192699D01*
X382799Y192033D01*
X380800D01*
X382133D02*
X383466Y190700D01*
X387464D02*
X384799D01*
X387464Y193366D01*
Y194032D01*
X386798Y194699D01*
X385465D01*
X384799Y194032D01*
X396500Y276999D02*
X399166Y273000D01*
Y276999D02*
X396500Y273000D01*
X400499D02*
X401832D01*
X401165D01*
Y276999D01*
X400499Y276332D01*
X372066Y320032D02*
X371399Y320699D01*
X370066D01*
X369400Y320032D01*
Y317366D01*
X370066Y316700D01*
X371399D01*
X372066Y317366D01*
X373399Y320032D02*
X374065Y320699D01*
X375398D01*
X376064Y320032D01*
Y319366D01*
X375398Y318699D01*
X374732D01*
X375398D01*
X376064Y318033D01*
Y317366D01*
X375398Y316700D01*
X374065D01*
X373399Y317366D01*
X387566Y320032D02*
X386899Y320699D01*
X385566D01*
X384900Y320032D01*
Y317366D01*
X385566Y316700D01*
X386899D01*
X387566Y317366D01*
X391564Y316700D02*
X388899D01*
X391564Y319366D01*
Y320032D01*
X390898Y320699D01*
X389565D01*
X388899Y320032D01*
X410066Y257932D02*
X409399Y258599D01*
X408066D01*
X407400Y257932D01*
Y255266D01*
X408066Y254600D01*
X409399D01*
X410066Y255266D01*
X411399Y254600D02*
X412732D01*
X412065D01*
Y258599D01*
X411399Y257932D01*
D12*
X371487Y269437D02*
X391267D01*
X371487Y281563D02*
X391267D01*
M02*
