G04*
G04 #@! TF.GenerationSoftware,Altium Limited,Altium Designer,18.1.8 (232)*
G04*
G04 Layer_Color=8388736*
%FSLAX25Y25*%
%MOIN*%
G70*
G01*
G75*
%ADD21R,0.07887X0.05249*%
G04:AMPARAMS|DCode=22|XSize=19.02mil|YSize=51.31mil|CornerRadius=6.76mil|HoleSize=0mil|Usage=FLASHONLY|Rotation=225.000|XOffset=0mil|YOffset=0mil|HoleType=Round|Shape=RoundedRectangle|*
%AMROUNDEDRECTD22*
21,1,0.01902,0.03780,0,0,225.0*
21,1,0.00551,0.05131,0,0,225.0*
1,1,0.01351,-0.01531,0.01141*
1,1,0.01351,-0.01141,0.01531*
1,1,0.01351,0.01531,-0.01141*
1,1,0.01351,0.01141,-0.01531*
%
%ADD22ROUNDEDRECTD22*%
G04:AMPARAMS|DCode=23|XSize=19.02mil|YSize=51.31mil|CornerRadius=6.76mil|HoleSize=0mil|Usage=FLASHONLY|Rotation=135.000|XOffset=0mil|YOffset=0mil|HoleType=Round|Shape=RoundedRectangle|*
%AMROUNDEDRECTD23*
21,1,0.01902,0.03780,0,0,135.0*
21,1,0.00551,0.05131,0,0,135.0*
1,1,0.01351,0.01141,0.01531*
1,1,0.01351,0.01531,0.01141*
1,1,0.01351,-0.01141,-0.01531*
1,1,0.01351,-0.01531,-0.01141*
%
%ADD23ROUNDEDRECTD23*%
%ADD24P,0.30084X4X90.0*%
%ADD25R,0.07493X0.10249*%
%ADD26R,0.02250X0.07690*%
%ADD27R,0.02275X0.07690*%
G04:AMPARAMS|DCode=28|XSize=52.49mil|YSize=78.87mil|CornerRadius=0mil|HoleSize=0mil|Usage=FLASHONLY|Rotation=315.000|XOffset=0mil|YOffset=0mil|HoleType=Round|Shape=Rectangle|*
%AMROTATEDRECTD28*
4,1,4,-0.04644,-0.00933,0.00933,0.04644,0.04644,0.00933,-0.00933,-0.04644,-0.04644,-0.00933,0.0*
%
%ADD28ROTATEDRECTD28*%

%ADD29C,0.03556*%
D21*
X394407Y183866D02*
D03*
Y172134D02*
D03*
X384935D02*
D03*
Y183866D02*
D03*
X373528Y309866D02*
D03*
Y298134D02*
D03*
X389028Y309866D02*
D03*
Y298134D02*
D03*
D22*
X389963Y207864D02*
D03*
X391355Y209256D02*
D03*
X368528Y223733D02*
D03*
X369919Y225125D02*
D03*
X371311Y226517D02*
D03*
X372703Y227908D02*
D03*
X374095Y229300D02*
D03*
X375487Y230692D02*
D03*
X376879Y232084D02*
D03*
X378271Y233476D02*
D03*
X379663Y234868D02*
D03*
X381055Y236260D02*
D03*
X382447Y237652D02*
D03*
X401099Y219000D02*
D03*
X399707Y217608D02*
D03*
X398315Y216216D02*
D03*
X396923Y214824D02*
D03*
X395531Y213432D02*
D03*
X394139Y212040D02*
D03*
X392747Y210648D02*
D03*
X388571Y206473D02*
D03*
X387179Y205081D02*
D03*
D23*
X382447Y205081D02*
D03*
X381055Y206472D02*
D03*
X379663Y207864D02*
D03*
X378271Y209256D02*
D03*
X376879Y210648D02*
D03*
X375487Y212040D02*
D03*
X374095Y213432D02*
D03*
X372703Y214824D02*
D03*
X371311Y216216D02*
D03*
X369919Y217608D02*
D03*
X368528Y219000D02*
D03*
X387179Y237652D02*
D03*
X388571Y236260D02*
D03*
X389963Y234868D02*
D03*
X391355Y233476D02*
D03*
X392747Y232084D02*
D03*
X394139Y230692D02*
D03*
X395531Y229300D02*
D03*
X396923Y227908D02*
D03*
X398315Y226517D02*
D03*
X399707Y225125D02*
D03*
X401099Y223733D02*
D03*
D24*
X384813Y221366D02*
D03*
D25*
X389094Y275500D02*
D03*
X373661D02*
D03*
D26*
X395407Y137500D02*
D03*
X429013D02*
D03*
X415175D02*
D03*
X427036D02*
D03*
X425059D02*
D03*
X423082D02*
D03*
X421106D02*
D03*
X419129D02*
D03*
X417152D02*
D03*
X413198D02*
D03*
X411222D02*
D03*
X409245D02*
D03*
X407268D02*
D03*
X405291D02*
D03*
X403314D02*
D03*
X401338D02*
D03*
X399361D02*
D03*
X397384D02*
D03*
X393430D02*
D03*
X391454D02*
D03*
X389477D02*
D03*
X387500D02*
D03*
X385523D02*
D03*
X383546D02*
D03*
X381570D02*
D03*
X379593D02*
D03*
X377616D02*
D03*
X375639D02*
D03*
D27*
X373675D02*
D03*
X363604D02*
D03*
X355733D02*
D03*
X361604D02*
D03*
X359605D02*
D03*
X357605D02*
D03*
D28*
X411852Y246148D02*
D03*
X420148Y237852D02*
D03*
D29*
X359500Y244000D02*
D03*
X398000Y197000D02*
D03*
X402500Y202000D02*
D03*
X398262Y192778D02*
D03*
X382000Y193000D02*
D03*
X387000Y196549D02*
D03*
X409000Y235000D02*
D03*
X406500Y240000D02*
D03*
X382447Y258192D02*
D03*
X395000Y152500D02*
D03*
X400500Y151778D02*
D03*
X377500Y160000D02*
D03*
X374500Y164000D02*
D03*
X361000Y239000D02*
D03*
X366000Y243500D02*
D03*
X361500Y217716D02*
D03*
X376549Y199500D02*
D03*
X366500Y150500D02*
D03*
X378523Y189000D02*
D03*
X361000Y234000D02*
D03*
X360500Y229000D02*
D03*
X362299Y224500D02*
D03*
X408712Y227634D02*
D03*
X383546Y166000D02*
D03*
X378523Y173500D02*
D03*
Y178542D02*
D03*
Y183500D02*
D03*
X382500Y158500D02*
D03*
X386000Y162000D02*
D03*
X415000Y209500D02*
D03*
X421600Y188000D02*
D03*
X386500Y244000D02*
D03*
X389028Y250000D02*
D03*
X391967Y246500D02*
D03*
X396923Y244000D02*
D03*
X398315Y248500D02*
D03*
X424041Y191918D02*
D03*
X429000Y193000D02*
D03*
X364500Y247500D02*
D03*
X363549Y252451D02*
D03*
X362299Y257701D02*
D03*
M02*
