G04*
G04 #@! TF.GenerationSoftware,Altium Limited,Altium Designer,18.1.8 (232)*
G04*
G04 Layer_Physical_Order=2*
G04 Layer_Color=16711680*
%FSLAX25Y25*%
%MOIN*%
G70*
G01*
G75*
%ADD18R,0.01450X0.06890*%
%ADD30C,0.00600*%
%ADD31C,0.00800*%
%ADD32C,0.02756*%
G36*
X431000Y365500D02*
Y194287D01*
X430500Y194135D01*
X430356Y194350D01*
X430351Y194362D01*
X430234Y194483D01*
X430139Y194589D01*
X430058Y194690D01*
X429992Y194784D01*
X429939Y194871D01*
X429899Y194949D01*
X429872Y195018D01*
X429854Y195077D01*
X429845Y195128D01*
X429840Y195205D01*
X429816Y195255D01*
Y248541D01*
X429816Y248541D01*
X429754Y248853D01*
X429577Y249118D01*
X412318Y266377D01*
X412053Y266554D01*
X411741Y266616D01*
X411741Y266616D01*
X370397D01*
X370085Y266554D01*
X369820Y266377D01*
X369820Y266377D01*
X363316Y259873D01*
X363264Y259855D01*
X363206Y259804D01*
X363164Y259774D01*
X363109Y259744D01*
X363040Y259715D01*
X362957Y259688D01*
X362859Y259664D01*
X362753Y259646D01*
X362468Y259622D01*
X362306Y259620D01*
X362294Y259615D01*
X361566Y259470D01*
X360945Y259055D01*
X360530Y258434D01*
X360384Y257701D01*
X360530Y256969D01*
X360945Y256347D01*
X361566Y255932D01*
X362299Y255787D01*
X363031Y255932D01*
X363653Y256347D01*
X364068Y256969D01*
X364212Y257697D01*
X364218Y257709D01*
X364220Y257877D01*
X364228Y258020D01*
X364242Y258148D01*
X364262Y258262D01*
X364285Y258360D01*
X364313Y258443D01*
X364342Y258512D01*
X364371Y258566D01*
X364401Y258609D01*
X364452Y258666D01*
X364470Y258719D01*
X370735Y264984D01*
X374275D01*
X374466Y264522D01*
X364566Y254623D01*
X364513Y254605D01*
X364456Y254554D01*
X364414Y254524D01*
X364359Y254494D01*
X364290Y254465D01*
X364207Y254438D01*
X364109Y254414D01*
X364003Y254396D01*
X363718Y254372D01*
X363556Y254370D01*
X363544Y254365D01*
X362816Y254220D01*
X362195Y253805D01*
X361780Y253184D01*
X361634Y252451D01*
X361780Y251719D01*
X362195Y251097D01*
X362816Y250682D01*
X363549Y250537D01*
X364281Y250682D01*
X364903Y251097D01*
X365318Y251719D01*
X365462Y252447D01*
X365468Y252459D01*
X365470Y252627D01*
X365478Y252770D01*
X365492Y252898D01*
X365511Y253012D01*
X365535Y253110D01*
X365563Y253193D01*
X365592Y253262D01*
X365621Y253316D01*
X365651Y253359D01*
X365702Y253416D01*
X365720Y253469D01*
X376135Y263884D01*
X379078D01*
X379269Y263422D01*
X365518Y249671D01*
X365465Y249653D01*
X365407Y249602D01*
X365365Y249573D01*
X365310Y249543D01*
X365242Y249514D01*
X365159Y249487D01*
X365060Y249463D01*
X364954Y249445D01*
X364669Y249421D01*
X364508Y249419D01*
X364496Y249414D01*
X363767Y249269D01*
X363146Y248854D01*
X362731Y248233D01*
X362585Y247500D01*
X362731Y246767D01*
X363146Y246146D01*
X363767Y245731D01*
X364500Y245585D01*
X364985Y245682D01*
X365180Y245211D01*
X364646Y244854D01*
X364231Y244233D01*
X364085Y243500D01*
X364231Y242767D01*
X364646Y242146D01*
X365267Y241731D01*
X365996Y241586D01*
X366008Y241581D01*
X366176Y241579D01*
X366318Y241571D01*
X366447Y241557D01*
X366560Y241537D01*
X366659Y241513D01*
X366742Y241486D01*
X366810Y241457D01*
X366865Y241427D01*
X366907Y241398D01*
X366965Y241347D01*
X367018Y241329D01*
X370684Y237662D01*
Y231122D01*
X370222Y230931D01*
X363171Y237982D01*
X363153Y238035D01*
X363102Y238093D01*
X363073Y238135D01*
X363043Y238190D01*
X363014Y238258D01*
X362987Y238341D01*
X362963Y238440D01*
X362945Y238546D01*
X362921Y238831D01*
X362919Y238992D01*
X362914Y239004D01*
X362769Y239733D01*
X362354Y240354D01*
X361733Y240769D01*
X361000Y240915D01*
X360267Y240769D01*
X359646Y240354D01*
X359231Y239733D01*
X359085Y239000D01*
X359231Y238267D01*
X359646Y237646D01*
X360267Y237231D01*
X360996Y237086D01*
X361008Y237081D01*
X361176Y237079D01*
X361318Y237071D01*
X361447Y237057D01*
X361560Y237037D01*
X361659Y237013D01*
X361742Y236986D01*
X361810Y236957D01*
X361865Y236927D01*
X361907Y236898D01*
X361965Y236847D01*
X362018Y236829D01*
X363332Y235515D01*
X363143Y234997D01*
X362871Y234939D01*
X362784Y234992D01*
X362696Y235054D01*
X362478Y235239D01*
X362362Y235351D01*
X362350Y235356D01*
X361733Y235769D01*
X361000Y235915D01*
X360267Y235769D01*
X359646Y235354D01*
X359231Y234733D01*
X359085Y234000D01*
X359231Y233267D01*
X359646Y232646D01*
X360267Y232231D01*
X361000Y232085D01*
X361733Y232231D01*
X362350Y232644D01*
X362362Y232648D01*
X362483Y232766D01*
X362589Y232861D01*
X362690Y232942D01*
X362784Y233008D01*
X362871Y233061D01*
X362949Y233101D01*
X363018Y233128D01*
X363077Y233146D01*
X363128Y233155D01*
X363205Y233160D01*
X363255Y233184D01*
X363662D01*
X366853Y229994D01*
X366534Y229605D01*
X366312Y229754D01*
X366000Y229816D01*
X366000Y229816D01*
X362755D01*
X362705Y229840D01*
X362628Y229845D01*
X362577Y229854D01*
X362518Y229872D01*
X362449Y229899D01*
X362371Y229939D01*
X362284Y229992D01*
X362196Y230054D01*
X361978Y230239D01*
X361862Y230351D01*
X361850Y230356D01*
X361233Y230769D01*
X360500Y230915D01*
X359767Y230769D01*
X359146Y230354D01*
X358816Y229859D01*
X358316Y230011D01*
Y241662D01*
X358865Y242212D01*
X359500Y242085D01*
X360233Y242231D01*
X360854Y242646D01*
X361269Y243267D01*
X361415Y244000D01*
X361269Y244733D01*
X360854Y245354D01*
X360233Y245769D01*
X359500Y245915D01*
X358767Y245769D01*
X358146Y245354D01*
X357731Y244733D01*
X357585Y244000D01*
X357712Y243365D01*
X356923Y242577D01*
X356746Y242312D01*
X356684Y242000D01*
X356684Y242000D01*
Y226000D01*
X356684Y226000D01*
X356746Y225688D01*
X356923Y225423D01*
X362429Y219917D01*
X362376Y219800D01*
X362135Y219505D01*
X361500Y219631D01*
X360767Y219485D01*
X360146Y219070D01*
X359731Y218449D01*
X359585Y217716D01*
X359731Y216983D01*
X359869Y216777D01*
X359885Y216680D01*
X359966Y216550D01*
X360029Y216439D01*
X360139Y216210D01*
X360176Y216116D01*
X360208Y216021D01*
X360231Y215933D01*
X360246Y215850D01*
X360255Y215774D01*
X360259Y215681D01*
X360282Y215631D01*
Y146236D01*
X360259Y146185D01*
X360254Y146047D01*
X360242Y145935D01*
X360221Y145829D01*
X360193Y145728D01*
X360158Y145631D01*
X360115Y145538D01*
X360063Y145446D01*
X360002Y145357D01*
X359932Y145269D01*
X359838Y145168D01*
X359818Y145116D01*
X358202Y143500D01*
X354500D01*
Y365500D01*
X357000Y368000D01*
X380000D01*
X389000Y359000D01*
X396500D01*
X405500Y368000D01*
X428500D01*
X431000Y365500D01*
D02*
G37*
G36*
X413499Y259778D02*
X413307Y259316D01*
X393659D01*
X393659Y259316D01*
X393347Y259254D01*
X393082Y259077D01*
X393082Y259077D01*
X385923Y251918D01*
X385746Y251653D01*
X385684Y251341D01*
X385684Y251341D01*
Y246255D01*
X385660Y246205D01*
X385655Y246128D01*
X385646Y246077D01*
X385628Y246018D01*
X385601Y245949D01*
X385561Y245871D01*
X385508Y245784D01*
X385446Y245696D01*
X385261Y245478D01*
X385149Y245362D01*
X385144Y245350D01*
X384731Y244733D01*
X384585Y244000D01*
X384731Y243267D01*
X385146Y242646D01*
X385767Y242231D01*
X386500Y242085D01*
X387233Y242231D01*
X387854Y242646D01*
X388269Y243267D01*
X388415Y244000D01*
X388269Y244733D01*
X387856Y245350D01*
X387852Y245362D01*
X387734Y245483D01*
X387639Y245589D01*
X387558Y245690D01*
X387492Y245784D01*
X387439Y245871D01*
X387399Y245949D01*
X387372Y246018D01*
X387354Y246077D01*
X387345Y246128D01*
X387340Y246205D01*
X387316Y246255D01*
Y248350D01*
X387816Y248551D01*
X388295Y248231D01*
X389028Y248085D01*
X389760Y248231D01*
X390381Y248646D01*
X390407Y248684D01*
X390576Y248744D01*
X390997Y248668D01*
X391062Y248468D01*
X391056Y248425D01*
X391028Y248371D01*
X390975Y248284D01*
X390913Y248196D01*
X390728Y247978D01*
X390616Y247862D01*
X390611Y247850D01*
X390198Y247233D01*
X390052Y246500D01*
X390198Y245767D01*
X390613Y245146D01*
X391234Y244731D01*
X391967Y244585D01*
X392700Y244731D01*
X393321Y245146D01*
X393736Y245767D01*
X393856Y246372D01*
X394281Y246518D01*
X394357Y246522D01*
X394423Y246423D01*
X395316Y245530D01*
X395321Y245057D01*
X395321Y245057D01*
X395306Y244960D01*
X395154Y244733D01*
X395008Y244000D01*
X395154Y243267D01*
X395569Y242646D01*
X396190Y242231D01*
X396923Y242085D01*
X397656Y242231D01*
X398277Y242646D01*
X398692Y243267D01*
X398838Y244000D01*
X398692Y244733D01*
X398277Y245354D01*
X397937Y245581D01*
X397876Y245665D01*
X397867Y245667D01*
X397861Y245674D01*
X397559Y245847D01*
X397090Y246146D01*
X397019Y246198D01*
X396887Y246305D01*
X396839Y246351D01*
X396800Y246365D01*
X396778Y246400D01*
X396747Y246407D01*
X395816Y247338D01*
Y250162D01*
X396855Y251201D01*
X397373Y251040D01*
X397475Y250705D01*
X397470Y250628D01*
X397461Y250577D01*
X397443Y250518D01*
X397416Y250449D01*
X397376Y250371D01*
X397323Y250284D01*
X397261Y250196D01*
X397076Y249978D01*
X396964Y249862D01*
X396959Y249850D01*
X396546Y249233D01*
X396400Y248500D01*
X396546Y247767D01*
X396961Y247146D01*
X397582Y246731D01*
X398315Y246585D01*
X399048Y246731D01*
X399669Y247146D01*
X400084Y247767D01*
X400230Y248500D01*
X400084Y249233D01*
X399671Y249850D01*
X399667Y249862D01*
X399549Y249983D01*
X399454Y250089D01*
X399373Y250190D01*
X399307Y250284D01*
X399254Y250371D01*
X399214Y250449D01*
X399187Y250518D01*
X399169Y250577D01*
X399160Y250628D01*
X399155Y250705D01*
X399131Y250755D01*
Y251477D01*
X400166Y252513D01*
X412986D01*
X419684Y245814D01*
Y218469D01*
X419222Y218277D01*
X410884Y226616D01*
X410865Y226669D01*
X410815Y226727D01*
X410785Y226769D01*
X410755Y226823D01*
X410726Y226892D01*
X410699Y226975D01*
X410675Y227073D01*
X410657Y227180D01*
X410633Y227465D01*
X410632Y227626D01*
X410626Y227638D01*
X410481Y228366D01*
X410066Y228988D01*
X409445Y229403D01*
X409294Y229433D01*
X409129Y229975D01*
X413077Y233923D01*
X413254Y234188D01*
X413316Y234500D01*
X413316Y234500D01*
Y237053D01*
X413316Y237053D01*
X413254Y237365D01*
X413077Y237630D01*
X410130Y240577D01*
X409865Y240754D01*
X409553Y240816D01*
X409553Y240816D01*
X408755D01*
X408705Y240840D01*
X408628Y240845D01*
X408577Y240854D01*
X408518Y240872D01*
X408449Y240899D01*
X408371Y240939D01*
X408284Y240992D01*
X408196Y241054D01*
X407978Y241239D01*
X407862Y241352D01*
X407850Y241356D01*
X407233Y241769D01*
X406500Y241915D01*
X405767Y241769D01*
X405146Y241354D01*
X404731Y240733D01*
X404585Y240000D01*
X404731Y239267D01*
X405144Y238650D01*
X405149Y238638D01*
X405266Y238517D01*
X405361Y238411D01*
X405442Y238310D01*
X405508Y238216D01*
X405561Y238129D01*
X405601Y238051D01*
X405628Y237982D01*
X405646Y237923D01*
X405655Y237872D01*
X405659Y237812D01*
X396162Y228316D01*
X391338D01*
X383262Y236391D01*
Y255937D01*
X383287Y255988D01*
X383292Y256064D01*
X383301Y256115D01*
X383318Y256175D01*
X383346Y256244D01*
X383386Y256322D01*
X383439Y256408D01*
X383501Y256496D01*
X383686Y256715D01*
X383798Y256830D01*
X383803Y256842D01*
X384216Y257460D01*
X384362Y258192D01*
X384216Y258925D01*
X383801Y259546D01*
X383180Y259961D01*
X382447Y260107D01*
X381714Y259961D01*
X381093Y259546D01*
X380678Y258925D01*
X380532Y258192D01*
X380678Y257460D01*
X381090Y256842D01*
X381095Y256830D01*
X381213Y256710D01*
X381308Y256603D01*
X381389Y256502D01*
X381455Y256408D01*
X381508Y256322D01*
X381547Y256244D01*
X381575Y256175D01*
X381593Y256115D01*
X381602Y256064D01*
X381607Y255988D01*
X381631Y255937D01*
Y236053D01*
X381631Y236053D01*
X381693Y235741D01*
X381870Y235476D01*
X390423Y226923D01*
X390423Y226923D01*
X390688Y226746D01*
X391000Y226684D01*
X391000Y226684D01*
X395907D01*
X396140Y226400D01*
X396140Y226400D01*
Y206842D01*
X388018Y198720D01*
X387965Y198702D01*
X387907Y198651D01*
X387865Y198621D01*
X387810Y198592D01*
X387742Y198563D01*
X387659Y198536D01*
X387560Y198512D01*
X387454Y198493D01*
X387169Y198470D01*
X387008Y198468D01*
X386996Y198463D01*
X386267Y198318D01*
X385655Y197909D01*
X385640Y197903D01*
X385541Y197807D01*
X385454Y197733D01*
X385371Y197671D01*
X385290Y197619D01*
X385212Y197577D01*
X385138Y197545D01*
X385066Y197520D01*
X384995Y197504D01*
X384925Y197494D01*
X384829Y197489D01*
X384781Y197466D01*
X379370D01*
X379019Y197397D01*
X378721Y197198D01*
X377952Y196428D01*
X377709Y196489D01*
X377466Y196650D01*
Y197281D01*
X377489Y197329D01*
X377494Y197425D01*
X377504Y197495D01*
X377520Y197565D01*
X377545Y197638D01*
X377577Y197712D01*
X377619Y197790D01*
X377671Y197871D01*
X377733Y197954D01*
X377807Y198041D01*
X377903Y198140D01*
X377909Y198155D01*
X378318Y198767D01*
X378464Y199500D01*
X378318Y200233D01*
X377903Y200854D01*
X377281Y201269D01*
X376549Y201415D01*
X375816Y201269D01*
X375195Y200854D01*
X374780Y200233D01*
X374634Y199500D01*
X374780Y198767D01*
X375189Y198155D01*
X375195Y198140D01*
X375291Y198041D01*
X375364Y197954D01*
X375427Y197871D01*
X375479Y197790D01*
X375520Y197712D01*
X375553Y197638D01*
X375577Y197566D01*
X375594Y197495D01*
X375604Y197425D01*
X375608Y197329D01*
X375631Y197281D01*
Y196929D01*
X372851Y194149D01*
X372816Y194096D01*
X372316Y194247D01*
Y238000D01*
X372254Y238312D01*
X372077Y238577D01*
X372077Y238577D01*
X368171Y242482D01*
X368153Y242535D01*
X368102Y242593D01*
X368073Y242635D01*
X368043Y242690D01*
X368014Y242758D01*
X367987Y242841D01*
X367963Y242940D01*
X367945Y243046D01*
X367921Y243331D01*
X367919Y243492D01*
X367914Y243504D01*
X367769Y244233D01*
X367354Y244854D01*
X366733Y245269D01*
X366000Y245415D01*
X365515Y245318D01*
X365320Y245789D01*
X365854Y246146D01*
X366269Y246767D01*
X366414Y247496D01*
X366419Y247508D01*
X366421Y247676D01*
X366429Y247818D01*
X366443Y247947D01*
X366463Y248060D01*
X366487Y248159D01*
X366514Y248242D01*
X366543Y248310D01*
X366573Y248365D01*
X366602Y248407D01*
X366653Y248465D01*
X366671Y248518D01*
X380938Y262784D01*
X410492D01*
X413499Y259778D01*
D02*
G37*
G36*
X364046Y259025D02*
X363974Y258944D01*
X363910Y258851D01*
X363854Y258748D01*
X363805Y258633D01*
X363764Y258508D01*
X363731Y258371D01*
X363706Y258224D01*
X363688Y258065D01*
X363679Y257896D01*
X363677Y257715D01*
X362312Y259079D01*
X362493Y259081D01*
X362821Y259109D01*
X362969Y259134D01*
X363105Y259167D01*
X363231Y259208D01*
X363345Y259257D01*
X363448Y259313D01*
X363541Y259377D01*
X363622Y259449D01*
X364046Y259025D01*
D02*
G37*
G36*
X383285Y257079D02*
X383072Y256828D01*
X382986Y256706D01*
X382913Y256586D01*
X382853Y256468D01*
X382807Y256353D01*
X382773Y256240D01*
X382753Y256129D01*
X382747Y256021D01*
X382147D01*
X382140Y256129D01*
X382120Y256240D01*
X382087Y256353D01*
X382041Y256468D01*
X381981Y256586D01*
X381908Y256706D01*
X381821Y256828D01*
X381721Y256952D01*
X381609Y257079D01*
X381482Y257208D01*
X383411D01*
X383285Y257079D01*
D02*
G37*
G36*
X365296Y253775D02*
X365224Y253694D01*
X365160Y253601D01*
X365104Y253498D01*
X365055Y253383D01*
X365014Y253258D01*
X364981Y253121D01*
X364956Y252974D01*
X364938Y252815D01*
X364929Y252646D01*
X364927Y252465D01*
X363562Y253829D01*
X363743Y253831D01*
X364071Y253859D01*
X364219Y253884D01*
X364355Y253917D01*
X364481Y253958D01*
X364595Y254007D01*
X364698Y254063D01*
X364791Y254127D01*
X364872Y254199D01*
X365296Y253775D01*
D02*
G37*
G36*
X390775Y251324D02*
X390703Y251242D01*
X390639Y251150D01*
X390583Y251046D01*
X390534Y250932D01*
X390493Y250806D01*
X390460Y250670D01*
X390435Y250522D01*
X390417Y250364D01*
X390407Y250194D01*
X390405Y250014D01*
X389041Y251378D01*
X389222Y251380D01*
X389550Y251407D01*
X389698Y251433D01*
X389834Y251466D01*
X389959Y251507D01*
X390074Y251555D01*
X390177Y251612D01*
X390270Y251676D01*
X390351Y251748D01*
X390775Y251324D01*
D02*
G37*
G36*
X398622Y250563D02*
X398642Y250453D01*
X398675Y250340D01*
X398721Y250224D01*
X398781Y250107D01*
X398854Y249987D01*
X398941Y249865D01*
X399040Y249740D01*
X399153Y249613D01*
X399280Y249484D01*
X397350D01*
X397477Y249613D01*
X397689Y249865D01*
X397776Y249987D01*
X397849Y250107D01*
X397909Y250224D01*
X397955Y250340D01*
X397988Y250453D01*
X398008Y250563D01*
X398015Y250672D01*
X398615D01*
X398622Y250563D01*
D02*
G37*
G36*
X366248Y248823D02*
X366176Y248742D01*
X366112Y248650D01*
X366055Y248546D01*
X366007Y248432D01*
X365966Y248306D01*
X365933Y248170D01*
X365907Y248023D01*
X365890Y247864D01*
X365880Y247694D01*
X365878Y247514D01*
X364514Y248878D01*
X364694Y248880D01*
X365022Y248907D01*
X365170Y248933D01*
X365306Y248966D01*
X365432Y249007D01*
X365546Y249055D01*
X365650Y249112D01*
X365742Y249176D01*
X365824Y249248D01*
X366248Y248823D01*
D02*
G37*
G36*
X392274Y248563D02*
X392294Y248453D01*
X392327Y248340D01*
X392373Y248224D01*
X392433Y248107D01*
X392506Y247987D01*
X392593Y247865D01*
X392692Y247740D01*
X392806Y247613D01*
X392932Y247484D01*
X391003D01*
X391129Y247613D01*
X391341Y247865D01*
X391428Y247987D01*
X391501Y248107D01*
X391561Y248224D01*
X391607Y248340D01*
X391641Y248453D01*
X391660Y248563D01*
X391667Y248672D01*
X392267D01*
X392274Y248563D01*
D02*
G37*
G36*
X386807Y246063D02*
X386827Y245953D01*
X386860Y245840D01*
X386906Y245724D01*
X386966Y245607D01*
X387039Y245487D01*
X387126Y245364D01*
X387225Y245240D01*
X387338Y245113D01*
X387465Y244984D01*
X385535D01*
X385662Y245113D01*
X385874Y245364D01*
X385961Y245487D01*
X386034Y245607D01*
X386094Y245724D01*
X386140Y245840D01*
X386173Y245953D01*
X386193Y246063D01*
X386200Y246172D01*
X386800D01*
X386807Y246063D01*
D02*
G37*
G36*
X396530Y245898D02*
X396689Y245769D01*
X396785Y245699D01*
X397279Y245384D01*
X397593Y245204D01*
X395782Y244773D01*
X395856Y244893D01*
X395913Y245010D01*
X395952Y245124D01*
X395974Y245234D01*
X395979Y245341D01*
X395967Y245445D01*
X395938Y245546D01*
X395891Y245643D01*
X395828Y245738D01*
X395747Y245829D01*
X396468Y245956D01*
X396530Y245898D01*
D02*
G37*
G36*
X367380Y243306D02*
X367407Y242977D01*
X367433Y242830D01*
X367466Y242693D01*
X367507Y242568D01*
X367555Y242454D01*
X367612Y242350D01*
X367676Y242258D01*
X367748Y242177D01*
X367323Y241752D01*
X367242Y241824D01*
X367150Y241888D01*
X367046Y241945D01*
X366932Y241993D01*
X366807Y242034D01*
X366670Y242067D01*
X366523Y242093D01*
X366364Y242110D01*
X366194Y242120D01*
X366014Y242122D01*
X367378Y243486D01*
X367380Y243306D01*
D02*
G37*
G36*
X407613Y240838D02*
X407865Y240626D01*
X407987Y240539D01*
X408107Y240466D01*
X408224Y240406D01*
X408340Y240360D01*
X408453Y240327D01*
X408563Y240307D01*
X408672Y240300D01*
Y239700D01*
X408563Y239693D01*
X408453Y239673D01*
X408340Y239640D01*
X408224Y239594D01*
X408107Y239534D01*
X407987Y239461D01*
X407865Y239374D01*
X407740Y239275D01*
X407613Y239162D01*
X407484Y239035D01*
Y240965D01*
X407613Y240838D01*
D02*
G37*
G36*
X407338Y238887D02*
X407126Y238635D01*
X407039Y238513D01*
X406966Y238393D01*
X406906Y238276D01*
X406860Y238160D01*
X406827Y238047D01*
X406807Y237937D01*
X406800Y237828D01*
X406200D01*
X406193Y237937D01*
X406173Y238047D01*
X406140Y238160D01*
X406094Y238276D01*
X406034Y238393D01*
X405961Y238513D01*
X405874Y238635D01*
X405775Y238760D01*
X405662Y238887D01*
X405535Y239016D01*
X407465D01*
X407338Y238887D01*
D02*
G37*
G36*
X362380Y238806D02*
X362407Y238477D01*
X362433Y238330D01*
X362466Y238193D01*
X362507Y238068D01*
X362555Y237954D01*
X362612Y237850D01*
X362676Y237758D01*
X362748Y237677D01*
X362323Y237252D01*
X362242Y237324D01*
X362150Y237388D01*
X362046Y237445D01*
X361932Y237493D01*
X361807Y237534D01*
X361670Y237567D01*
X361523Y237593D01*
X361364Y237610D01*
X361194Y237620D01*
X361014Y237622D01*
X362378Y238986D01*
X362380Y238806D01*
D02*
G37*
G36*
X408016Y234035D02*
X407887Y234162D01*
X407635Y234374D01*
X407513Y234461D01*
X407393Y234534D01*
X407276Y234594D01*
X407160Y234640D01*
X407047Y234673D01*
X406937Y234693D01*
X406828Y234700D01*
Y235300D01*
X406937Y235307D01*
X407047Y235327D01*
X407160Y235360D01*
X407276Y235406D01*
X407393Y235466D01*
X407513Y235539D01*
X407635Y235626D01*
X407760Y235725D01*
X407887Y235838D01*
X408016Y235965D01*
Y234035D01*
D02*
G37*
G36*
X362113Y234838D02*
X362365Y234626D01*
X362487Y234539D01*
X362607Y234466D01*
X362724Y234406D01*
X362840Y234360D01*
X362953Y234327D01*
X363063Y234307D01*
X363172Y234300D01*
Y233700D01*
X363063Y233693D01*
X362953Y233673D01*
X362840Y233640D01*
X362724Y233594D01*
X362607Y233534D01*
X362487Y233461D01*
X362365Y233374D01*
X362240Y233275D01*
X362113Y233162D01*
X361984Y233035D01*
Y234965D01*
X362113Y234838D01*
D02*
G37*
G36*
X361613Y229838D02*
X361864Y229626D01*
X361987Y229539D01*
X362107Y229466D01*
X362224Y229406D01*
X362340Y229360D01*
X362453Y229327D01*
X362563Y229307D01*
X362672Y229300D01*
Y228700D01*
X362563Y228693D01*
X362453Y228673D01*
X362340Y228640D01*
X362224Y228594D01*
X362107Y228534D01*
X361987Y228461D01*
X361864Y228374D01*
X361740Y228275D01*
X361613Y228162D01*
X361484Y228035D01*
Y229965D01*
X361613Y229838D01*
D02*
G37*
G36*
X410092Y227439D02*
X410120Y227111D01*
X410145Y226964D01*
X410178Y226827D01*
X410219Y226702D01*
X410268Y226587D01*
X410324Y226484D01*
X410388Y226392D01*
X410460Y226310D01*
X410036Y225886D01*
X409955Y225958D01*
X409862Y226022D01*
X409759Y226079D01*
X409644Y226127D01*
X409519Y226168D01*
X409382Y226201D01*
X409235Y226226D01*
X409076Y226244D01*
X408907Y226254D01*
X408726Y226256D01*
X410090Y227620D01*
X410092Y227439D01*
D02*
G37*
G36*
X363679Y224306D02*
X363706Y223977D01*
X363731Y223830D01*
X363764Y223693D01*
X363805Y223568D01*
X363854Y223454D01*
X363910Y223350D01*
X363974Y223258D01*
X364046Y223177D01*
X363622Y222752D01*
X363541Y222824D01*
X363448Y222888D01*
X363345Y222945D01*
X363231Y222993D01*
X363105Y223034D01*
X362969Y223067D01*
X362821Y223093D01*
X362663Y223110D01*
X362493Y223120D01*
X362312Y223122D01*
X363677Y224486D01*
X363679Y224306D01*
D02*
G37*
G36*
X406795Y234160D02*
X406872Y234155D01*
X406923Y234146D01*
X406982Y234128D01*
X407051Y234101D01*
X407129Y234061D01*
X407216Y234008D01*
X407304Y233946D01*
X407522Y233761D01*
X407638Y233648D01*
X407650Y233644D01*
X408267Y233231D01*
X409000Y233085D01*
X409280Y233141D01*
X409527Y232680D01*
X407238Y230391D01*
X407233Y230388D01*
X407233Y230388D01*
X398233Y221388D01*
X397771Y221580D01*
Y226062D01*
X405894Y234184D01*
X406745D01*
X406795Y234160D01*
D02*
G37*
G36*
X362227Y216546D02*
X362108Y216465D01*
X362001Y216380D01*
X361907Y216289D01*
X361826Y216194D01*
X361757Y216093D01*
X361700Y215988D01*
X361656Y215877D01*
X361625Y215761D01*
X361606Y215641D01*
X361600Y215515D01*
X360800Y215703D01*
X360795Y215816D01*
X360782Y215933D01*
X360759Y216052D01*
X360727Y216174D01*
X360686Y216299D01*
X360636Y216427D01*
X360508Y216691D01*
X360431Y216827D01*
X360344Y216966D01*
X362227Y216546D01*
D02*
G37*
G36*
X415127Y208128D02*
X414940Y208107D01*
X414603Y208050D01*
X414452Y208014D01*
X414314Y207971D01*
X414187Y207924D01*
X414073Y207871D01*
X413971Y207813D01*
X413881Y207750D01*
X413804Y207681D01*
X413335Y208060D01*
X413409Y208144D01*
X413473Y208238D01*
X413528Y208342D01*
X413572Y208456D01*
X413607Y208580D01*
X413631Y208713D01*
X413646Y208857D01*
X413651Y209010D01*
X413646Y209173D01*
X413631Y209346D01*
X415127Y208128D01*
D02*
G37*
G36*
X403761Y202584D02*
X404144Y202048D01*
X404244Y201923D01*
X404664Y201459D01*
X404366Y200909D01*
X404274Y200991D01*
X404180Y201055D01*
X404084Y201101D01*
X403987Y201129D01*
X403887Y201139D01*
X403785Y201132D01*
X403682Y201106D01*
X403576Y201063D01*
X403468Y201001D01*
X403359Y200922D01*
X403671Y202727D01*
X403761Y202584D01*
D02*
G37*
G36*
X406913Y227054D02*
X406943Y226901D01*
X407359Y226280D01*
X407980Y225865D01*
X408708Y225720D01*
X408720Y225715D01*
X408888Y225713D01*
X409031Y225705D01*
X409159Y225690D01*
X409273Y225671D01*
X409371Y225647D01*
X409454Y225620D01*
X409523Y225591D01*
X409577Y225561D01*
X409620Y225532D01*
X409677Y225481D01*
X409730Y225462D01*
X418584Y216608D01*
Y204738D01*
X410645Y196798D01*
X410468Y196534D01*
X410406Y196222D01*
X410406Y196222D01*
Y180780D01*
X410406Y180780D01*
X410468Y180467D01*
X410645Y180203D01*
X417185Y173662D01*
Y157682D01*
X416685Y157530D01*
X416604Y157652D01*
X384680Y189577D01*
X384415Y189754D01*
X384103Y189816D01*
X384103Y189816D01*
X380778D01*
X380728Y189840D01*
X380651Y189845D01*
X380600Y189854D01*
X380540Y189872D01*
X380471Y189899D01*
X380393Y189939D01*
X380307Y189992D01*
X380219Y190054D01*
X380000Y190239D01*
X379885Y190351D01*
X379873Y190356D01*
X379255Y190769D01*
X378523Y190915D01*
X377790Y190769D01*
X377169Y190354D01*
X377018Y190128D01*
X376518Y190279D01*
Y192398D01*
X379750Y195631D01*
X384781D01*
X384829Y195608D01*
X384925Y195604D01*
X384995Y195594D01*
X385066Y195577D01*
X385138Y195553D01*
X385212Y195520D01*
X385290Y195479D01*
X385371Y195427D01*
X385454Y195364D01*
X385541Y195291D01*
X385640Y195195D01*
X385655Y195189D01*
X386267Y194780D01*
X387000Y194634D01*
X387733Y194780D01*
X388354Y195195D01*
X388769Y195816D01*
X388822Y196082D01*
X395780D01*
X395829Y196059D01*
X395925Y196055D01*
X395995Y196045D01*
X396065Y196028D01*
X396138Y196004D01*
X396212Y195972D01*
X396290Y195930D01*
X396371Y195878D01*
X396454Y195816D01*
X396541Y195742D01*
X396640Y195646D01*
X396655Y195640D01*
X397267Y195231D01*
X397835Y195118D01*
Y194608D01*
X397529Y194547D01*
X397240Y194354D01*
X397132Y194330D01*
X396982Y194223D01*
X396852Y194136D01*
X396600Y193989D01*
X396499Y193940D01*
X396405Y193900D01*
X396322Y193871D01*
X396253Y193853D01*
X396200Y193844D01*
X396128Y193840D01*
X396077Y193816D01*
X384255D01*
X384205Y193840D01*
X384128Y193845D01*
X384077Y193854D01*
X384018Y193872D01*
X383949Y193899D01*
X383871Y193939D01*
X383784Y193992D01*
X383696Y194054D01*
X383478Y194239D01*
X383362Y194351D01*
X383350Y194356D01*
X382733Y194769D01*
X382000Y194915D01*
X381267Y194769D01*
X380646Y194354D01*
X380231Y193733D01*
X380085Y193000D01*
X380231Y192267D01*
X380646Y191646D01*
X381267Y191231D01*
X382000Y191085D01*
X382733Y191231D01*
X383350Y191644D01*
X383362Y191648D01*
X383483Y191766D01*
X383589Y191861D01*
X383690Y191942D01*
X383784Y192008D01*
X383871Y192061D01*
X383949Y192101D01*
X384018Y192128D01*
X384077Y192146D01*
X384128Y192155D01*
X384205Y192160D01*
X384255Y192184D01*
X395941D01*
X395970Y192166D01*
X395999Y192173D01*
X396025Y192160D01*
X396105Y192155D01*
X396151Y192146D01*
X396200Y192130D01*
X396255Y192105D01*
X396315Y192069D01*
X396381Y192021D01*
X396453Y191957D01*
X396530Y191878D01*
X396610Y191784D01*
X396702Y191661D01*
X396782Y191613D01*
X396908Y191425D01*
X397529Y191009D01*
X398262Y190864D01*
X398995Y191009D01*
X399616Y191425D01*
X400031Y192046D01*
X400176Y192774D01*
X400181Y192786D01*
X400183Y192954D01*
X400191Y193097D01*
X400205Y193225D01*
X400225Y193339D01*
X400249Y193437D01*
X400276Y193520D01*
X400305Y193589D01*
X400335Y193643D01*
X400364Y193686D01*
X400415Y193743D01*
X400433Y193796D01*
X401577Y194940D01*
X401577Y194940D01*
X401754Y195204D01*
X401816Y195517D01*
Y199000D01*
X401754Y199312D01*
X401577Y199577D01*
X401577Y199577D01*
X401034Y200120D01*
X401313Y200460D01*
D01*
X401339Y200492D01*
X401739Y200250D01*
X401767Y200231D01*
X402500Y200085D01*
X403233Y200231D01*
X403572Y200458D01*
X403671Y200480D01*
X404130Y200416D01*
X405122Y199423D01*
X405122Y199423D01*
X405387Y199246D01*
X405699Y199184D01*
X406011Y199246D01*
X406276Y199423D01*
X414110Y207257D01*
X414163Y207276D01*
X414218Y207325D01*
X414262Y207356D01*
X414321Y207390D01*
X414396Y207424D01*
X414488Y207459D01*
X414595Y207491D01*
X414712Y207520D01*
X415015Y207571D01*
X415186Y207590D01*
X415278Y207641D01*
X415733Y207731D01*
X416354Y208146D01*
X416769Y208767D01*
X416915Y209500D01*
X416769Y210233D01*
X416354Y210854D01*
X415733Y211269D01*
X415000Y211415D01*
X414267Y211269D01*
X413646Y210854D01*
X413231Y210233D01*
X413085Y209500D01*
X413112Y209364D01*
X413092Y209299D01*
X413105Y209141D01*
X413109Y209010D01*
X413106Y208892D01*
X413095Y208790D01*
X413079Y208702D01*
X413058Y208628D01*
X413035Y208567D01*
X413009Y208518D01*
X412981Y208477D01*
X412929Y208418D01*
X412925Y208407D01*
X412914Y208401D01*
X412901Y208355D01*
X405699Y201153D01*
X405085Y201767D01*
X405065Y201822D01*
X404656Y202274D01*
X404576Y202375D01*
X404210Y202887D01*
X404127Y203017D01*
X404116Y203025D01*
X404113Y203039D01*
X404029Y203092D01*
X403854Y203354D01*
X403233Y203769D01*
X402500Y203915D01*
X401767Y203769D01*
X401146Y203354D01*
X400731Y202733D01*
X400585Y202000D01*
X400731Y201267D01*
X400750Y201239D01*
X400992Y200839D01*
X400960Y200813D01*
X400960D01*
X400947Y200803D01*
X400620Y200534D01*
X398856Y202298D01*
Y205971D01*
X398871Y206049D01*
X398871Y206049D01*
Y219719D01*
X406370Y227218D01*
X406913Y227054D01*
D02*
G37*
G36*
X397225Y204966D02*
Y201960D01*
X397225Y201960D01*
X397287Y201648D01*
X397463Y201383D01*
X400184Y198662D01*
Y198011D01*
X399684Y197859D01*
X399354Y198354D01*
X398733Y198769D01*
X398000Y198915D01*
X397267Y198769D01*
X396655Y198360D01*
X396640Y198354D01*
X396541Y198258D01*
X396454Y198184D01*
X396371Y198122D01*
X396290Y198070D01*
X396212Y198028D01*
X396138Y197996D01*
X396066Y197972D01*
X395995Y197955D01*
X395925Y197945D01*
X395829Y197941D01*
X395780Y197918D01*
X390176D01*
X389984Y198380D01*
X396763Y205158D01*
X397225Y204966D01*
D02*
G37*
G36*
X377406Y198405D02*
X377310Y198292D01*
X377225Y198179D01*
X377152Y198064D01*
X377090Y197949D01*
X377039Y197832D01*
X376999Y197714D01*
X376971Y197596D01*
X376954Y197476D01*
X376949Y197355D01*
X376149D01*
X376143Y197476D01*
X376126Y197596D01*
X376098Y197714D01*
X376058Y197832D01*
X376008Y197949D01*
X375945Y198064D01*
X375872Y198179D01*
X375787Y198292D01*
X375691Y198405D01*
X375584Y198516D01*
X377513D01*
X377406Y198405D01*
D02*
G37*
G36*
X388748Y197872D02*
X388676Y197791D01*
X388612Y197698D01*
X388555Y197595D01*
X388507Y197481D01*
X388466Y197355D01*
X388433Y197219D01*
X388418Y197131D01*
X388761Y196788D01*
X388376Y196482D01*
X388357Y196583D01*
X387014Y197927D01*
X387194Y197929D01*
X387523Y197956D01*
X387670Y197981D01*
X387807Y198014D01*
X387932Y198055D01*
X388046Y198104D01*
X388150Y198160D01*
X388242Y198224D01*
X388323Y198296D01*
X388748Y197872D01*
D02*
G37*
G36*
X397016Y196035D02*
X396905Y196143D01*
X396792Y196239D01*
X396679Y196323D01*
X396565Y196397D01*
X396449Y196459D01*
X396332Y196510D01*
X396215Y196549D01*
X396096Y196577D01*
X395976Y196594D01*
X395855Y196600D01*
Y197400D01*
X395976Y197406D01*
X396096Y197423D01*
X396215Y197451D01*
X396332Y197490D01*
X396449Y197541D01*
X396565Y197603D01*
X396679Y197677D01*
X396792Y197761D01*
X396905Y197857D01*
X397016Y197965D01*
Y196035D01*
D02*
G37*
G36*
X386016Y195584D02*
X385905Y195691D01*
X385792Y195787D01*
X385679Y195872D01*
X385564Y195946D01*
X385449Y196008D01*
X385332Y196058D01*
X385214Y196098D01*
X385096Y196126D01*
X384976Y196143D01*
X384855Y196149D01*
Y196949D01*
X384976Y196954D01*
X385096Y196971D01*
X385214Y197000D01*
X385332Y197039D01*
X385449Y197090D01*
X385564Y197152D01*
X385679Y197225D01*
X385792Y197310D01*
X385905Y197406D01*
X386016Y197513D01*
Y195584D01*
D02*
G37*
G36*
X429307Y195063D02*
X429327Y194953D01*
X429360Y194840D01*
X429406Y194724D01*
X429466Y194607D01*
X429539Y194487D01*
X429626Y194365D01*
X429725Y194240D01*
X429838Y194113D01*
X429965Y193984D01*
X428035D01*
X428162Y194113D01*
X428374Y194365D01*
X428461Y194487D01*
X428534Y194607D01*
X428594Y194724D01*
X428640Y194840D01*
X428673Y194953D01*
X428693Y195063D01*
X428700Y195172D01*
X429300D01*
X429307Y195063D01*
D02*
G37*
G36*
X400010Y194102D02*
X399938Y194020D01*
X399873Y193928D01*
X399817Y193825D01*
X399768Y193710D01*
X399728Y193585D01*
X399694Y193448D01*
X399669Y193301D01*
X399652Y193142D01*
X399642Y192973D01*
X399640Y192792D01*
X398276Y194156D01*
X398456Y194158D01*
X398784Y194186D01*
X398932Y194211D01*
X399068Y194244D01*
X399194Y194285D01*
X399308Y194334D01*
X399412Y194390D01*
X399504Y194454D01*
X399585Y194526D01*
X400010Y194102D01*
D02*
G37*
G36*
X383113Y193838D02*
X383365Y193626D01*
X383487Y193539D01*
X383607Y193466D01*
X383724Y193406D01*
X383840Y193360D01*
X383953Y193327D01*
X384063Y193307D01*
X384172Y193300D01*
Y192700D01*
X384063Y192693D01*
X383953Y192673D01*
X383840Y192640D01*
X383724Y192594D01*
X383607Y192534D01*
X383487Y192461D01*
X383365Y192374D01*
X383240Y192275D01*
X383113Y192162D01*
X382984Y192035D01*
Y193965D01*
X383113Y193838D01*
D02*
G37*
G36*
X397135Y191985D02*
X397034Y192121D01*
X396931Y192242D01*
X396827Y192350D01*
X396721Y192443D01*
X396614Y192521D01*
X396506Y192586D01*
X396396Y192636D01*
X396285Y192671D01*
X396173Y192693D01*
X396059Y192700D01*
X396160Y193300D01*
X396260Y193306D01*
X396366Y193324D01*
X396479Y193353D01*
X396598Y193394D01*
X396724Y193447D01*
X396856Y193512D01*
X397138Y193677D01*
X397289Y193777D01*
X397446Y193889D01*
X397135Y191985D01*
D02*
G37*
G36*
X427110Y193126D02*
X427085Y193000D01*
X427231Y192267D01*
X427646Y191646D01*
X428267Y191231D01*
X429000Y191085D01*
X429733Y191231D01*
X430354Y191646D01*
X430500Y191865D01*
X431000Y191713D01*
Y145000D01*
X429610Y143610D01*
X428686D01*
Y174000D01*
X428686Y174000D01*
X428624Y174312D01*
X428447Y174577D01*
X428447Y174577D01*
X419816Y183209D01*
Y186390D01*
X420035Y186520D01*
X420316Y186600D01*
X420867Y186231D01*
X421600Y186085D01*
X422333Y186231D01*
X422954Y186646D01*
X423369Y187267D01*
X423515Y188000D01*
X423369Y188733D01*
X422954Y189354D01*
X422333Y189769D01*
X422185Y189798D01*
X422131Y189844D01*
X422016Y189881D01*
X421941Y189913D01*
X421885Y189944D01*
X421846Y189972D01*
X421821Y189996D01*
X421805Y190017D01*
X421794Y190039D01*
X421784Y190065D01*
X421777Y190103D01*
X421772Y190188D01*
X421747Y190238D01*
Y191260D01*
X422247Y191310D01*
X422272Y191185D01*
X422687Y190564D01*
X423309Y190149D01*
X424041Y190003D01*
X424774Y190149D01*
X425395Y190564D01*
X425810Y191185D01*
X425956Y191918D01*
X425830Y192552D01*
X426650Y193372D01*
X427110Y193126D01*
D02*
G37*
G36*
X421239Y190034D02*
X421261Y189922D01*
X421298Y189818D01*
X421349Y189723D01*
X421415Y189636D01*
X421496Y189558D01*
X421592Y189488D01*
X421702Y189426D01*
X421827Y189373D01*
X421966Y189328D01*
X420295Y188443D01*
X420359Y188635D01*
X420602Y189527D01*
X420618Y189633D01*
X420632Y189807D01*
X421232Y190155D01*
X421239Y190034D01*
D02*
G37*
G36*
X379636Y189838D02*
X379887Y189626D01*
X380009Y189539D01*
X380129Y189466D01*
X380247Y189406D01*
X380362Y189360D01*
X380475Y189327D01*
X380586Y189307D01*
X380694Y189300D01*
Y188700D01*
X380586Y188693D01*
X380475Y188673D01*
X380362Y188640D01*
X380247Y188594D01*
X380129Y188534D01*
X380009Y188461D01*
X379887Y188374D01*
X379763Y188275D01*
X379636Y188162D01*
X379507Y188035D01*
Y189965D01*
X379636Y189838D01*
D02*
G37*
G36*
X415211Y156738D02*
Y143610D01*
X414569D01*
Y155941D01*
X414569Y155941D01*
X414507Y156253D01*
X414330Y156518D01*
X386771Y184077D01*
X386507Y184254D01*
X386194Y184316D01*
X386194Y184316D01*
X380778D01*
X380728Y184340D01*
X380651Y184345D01*
X380600Y184354D01*
X380540Y184372D01*
X380471Y184399D01*
X380393Y184439D01*
X380307Y184492D01*
X380219Y184554D01*
X380000Y184739D01*
X379885Y184852D01*
X379873Y184856D01*
X379255Y185269D01*
X378523Y185415D01*
X377790Y185269D01*
X377169Y184854D01*
X377018Y184628D01*
X376518Y184780D01*
Y187721D01*
X377018Y187872D01*
X377169Y187646D01*
X377790Y187231D01*
X378523Y187085D01*
X379255Y187231D01*
X379873Y187644D01*
X379885Y187648D01*
X380005Y187766D01*
X380112Y187861D01*
X380213Y187942D01*
X380307Y188008D01*
X380393Y188061D01*
X380471Y188101D01*
X380540Y188128D01*
X380600Y188146D01*
X380651Y188155D01*
X380728Y188160D01*
X380778Y188184D01*
X383765D01*
X415211Y156738D01*
D02*
G37*
G36*
X379636Y184338D02*
X379887Y184126D01*
X380009Y184039D01*
X380129Y183966D01*
X380247Y183906D01*
X380362Y183860D01*
X380475Y183827D01*
X380586Y183807D01*
X380694Y183800D01*
Y183200D01*
X380586Y183193D01*
X380475Y183173D01*
X380362Y183140D01*
X380247Y183094D01*
X380129Y183034D01*
X380009Y182961D01*
X379887Y182874D01*
X379763Y182775D01*
X379636Y182662D01*
X379507Y182535D01*
Y184465D01*
X379636Y184338D01*
D02*
G37*
G36*
X388751Y179790D02*
X388504Y179329D01*
X388361Y179358D01*
X388361Y179358D01*
X380778D01*
X380728Y179383D01*
X380651Y179387D01*
X380600Y179396D01*
X380540Y179414D01*
X380471Y179442D01*
X380393Y179481D01*
X380307Y179534D01*
X380219Y179596D01*
X380000Y179781D01*
X379885Y179894D01*
X379873Y179899D01*
X379255Y180311D01*
X378523Y180457D01*
X377790Y180311D01*
X377169Y179896D01*
X377018Y179670D01*
X376518Y179822D01*
Y182220D01*
X377018Y182372D01*
X377169Y182146D01*
X377790Y181731D01*
X378523Y181585D01*
X379255Y181731D01*
X379873Y182144D01*
X379885Y182149D01*
X380005Y182266D01*
X380112Y182361D01*
X380213Y182442D01*
X380307Y182508D01*
X380393Y182561D01*
X380471Y182601D01*
X380540Y182628D01*
X380600Y182646D01*
X380651Y182655D01*
X380728Y182660D01*
X380778Y182684D01*
X385857D01*
X388751Y179790D01*
D02*
G37*
G36*
X379636Y179381D02*
X379887Y179168D01*
X380009Y179081D01*
X380129Y179008D01*
X380247Y178949D01*
X380362Y178902D01*
X380475Y178869D01*
X380586Y178849D01*
X380694Y178842D01*
Y178242D01*
X380586Y178236D01*
X380475Y178216D01*
X380362Y178182D01*
X380247Y178136D01*
X380129Y178076D01*
X380009Y178003D01*
X379887Y177917D01*
X379763Y177817D01*
X379636Y177704D01*
X379507Y177578D01*
Y179507D01*
X379636Y179381D01*
D02*
G37*
G36*
X391171Y174579D02*
X390852Y174190D01*
X390757Y174254D01*
X390445Y174316D01*
X390445Y174316D01*
X380778D01*
X380728Y174340D01*
X380651Y174345D01*
X380600Y174354D01*
X380540Y174372D01*
X380471Y174399D01*
X380393Y174439D01*
X380307Y174492D01*
X380219Y174554D01*
X380000Y174739D01*
X379885Y174852D01*
X379873Y174856D01*
X379255Y175269D01*
X378523Y175415D01*
X377790Y175269D01*
X377169Y174854D01*
X377018Y174628D01*
X376518Y174779D01*
Y177263D01*
X377018Y177415D01*
X377169Y177188D01*
X377790Y176773D01*
X378523Y176628D01*
X379255Y176773D01*
X379873Y177186D01*
X379885Y177191D01*
X380005Y177308D01*
X380112Y177403D01*
X380213Y177484D01*
X380307Y177551D01*
X380393Y177603D01*
X380471Y177643D01*
X380540Y177671D01*
X380600Y177688D01*
X380651Y177697D01*
X380728Y177702D01*
X380778Y177727D01*
X388023D01*
X391171Y174579D01*
D02*
G37*
G36*
X379636Y174338D02*
X379887Y174126D01*
X380009Y174039D01*
X380129Y173966D01*
X380247Y173906D01*
X380362Y173860D01*
X380475Y173827D01*
X380586Y173807D01*
X380694Y173800D01*
Y173200D01*
X380586Y173193D01*
X380475Y173173D01*
X380362Y173140D01*
X380247Y173094D01*
X380129Y173034D01*
X380009Y172961D01*
X379887Y172874D01*
X379763Y172775D01*
X379636Y172662D01*
X379507Y172535D01*
Y174465D01*
X379636Y174338D01*
D02*
G37*
G36*
X395502Y167289D02*
X395366Y166934D01*
X395269Y166816D01*
X385801D01*
X385751Y166840D01*
X385675Y166845D01*
X385624Y166854D01*
X385564Y166872D01*
X385495Y166899D01*
X385417Y166939D01*
X385331Y166992D01*
X385243Y167054D01*
X385024Y167239D01*
X384909Y167351D01*
X384897Y167356D01*
X384279Y167769D01*
X383546Y167915D01*
X382814Y167769D01*
X382192Y167354D01*
X381777Y166733D01*
X381632Y166000D01*
X381777Y165267D01*
X382192Y164646D01*
X382814Y164231D01*
X383546Y164085D01*
X384279Y164231D01*
X384897Y164644D01*
X384909Y164648D01*
X385029Y164766D01*
X385136Y164861D01*
X385237Y164942D01*
X385331Y165008D01*
X385417Y165061D01*
X385495Y165101D01*
X385564Y165128D01*
X385624Y165146D01*
X385675Y165155D01*
X385751Y165160D01*
X385801Y165184D01*
X394982D01*
X396918Y163248D01*
X396672Y162787D01*
X396528Y162816D01*
X396528Y162816D01*
X388255D01*
X388205Y162840D01*
X388128Y162845D01*
X388077Y162854D01*
X388018Y162872D01*
X387949Y162899D01*
X387871Y162939D01*
X387784Y162992D01*
X387696Y163054D01*
X387478Y163239D01*
X387362Y163352D01*
X387350Y163356D01*
X386733Y163769D01*
X386000Y163915D01*
X385267Y163769D01*
X384646Y163354D01*
X384231Y162733D01*
X384085Y162000D01*
X384231Y161267D01*
X384646Y160646D01*
X385267Y160231D01*
X386000Y160085D01*
X386733Y160231D01*
X387350Y160644D01*
X387362Y160649D01*
X387483Y160766D01*
X387589Y160861D01*
X387690Y160942D01*
X387784Y161008D01*
X387871Y161061D01*
X387949Y161101D01*
X388018Y161128D01*
X388077Y161146D01*
X388128Y161155D01*
X388205Y161160D01*
X388255Y161184D01*
X396190D01*
X397627Y159748D01*
X397381Y159287D01*
X397237Y159316D01*
X397237Y159316D01*
X384755D01*
X384705Y159340D01*
X384628Y159345D01*
X384577Y159354D01*
X384518Y159372D01*
X384449Y159399D01*
X384371Y159439D01*
X384284Y159492D01*
X384196Y159554D01*
X383978Y159739D01*
X383862Y159852D01*
X383850Y159856D01*
X383233Y160269D01*
X382500Y160415D01*
X381767Y160269D01*
X381146Y159854D01*
X380731Y159233D01*
X380585Y158500D01*
X380731Y157767D01*
X381146Y157146D01*
X381641Y156816D01*
X381489Y156316D01*
X377338D01*
X372316Y161338D01*
Y162989D01*
X372816Y163141D01*
X373146Y162646D01*
X373767Y162231D01*
X374500Y162085D01*
X375233Y162231D01*
X375854Y162646D01*
X376082Y162988D01*
X376582Y162836D01*
Y162220D01*
X376559Y162171D01*
X376555Y162075D01*
X376545Y162005D01*
X376528Y161934D01*
X376504Y161862D01*
X376472Y161788D01*
X376430Y161710D01*
X376378Y161629D01*
X376316Y161546D01*
X376242Y161459D01*
X376146Y161360D01*
X376140Y161345D01*
X375731Y160733D01*
X375585Y160000D01*
X375731Y159267D01*
X376146Y158646D01*
X376767Y158231D01*
X377500Y158085D01*
X378233Y158231D01*
X378854Y158646D01*
X379269Y159267D01*
X379415Y160000D01*
X379269Y160733D01*
X378860Y161345D01*
X378854Y161360D01*
X378758Y161459D01*
X378684Y161546D01*
X378622Y161629D01*
X378570Y161710D01*
X378528Y161788D01*
X378496Y161862D01*
X378472Y161934D01*
X378455Y162005D01*
X378445Y162075D01*
X378441Y162171D01*
X378418Y162220D01*
Y170000D01*
X378348Y170351D01*
X378149Y170649D01*
X377423Y171375D01*
X377741Y171763D01*
X377790Y171731D01*
X378523Y171585D01*
X379255Y171731D01*
X379873Y172144D01*
X379885Y172149D01*
X380005Y172266D01*
X380112Y172361D01*
X380213Y172442D01*
X380307Y172508D01*
X380393Y172561D01*
X380471Y172601D01*
X380540Y172628D01*
X380600Y172646D01*
X380651Y172655D01*
X380728Y172660D01*
X380778Y172684D01*
X390107D01*
X395502Y167289D01*
D02*
G37*
G36*
X384660Y166838D02*
X384911Y166626D01*
X385033Y166539D01*
X385153Y166466D01*
X385271Y166406D01*
X385386Y166360D01*
X385499Y166327D01*
X385610Y166307D01*
X385718Y166300D01*
Y165700D01*
X385610Y165693D01*
X385499Y165673D01*
X385386Y165640D01*
X385271Y165594D01*
X385153Y165534D01*
X385033Y165461D01*
X384911Y165374D01*
X384786Y165275D01*
X384660Y165162D01*
X384530Y165035D01*
Y166965D01*
X384660Y166838D01*
D02*
G37*
G36*
X387113Y162838D02*
X387365Y162626D01*
X387487Y162539D01*
X387607Y162466D01*
X387724Y162406D01*
X387840Y162360D01*
X387953Y162327D01*
X388063Y162307D01*
X388172Y162300D01*
Y161700D01*
X388063Y161693D01*
X387953Y161673D01*
X387840Y161640D01*
X387724Y161594D01*
X387607Y161534D01*
X387487Y161461D01*
X387365Y161374D01*
X387240Y161275D01*
X387113Y161162D01*
X386984Y161035D01*
Y162965D01*
X387113Y162838D01*
D02*
G37*
G36*
X377906Y162024D02*
X377923Y161904D01*
X377951Y161785D01*
X377990Y161668D01*
X378041Y161551D01*
X378103Y161435D01*
X378177Y161321D01*
X378261Y161208D01*
X378357Y161095D01*
X378465Y160984D01*
X376535D01*
X376643Y161095D01*
X376739Y161208D01*
X376823Y161321D01*
X376897Y161435D01*
X376959Y161551D01*
X377010Y161668D01*
X377049Y161785D01*
X377077Y161904D01*
X377094Y162024D01*
X377100Y162145D01*
X377900D01*
X377906Y162024D01*
D02*
G37*
G36*
X383613Y159338D02*
X383864Y159126D01*
X383987Y159039D01*
X384107Y158966D01*
X384224Y158906D01*
X384340Y158860D01*
X384453Y158827D01*
X384563Y158807D01*
X384672Y158800D01*
Y158200D01*
X384563Y158193D01*
X384453Y158173D01*
X384340Y158140D01*
X384224Y158094D01*
X384107Y158034D01*
X383987Y157961D01*
X383864Y157874D01*
X383740Y157775D01*
X383613Y157662D01*
X383484Y157535D01*
Y159465D01*
X383613Y159338D01*
D02*
G37*
G36*
X363684Y216705D02*
Y157000D01*
X363684Y157000D01*
X363746Y156688D01*
X363923Y156423D01*
X367966Y152380D01*
X367648Y151992D01*
X367233Y152269D01*
X366500Y152415D01*
X365767Y152269D01*
X365146Y151854D01*
X364731Y151233D01*
X364587Y150511D01*
X364581Y150496D01*
X364579Y150358D01*
X364570Y150244D01*
X364555Y150141D01*
X364534Y150048D01*
X364509Y149963D01*
X364479Y149887D01*
X364445Y149819D01*
X364407Y149758D01*
X364365Y149701D01*
X364300Y149630D01*
X364282Y149579D01*
X362617Y147915D01*
X362117Y148054D01*
Y215379D01*
X362127Y215391D01*
X362119Y215442D01*
X362140Y215488D01*
X362145Y215585D01*
X362155Y215649D01*
X362171Y215706D01*
X362192Y215759D01*
X362220Y215812D01*
X362256Y215864D01*
X362301Y215917D01*
X362359Y215973D01*
X362429Y216029D01*
X362530Y216097D01*
X362587Y216184D01*
X362854Y216362D01*
X363184Y216857D01*
X363684Y216705D01*
D02*
G37*
G36*
X399258Y153454D02*
X399350Y153390D01*
X399454Y153333D01*
X399568Y153285D01*
X399693Y153244D01*
X399830Y153211D01*
X399977Y153185D01*
X400136Y153168D01*
X400306Y153158D01*
X400486Y153156D01*
X399122Y151792D01*
X399120Y151972D01*
X399093Y152300D01*
X399067Y152448D01*
X399034Y152584D01*
X398993Y152710D01*
X398945Y152824D01*
X398888Y152928D01*
X398824Y153020D01*
X398752Y153101D01*
X399177Y153526D01*
X399258Y153454D01*
D02*
G37*
G36*
X394016Y151535D02*
X393887Y151662D01*
X393636Y151874D01*
X393513Y151961D01*
X393393Y152034D01*
X393276Y152094D01*
X393160Y152140D01*
X393047Y152173D01*
X392937Y152193D01*
X392828Y152200D01*
Y152800D01*
X392937Y152807D01*
X393047Y152827D01*
X393160Y152860D01*
X393276Y152906D01*
X393393Y152966D01*
X393513Y153039D01*
X393636Y153126D01*
X393760Y153225D01*
X393887Y153338D01*
X394016Y153465D01*
Y151535D01*
D02*
G37*
G36*
X366486Y149122D02*
X366332Y149119D01*
X366184Y149108D01*
X366044Y149088D01*
X365912Y149058D01*
X365786Y149021D01*
X365667Y148974D01*
X365556Y148919D01*
X365452Y148855D01*
X365355Y148782D01*
X365266Y148700D01*
X364700Y149266D01*
X364782Y149355D01*
X364855Y149452D01*
X364919Y149556D01*
X364974Y149667D01*
X365021Y149786D01*
X365058Y149911D01*
X365088Y150044D01*
X365108Y150184D01*
X365119Y150332D01*
X365122Y150486D01*
X366486Y149122D01*
D02*
G37*
G36*
X364026Y147453D02*
X363930Y147333D01*
X363845Y147208D01*
X363772Y147078D01*
X363710Y146944D01*
X363659Y146805D01*
X363619Y146661D01*
X363591Y146513D01*
X363574Y146360D01*
X363568Y146203D01*
X362768Y145403D01*
X362763Y145549D01*
X362746Y145668D01*
X362717Y145760D01*
X362678Y145824D01*
X362627Y145861D01*
X362565Y145871D01*
X362491Y145853D01*
X362406Y145809D01*
X362310Y145736D01*
X362203Y145637D01*
X363168Y147168D01*
X364134Y147568D01*
X364026Y147453D01*
D02*
G37*
G36*
X396997Y144349D02*
Y143610D01*
X379044D01*
X377272Y145382D01*
X377273Y145393D01*
X377498Y145863D01*
X395484D01*
X396997Y144349D01*
D02*
G37*
G36*
X376274Y144072D02*
X376083Y143610D01*
X373390D01*
X370000Y147000D01*
X366500D01*
X364548Y145048D01*
X364086Y145239D01*
Y146132D01*
X364109Y146183D01*
X364114Y146321D01*
X364126Y146433D01*
X364147Y146539D01*
X364175Y146640D01*
X364210Y146737D01*
X364254Y146830D01*
X364305Y146922D01*
X364366Y147011D01*
X364437Y147099D01*
X364530Y147200D01*
X364550Y147252D01*
X365579Y148282D01*
X365630Y148300D01*
X365701Y148365D01*
X365757Y148407D01*
X365819Y148445D01*
X365887Y148479D01*
X365963Y148509D01*
X366048Y148534D01*
X366141Y148555D01*
X366244Y148570D01*
X366358Y148579D01*
X366496Y148581D01*
X366511Y148587D01*
X367233Y148731D01*
X367854Y149146D01*
X368269Y149767D01*
X368415Y150500D01*
X368269Y151233D01*
X367992Y151647D01*
X368380Y151966D01*
X376274Y144072D01*
D02*
G37*
G36*
X361606Y146819D02*
X361622Y146700D01*
X361651Y146608D01*
X361690Y146544D01*
X361741Y146507D01*
X361804Y146497D01*
X361877Y146515D01*
X361962Y146560D01*
X362058Y146632D01*
X362165Y146731D01*
Y145600D01*
X362058Y145484D01*
X361962Y145364D01*
X361877Y145239D01*
X361804Y145110D01*
X361741Y144975D01*
X361690Y144837D01*
X361651Y144693D01*
X361622Y144545D01*
X361606Y144392D01*
X361600Y144234D01*
X360800Y143434D01*
X360794Y143580D01*
X360777Y143700D01*
X360749Y143791D01*
X360709Y143856D01*
X360658Y143893D01*
X360596Y143903D01*
X360523Y143885D01*
X360438Y143840D01*
X360342Y143768D01*
X360234Y143668D01*
Y144800D01*
X360342Y144915D01*
X360438Y145035D01*
X360523Y145160D01*
X360596Y145290D01*
X360658Y145424D01*
X360709Y145563D01*
X360749Y145707D01*
X360777Y145855D01*
X360794Y146008D01*
X360800Y146166D01*
X361600Y146966D01*
X361606Y146819D01*
D02*
G37*
G36*
X360089Y143516D02*
X359993Y143396D01*
X359909Y143271D01*
X359835Y143141D01*
X359773Y143007D01*
X359722Y142868D01*
X359682Y142725D01*
X359654Y142576D01*
X359639Y142445D01*
X359660Y142238D01*
X359681Y142134D01*
X359710Y142046D01*
X359744Y141974D01*
X359785Y141918D01*
X359832Y141878D01*
X359885Y141854D01*
X359944Y141846D01*
X359212D01*
X358831Y141466D01*
X358826Y141612D01*
X358809Y141731D01*
X358780Y141823D01*
X358766Y141846D01*
X358518D01*
X358578Y141854D01*
X358631Y141878D01*
X358678Y141918D01*
X358683Y141925D01*
X358628Y141934D01*
X358554Y141916D01*
X358469Y141872D01*
X358373Y141799D01*
X358365Y141792D01*
X358117Y141502D01*
X358024Y141369D01*
X357954Y141250D01*
X357908Y141143D01*
X357886Y141049D01*
X357888Y140968D01*
X357914Y140900D01*
X357964Y140844D01*
X356715Y141834D01*
X356782Y141796D01*
X356859Y141779D01*
X356946Y141783D01*
X357044Y141809D01*
X357152Y141856D01*
X357271Y141925D01*
X357399Y142015D01*
X357538Y142126D01*
X357846Y142412D01*
X358469Y142022D01*
X358830Y142595D01*
X358831Y142646D01*
X358862D01*
X359231Y143231D01*
X360197Y143631D01*
X360089Y143516D01*
D02*
G37*
G36*
X363571Y142494D02*
X363597Y142238D01*
X363618Y142134D01*
X363647Y142046D01*
X363681Y141974D01*
X363722Y141918D01*
X363769Y141878D01*
X363822Y141854D01*
X363881Y141846D01*
X362455D01*
X362515Y141854D01*
X362568Y141878D01*
X362615Y141918D01*
X362656Y141974D01*
X362690Y142046D01*
X362718Y142134D01*
X362740Y142238D01*
X362756Y142358D01*
X362765Y142494D01*
X362768Y142646D01*
X363568D01*
X363571Y142494D01*
D02*
G37*
G36*
X361603D02*
X361628Y142238D01*
X361650Y142134D01*
X361678Y142046D01*
X361713Y141974D01*
X361753Y141918D01*
X361800Y141878D01*
X361853Y141854D01*
X361913Y141846D01*
X360487D01*
X360546Y141854D01*
X360599Y141878D01*
X360646Y141918D01*
X360687Y141974D01*
X360721Y142046D01*
X360750Y142134D01*
X360772Y142238D01*
X360787Y142358D01*
X360797Y142494D01*
X360800Y142646D01*
X361600D01*
X361603Y142494D01*
D02*
G37*
G36*
X428174Y142330D02*
X428183Y142226D01*
X428198Y142134D01*
X428219Y142055D01*
X428246Y141987D01*
X428279Y141932D01*
X428318Y141889D01*
X428363Y141859D01*
X428414Y141841D01*
X428471Y141834D01*
X427271D01*
X427328Y141841D01*
X427379Y141859D01*
X427424Y141889D01*
X427463Y141932D01*
X427496Y141987D01*
X427523Y142055D01*
X427544Y142134D01*
X427559Y142226D01*
X427568Y142330D01*
X427571Y142446D01*
X428171D01*
X428174Y142330D01*
D02*
G37*
G36*
X426200D02*
X426209Y142226D01*
X426224Y142134D01*
X426245Y142055D01*
X426272Y141987D01*
X426305Y141932D01*
X426344Y141889D01*
X426389Y141859D01*
X426440Y141841D01*
X426497Y141834D01*
X425297D01*
X425354Y141841D01*
X425405Y141859D01*
X425450Y141889D01*
X425489Y141932D01*
X425522Y141987D01*
X425549Y142055D01*
X425570Y142134D01*
X425585Y142226D01*
X425594Y142330D01*
X425597Y142446D01*
X426197D01*
X426200Y142330D01*
D02*
G37*
G36*
X424226D02*
X424235Y142226D01*
X424250Y142134D01*
X424271Y142055D01*
X424298Y141987D01*
X424331Y141932D01*
X424370Y141889D01*
X424415Y141859D01*
X424466Y141841D01*
X424523Y141834D01*
X423323D01*
X423380Y141841D01*
X423431Y141859D01*
X423476Y141889D01*
X423515Y141932D01*
X423548Y141987D01*
X423575Y142055D01*
X423596Y142134D01*
X423611Y142226D01*
X423620Y142330D01*
X423623Y142446D01*
X424223D01*
X424226Y142330D01*
D02*
G37*
G36*
X422252D02*
X422261Y142226D01*
X422276Y142134D01*
X422297Y142055D01*
X422324Y141987D01*
X422357Y141932D01*
X422396Y141889D01*
X422441Y141859D01*
X422492Y141841D01*
X422549Y141834D01*
X421349D01*
X421406Y141841D01*
X421457Y141859D01*
X421502Y141889D01*
X421541Y141932D01*
X421574Y141987D01*
X421601Y142055D01*
X421622Y142134D01*
X421637Y142226D01*
X421646Y142330D01*
X421649Y142446D01*
X422249D01*
X422252Y142330D01*
D02*
G37*
G36*
X420278D02*
X420287Y142226D01*
X420302Y142134D01*
X420323Y142055D01*
X420350Y141987D01*
X420383Y141932D01*
X420422Y141889D01*
X420467Y141859D01*
X420518Y141841D01*
X420575Y141834D01*
X419375D01*
X419432Y141841D01*
X419483Y141859D01*
X419528Y141889D01*
X419567Y141932D01*
X419600Y141987D01*
X419627Y142055D01*
X419648Y142134D01*
X419663Y142226D01*
X419672Y142330D01*
X419675Y142446D01*
X420275D01*
X420278Y142330D01*
D02*
G37*
G36*
X418304D02*
X418313Y142226D01*
X418328Y142134D01*
X418349Y142055D01*
X418376Y141987D01*
X418409Y141932D01*
X418448Y141889D01*
X418493Y141859D01*
X418544Y141841D01*
X418601Y141834D01*
X417401D01*
X417458Y141841D01*
X417509Y141859D01*
X417554Y141889D01*
X417593Y141932D01*
X417626Y141987D01*
X417653Y142055D01*
X417674Y142134D01*
X417689Y142226D01*
X417698Y142330D01*
X417701Y142446D01*
X418301D01*
X418304Y142330D01*
D02*
G37*
G36*
X416330D02*
X416339Y142226D01*
X416354Y142134D01*
X416375Y142055D01*
X416402Y141987D01*
X416435Y141932D01*
X416474Y141889D01*
X416519Y141859D01*
X416570Y141841D01*
X416627Y141834D01*
X415427D01*
X415484Y141841D01*
X415535Y141859D01*
X415580Y141889D01*
X415619Y141932D01*
X415652Y141987D01*
X415679Y142055D01*
X415700Y142134D01*
X415715Y142226D01*
X415724Y142330D01*
X415727Y142446D01*
X416327D01*
X416330Y142330D01*
D02*
G37*
G36*
X414056Y142331D02*
X414065Y142227D01*
X414080Y142136D01*
X414101Y142056D01*
X414128Y141989D01*
X414161Y141934D01*
X414200Y141891D01*
X414245Y141860D01*
X414296Y141841D01*
X414353Y141834D01*
X413340Y141846D01*
X413362Y141852D01*
X413381Y141870D01*
X413398Y141900D01*
X413413Y141942D01*
X413425Y141996D01*
X413435Y142062D01*
X413449Y142230D01*
X413453Y142446D01*
X414053D01*
X414056Y142331D01*
D02*
G37*
G36*
X412082D02*
X412091Y142227D01*
X412106Y142136D01*
X412127Y142056D01*
X412154Y141989D01*
X412187Y141934D01*
X412226Y141891D01*
X412271Y141860D01*
X412322Y141841D01*
X412379Y141834D01*
X411366Y141846D01*
X411388Y141852D01*
X411407Y141870D01*
X411424Y141900D01*
X411439Y141942D01*
X411451Y141996D01*
X411461Y142062D01*
X411475Y142230D01*
X411479Y142446D01*
X412079D01*
X412082Y142331D01*
D02*
G37*
G36*
X410108D02*
X410117Y142227D01*
X410132Y142136D01*
X410153Y142056D01*
X410180Y141989D01*
X410213Y141934D01*
X410252Y141891D01*
X410297Y141860D01*
X410348Y141841D01*
X410405Y141834D01*
X409392Y141846D01*
X409414Y141852D01*
X409433Y141870D01*
X409450Y141900D01*
X409465Y141942D01*
X409477Y141996D01*
X409487Y142062D01*
X409501Y142230D01*
X409505Y142446D01*
X410105D01*
X410108Y142331D01*
D02*
G37*
G36*
X408135D02*
X408144Y142227D01*
X408158Y142136D01*
X408180Y142056D01*
X408207Y141989D01*
X408240Y141934D01*
X408279Y141891D01*
X408323Y141860D01*
X408375Y141841D01*
X408431Y141834D01*
X407418Y141846D01*
X407440Y141852D01*
X407459Y141870D01*
X407476Y141900D01*
X407491Y141942D01*
X407503Y141996D01*
X407513Y142062D01*
X407527Y142230D01*
X407531Y142446D01*
X408132D01*
X408135Y142331D01*
D02*
G37*
G36*
X406160D02*
X406170Y142227D01*
X406184Y142136D01*
X406206Y142056D01*
X406233Y141989D01*
X406265Y141934D01*
X406305Y141891D01*
X406350Y141860D01*
X406400Y141841D01*
X406458Y141834D01*
X405444Y141846D01*
X405466Y141852D01*
X405485Y141870D01*
X405502Y141900D01*
X405517Y141942D01*
X405529Y141996D01*
X405540Y142062D01*
X405553Y142230D01*
X405557Y142446D01*
X406157D01*
X406160Y142331D01*
D02*
G37*
G36*
X404187D02*
X404196Y142227D01*
X404211Y142136D01*
X404232Y142056D01*
X404259Y141989D01*
X404292Y141934D01*
X404331Y141891D01*
X404376Y141860D01*
X404427Y141841D01*
X404484Y141834D01*
X403471Y141846D01*
X403492Y141852D01*
X403511Y141870D01*
X403528Y141900D01*
X403543Y141942D01*
X403555Y141996D01*
X403566Y142062D01*
X403579Y142230D01*
X403584Y142446D01*
X404184D01*
X404187Y142331D01*
D02*
G37*
G36*
X402213D02*
X402222Y142227D01*
X402237Y142136D01*
X402258Y142056D01*
X402285Y141989D01*
X402318Y141934D01*
X402357Y141891D01*
X402402Y141860D01*
X402453Y141841D01*
X402510Y141834D01*
X401497Y141846D01*
X401518Y141852D01*
X401537Y141870D01*
X401554Y141900D01*
X401569Y141942D01*
X401581Y141996D01*
X401592Y142062D01*
X401605Y142230D01*
X401610Y142446D01*
X402210D01*
X402213Y142331D01*
D02*
G37*
G36*
X400090Y142331D02*
X400099Y142227D01*
X400114Y142136D01*
X400135Y142057D01*
X400162Y141989D01*
X400195Y141934D01*
X400234Y141891D01*
X400279Y141860D01*
X400330Y141841D01*
X400387Y141834D01*
X399523Y141846D01*
X399516Y141852D01*
X399510Y141870D01*
X399504Y141900D01*
X399500Y141942D01*
X399490Y142140D01*
X399487Y142446D01*
X400087D01*
X400090Y142331D01*
D02*
G37*
G36*
X398116D02*
X398125Y142227D01*
X398140Y142136D01*
X398161Y142057D01*
X398188Y141989D01*
X398221Y141934D01*
X398260Y141891D01*
X398305Y141860D01*
X398356Y141841D01*
X398413Y141834D01*
X397549Y141846D01*
X397542Y141852D01*
X397536Y141870D01*
X397531Y141900D01*
X397526Y141942D01*
X397516Y142140D01*
X397513Y142446D01*
X398113D01*
X398116Y142331D01*
D02*
G37*
G36*
X378826Y142330D02*
X378835Y142226D01*
X378850Y142134D01*
X378871Y142055D01*
X378898Y141987D01*
X378931Y141932D01*
X378970Y141889D01*
X379015Y141859D01*
X379066Y141841D01*
X379123Y141834D01*
X377923D01*
X377980Y141841D01*
X378031Y141859D01*
X378076Y141889D01*
X378115Y141932D01*
X378148Y141987D01*
X378175Y142055D01*
X378196Y142134D01*
X378211Y142226D01*
X378220Y142330D01*
X378223Y142446D01*
X378823D01*
X378826Y142330D01*
D02*
G37*
D18*
X427871Y138414D02*
D03*
X372601D02*
D03*
X380497D02*
D03*
X378523D02*
D03*
X376549D02*
D03*
X374575D02*
D03*
X382470D02*
D03*
X384444D02*
D03*
X386418D02*
D03*
X388392D02*
D03*
X390366D02*
D03*
X392340D02*
D03*
X394314D02*
D03*
X396288D02*
D03*
X398262D02*
D03*
X400236D02*
D03*
X402210D02*
D03*
X404184D02*
D03*
X406157D02*
D03*
X408132D02*
D03*
X410105D02*
D03*
X412079D02*
D03*
X414053D02*
D03*
X416027D02*
D03*
X418001D02*
D03*
X419975D02*
D03*
X421949D02*
D03*
X423923D02*
D03*
X425897D02*
D03*
X363168D02*
D03*
X357263D02*
D03*
X361200D02*
D03*
X359231D02*
D03*
D30*
X411286Y264700D02*
X427500Y248486D01*
Y195376D02*
Y248486D01*
X424041Y191918D02*
X427500Y195376D01*
X387549Y196000D02*
X388549Y197000D01*
X357500Y242000D02*
X359500Y244000D01*
X357500Y226000D02*
Y242000D01*
X357263Y138414D02*
Y141263D01*
X398040Y201960D02*
X401000Y199000D01*
Y195517D02*
Y199000D01*
X398262Y192778D02*
X401000Y195517D01*
X398040Y201960D02*
Y206033D01*
X398056Y206049D01*
Y220057D01*
X402500Y202000D02*
X403699D01*
X405699Y200000D01*
X387000Y196549D02*
X387549Y196000D01*
X398056Y220057D02*
X407810Y229812D01*
X407812D01*
X412500Y234500D01*
Y237053D01*
X409553Y240000D02*
X412500Y237053D01*
X406500Y240000D02*
X409553D01*
X398040Y193000D02*
X398262Y192778D01*
X382000Y193000D02*
X398040D01*
X396956Y206504D02*
Y226400D01*
X387000Y196549D02*
X396956Y206504D01*
X405556Y235000D02*
X409000D01*
X396956Y226400D02*
X405556Y235000D01*
X406500Y237500D02*
Y240000D01*
X396500Y227500D02*
X406500Y237500D01*
X391000Y227500D02*
X396500D01*
X382447Y236053D02*
X391000Y227500D01*
X382447Y236053D02*
Y258192D01*
X378000Y152500D02*
X395000D01*
X370397Y160103D02*
X378000Y152500D01*
X396778Y155500D02*
X400500Y151778D01*
X377000Y155500D02*
X396778D01*
X371500Y161000D02*
X377000Y155500D01*
X397822Y149678D02*
X401910Y145590D01*
X378822Y149678D02*
X397822D01*
X369000Y159500D02*
X378822Y149678D01*
X396632Y148178D02*
X399787Y145023D01*
X377822Y148178D02*
X396632D01*
X395822Y146678D02*
X397813Y144687D01*
X377322Y146678D02*
X395822D01*
X403884Y138714D02*
Y151853D01*
X367500Y158500D02*
X377822Y148178D01*
X366000Y158000D02*
X377322Y146678D01*
X397237Y158500D02*
X403884Y151853D01*
X382500Y158500D02*
X397237D01*
X370397Y160103D02*
Y229603D01*
X366000Y243500D02*
X371500Y238000D01*
Y161000D02*
Y238000D01*
X361000Y239000D02*
X370397Y229603D01*
X369000Y159500D02*
Y229000D01*
X357500Y226000D02*
X364500Y219000D01*
X366000Y158000D02*
Y220799D01*
X362299Y224500D02*
X366000Y220799D01*
X364500Y157000D02*
Y219000D01*
X361200Y217416D02*
X361500Y217716D01*
X378523Y138414D02*
Y142977D01*
X364500Y157000D02*
X378523Y142977D01*
X405699Y200000D02*
X415000Y209301D01*
X378523Y189000D02*
X384103D01*
X377500D02*
X378523D01*
X367500Y158500D02*
Y227500D01*
X364000Y234000D02*
X369000Y229000D01*
X361000Y234000D02*
X364000D01*
X366000Y229000D02*
X367500Y227500D01*
X360500Y229000D02*
X366000D01*
X397813Y138862D02*
Y144687D01*
X399787Y138862D02*
Y145023D01*
Y138862D02*
X400236Y138414D01*
X397813Y138862D02*
X398262Y138414D01*
X408712Y227634D02*
X419400Y216946D01*
Y204400D02*
Y216946D01*
X411222Y196222D02*
X419400Y204400D01*
X383546Y166000D02*
X395320D01*
X378523Y178542D02*
X388361D01*
X378000D02*
X378523D01*
Y183500D02*
X386194D01*
X378000D02*
X378523D01*
X384103Y189000D02*
X416027Y157076D01*
Y138414D02*
Y157076D01*
X390445Y173500D02*
X409805Y154140D01*
X378523Y173500D02*
X390445D01*
X388361Y178542D02*
X411779Y155124D01*
X386194Y183500D02*
X413753Y155941D01*
X409805Y138714D02*
Y154140D01*
X403884Y138714D02*
X404184Y138414D01*
X396528Y162000D02*
X405858Y152671D01*
Y138714D02*
Y152671D01*
X386000Y162000D02*
X396528D01*
X405858Y138714D02*
X406157Y138414D01*
X395320Y166000D02*
X407831Y153488D01*
Y138714D02*
Y153488D01*
Y138714D02*
X408132Y138414D01*
X409805Y138714D02*
X410105Y138414D01*
X411779Y138714D02*
Y155124D01*
Y138714D02*
X412079Y138414D01*
X413753Y138714D02*
Y155941D01*
Y138714D02*
X414053Y138414D01*
X401910Y138714D02*
Y145590D01*
Y138714D02*
X402210Y138414D01*
X415000Y209301D02*
Y209500D01*
X398322Y256150D02*
X413613D01*
X391967Y249796D02*
X398322Y256150D01*
X391967Y246500D02*
Y249796D01*
X389028Y250000D02*
X396427Y257400D01*
X386500Y251341D02*
X393659Y258500D01*
X419000Y194500D02*
X424900Y200400D01*
X419000Y182871D02*
Y194500D01*
Y182871D02*
X427871Y174000D01*
X420932Y188668D02*
Y194432D01*
Y188668D02*
X421600Y188000D01*
X420932Y194432D02*
X426000Y199500D01*
Y248430D01*
X417400Y194498D02*
X423800Y200898D01*
X417400Y182497D02*
Y194498D01*
Y182497D02*
X425897Y174000D01*
X411222Y180780D02*
Y196222D01*
Y180780D02*
X418001Y174000D01*
X413000Y196000D02*
X420500Y203500D01*
X413000Y180975D02*
Y196000D01*
Y180975D02*
X419975Y174000D01*
X414634Y195634D02*
X421600Y202600D01*
X414634Y181315D02*
Y195634D01*
Y181315D02*
X421949Y174000D01*
X416000Y195000D02*
X422700Y201700D01*
X416000Y181923D02*
Y195000D01*
Y181923D02*
X423923Y174000D01*
X399243Y254743D02*
X413465D01*
X395000Y250500D02*
X399243Y254743D01*
X395000Y247000D02*
Y250500D01*
X399828Y253328D02*
X413323D01*
X398315Y251815D02*
X399828Y253328D01*
X398315Y248500D02*
Y251815D01*
X386500Y244000D02*
Y251341D01*
X427871Y138414D02*
Y174000D01*
X425897Y138414D02*
Y174000D01*
X423923Y138414D02*
Y174000D01*
X395000Y247000D02*
X396923Y245077D01*
Y244000D02*
Y245077D01*
X421949Y138414D02*
Y174000D01*
X419975Y138414D02*
Y174000D01*
X418001Y138414D02*
Y174000D01*
X429000Y193000D02*
Y248541D01*
X362299Y257701D02*
X370397Y265800D01*
X363549Y252451D02*
X375797Y264700D01*
X364500Y247500D02*
X380600Y263600D01*
X410830D01*
X375797Y264700D02*
X411286D01*
X411741Y265800D02*
X429000Y248541D01*
X370397Y265800D02*
X411741D01*
X410830Y263600D02*
X426000Y248430D01*
X393659Y258500D02*
X414374D01*
X424900Y247974D01*
Y200400D02*
Y247974D01*
X396427Y257400D02*
X413919D01*
X423800Y247519D01*
Y200898D02*
Y247519D01*
X413613Y256150D02*
X422700Y247063D01*
Y201700D02*
Y247063D01*
X413465Y254743D02*
X421600Y246607D01*
Y202600D02*
Y246607D01*
X413323Y253328D02*
X420500Y246152D01*
Y203500D02*
Y246152D01*
D31*
X373500Y193500D02*
X376549Y196549D01*
X373500Y165000D02*
Y193500D01*
Y165000D02*
X374500Y164000D01*
X361200Y145200D02*
X363168Y147168D01*
X359231Y143231D02*
X361200Y145200D01*
Y217416D01*
Y138414D02*
Y145200D01*
X363168Y138414D02*
Y147168D01*
X366500Y150500D01*
X357263Y141263D02*
X359231Y143231D01*
Y138414D02*
Y143231D01*
X388549Y197000D02*
X398000D01*
X379370Y196549D02*
X385722D01*
X375600Y192778D02*
X379370Y196549D01*
X375600Y171900D02*
X377500Y170000D01*
Y160000D02*
Y170000D01*
X375600Y171900D02*
Y192778D01*
X376549Y196549D02*
Y199500D01*
D32*
X359500Y244000D02*
D03*
X398000Y197000D02*
D03*
X402500Y202000D02*
D03*
X398262Y192778D02*
D03*
X382000Y193000D02*
D03*
X387000Y196549D02*
D03*
X409000Y235000D02*
D03*
X406500Y240000D02*
D03*
X382447Y258192D02*
D03*
X395000Y152500D02*
D03*
X400500Y151778D02*
D03*
X377500Y160000D02*
D03*
X374500Y164000D02*
D03*
X361000Y239000D02*
D03*
X366000Y243500D02*
D03*
X361500Y217716D02*
D03*
X376549Y199500D02*
D03*
X366500Y150500D02*
D03*
X378523Y189000D02*
D03*
X361000Y234000D02*
D03*
X360500Y229000D02*
D03*
X362299Y224500D02*
D03*
X408712Y227634D02*
D03*
X383546Y166000D02*
D03*
X378523Y173500D02*
D03*
Y178542D02*
D03*
Y183500D02*
D03*
X382500Y158500D02*
D03*
X386000Y162000D02*
D03*
X415000Y209500D02*
D03*
X421600Y188000D02*
D03*
X386500Y244000D02*
D03*
X389028Y250000D02*
D03*
X391967Y246500D02*
D03*
X396923Y244000D02*
D03*
X398315Y248500D02*
D03*
X424041Y191918D02*
D03*
X429000Y193000D02*
D03*
X364500Y247500D02*
D03*
X363549Y252451D02*
D03*
X362299Y257701D02*
D03*
M02*
