G04*
G04 #@! TF.GenerationSoftware,Altium Limited,Altium Designer,18.1.8 (232)*
G04*
G04 Layer_Color=128*
%FSLAX25Y25*%
%MOIN*%
G70*
G01*
G75*
%ADD10C,0.00500*%
%ADD11C,0.00394*%
%ADD12C,0.00200*%
D10*
X384499Y369169D02*
G03*
X401501Y369109I8501J-30D01*
G01*
X370841Y143571D02*
G03*
X365921Y143521I-2460J-28D01*
G01*
X401501Y369109D02*
X412158Y369071D01*
X373133Y369210D02*
X384499Y369169D01*
X412158Y369071D02*
X431671Y369001D01*
X412158Y369071D02*
X412158Y369071D01*
X353621Y369279D02*
X373133Y369209D01*
X373133Y369210D01*
X365921Y133071D02*
Y143521D01*
X370841Y133071D02*
X431671D01*
X370841D02*
Y143571D01*
X353621Y133071D02*
X365921D01*
X353621Y369281D02*
X353621Y133071D01*
X431671Y369000D02*
X431671Y133071D01*
D11*
X370841Y143571D02*
G03*
X365921Y143521I-2461J39D01*
G01*
X353621Y133071D02*
Y148821D01*
X365921Y133071D02*
Y143521D01*
X353621Y133071D02*
X365921D01*
X370841D02*
Y143571D01*
Y133071D02*
X431671D01*
Y148821D01*
D12*
X358713Y244000D02*
X360287D01*
X359500Y243213D02*
Y244787D01*
X397213Y197000D02*
X398787D01*
X398000Y196213D02*
Y197787D01*
X401713Y202000D02*
X403287D01*
X402500Y201213D02*
Y202787D01*
X397475Y192778D02*
X399049D01*
X398262Y191991D02*
Y193566D01*
X381213Y193000D02*
X382787D01*
X382000Y192213D02*
Y193787D01*
X386213Y196549D02*
X387787D01*
X387000Y195761D02*
Y197336D01*
X408213Y235000D02*
X409787D01*
X409000Y234213D02*
Y235787D01*
X405713Y240000D02*
X407287D01*
X406500Y239213D02*
Y240787D01*
X381660Y258192D02*
X383234D01*
X382447Y257405D02*
Y258980D01*
X394213Y152500D02*
X395787D01*
X395000Y151713D02*
Y153287D01*
X399713Y151778D02*
X401287D01*
X400500Y150991D02*
Y152565D01*
X376713Y160000D02*
X378287D01*
X377500Y159213D02*
Y160787D01*
X373713Y164000D02*
X375287D01*
X374500Y163213D02*
Y164787D01*
X360213Y239000D02*
X361787D01*
X361000Y238213D02*
Y239787D01*
X365213Y243500D02*
X366787D01*
X366000Y242713D02*
Y244287D01*
X360713Y217716D02*
X362287D01*
X361500Y216929D02*
Y218503D01*
X375761Y199500D02*
X377336D01*
X376549Y198713D02*
Y200287D01*
X365713Y150500D02*
X367287D01*
X366500Y149713D02*
Y151287D01*
X377735Y189000D02*
X379310D01*
X378523Y188213D02*
Y189787D01*
X360213Y234000D02*
X361787D01*
X361000Y233213D02*
Y234787D01*
X359713Y229000D02*
X361287D01*
X360500Y228213D02*
Y229787D01*
X361511Y224500D02*
X363086D01*
X362299Y223713D02*
Y225287D01*
X407925Y227634D02*
X409500D01*
X408712Y226846D02*
Y228421D01*
X382759Y166000D02*
X384334D01*
X383546Y165213D02*
Y166787D01*
X377735Y173500D02*
X379310D01*
X378523Y172713D02*
Y174287D01*
X377735Y178542D02*
X379310D01*
X378523Y177755D02*
Y179330D01*
X377735Y183500D02*
X379310D01*
X378523Y182713D02*
Y184287D01*
X381713Y158500D02*
X383287D01*
X382500Y157713D02*
Y159287D01*
X385213Y162000D02*
X386787D01*
X386000Y161213D02*
Y162787D01*
X414213Y209500D02*
X415787D01*
X415000Y208713D02*
Y210287D01*
X420813Y188000D02*
X422387D01*
X421600Y187213D02*
Y188787D01*
X385713Y244000D02*
X387287D01*
X386500Y243213D02*
Y244787D01*
X388240Y250000D02*
X389815D01*
X389028Y249213D02*
Y250787D01*
X391180Y246500D02*
X392755D01*
X391967Y245713D02*
Y247287D01*
X396136Y244000D02*
X397710D01*
X396923Y243213D02*
Y244787D01*
X397528Y248500D02*
X399102D01*
X398315Y247713D02*
Y249287D01*
X423254Y191918D02*
X424829D01*
X424041Y191130D02*
Y192705D01*
X428213Y193000D02*
X429787D01*
X429000Y192213D02*
Y193787D01*
X363713Y247500D02*
X365287D01*
X364500Y246713D02*
Y248287D01*
X362761Y252451D02*
X364336D01*
X363549Y251664D02*
Y253239D01*
X361511Y257701D02*
X363086D01*
X362299Y256914D02*
Y258489D01*
M02*
